{"glyphs":{"0":{"ha":756,"x_min":42,"x_max":714,"o":"m 42 486 q 127 851 42 719 q 378 983 213 983 q 628 851 543 983 q 714 486 714 719 q 630 121 714 253 q 381 -11 546 -11 q 128 122 214 -11 q 42 486 42 254 m 264 486 q 381 183 264 183 q 466 251 440 183 q 492 486 492 318 q 465 722 492 654 q 378 789 439 789 q 291 719 318 789 q 264 486 264 650 z "},"1":{"ha":550,"x_min":26,"x_max":425,"o":"m 217 676 l 172 646 q 135 633 156 633 q 82 661 101 633 l 39 721 q 26 758 26 738 q 54 811 26 792 l 238 944 q 308 972 275 972 l 361 972 q 406 953 388 972 q 425 908 425 935 l 425 64 q 406 19 425 38 q 361 0 388 0 l 281 0 q 235 19 254 0 q 217 64 217 38 l 217 676 z "},"2":{"ha":721,"x_min":36,"x_max":665,"o":"m 665 131 l 665 64 q 647 19 665 38 q 601 0 628 0 l 101 0 q 56 19 75 0 q 38 64 38 38 l 38 133 q 71 199 38 168 q 306 444 244 367 q 410 679 410 578 q 321 775 410 775 q 235 721 269 775 q 174 678 207 678 q 138 686 158 678 l 71 714 q 36 768 36 731 q 42 794 36 783 q 156 934 78 885 q 346 983 235 983 q 556 907 481 983 q 632 721 632 831 q 307 194 632 444 l 601 194 q 647 176 628 194 q 665 131 665 157 z "},"3":{"ha":735,"x_min":14,"x_max":665,"o":"m 336 989 q 547 922 465 989 q 628 740 628 854 q 592 601 628 656 q 483 511 557 546 q 618 429 571 492 q 665 278 665 367 q 572 63 665 143 q 335 -17 478 -17 q 29 114 153 -17 q 14 157 14 129 q 32 206 14 188 l 79 253 q 129 275 101 275 q 176 257 154 275 q 321 192 260 192 q 412 219 381 192 q 443 286 443 246 q 278 393 443 393 q 234 410 251 393 q 217 453 217 428 l 217 547 q 233 585 217 569 q 272 601 250 601 q 368 626 331 601 q 406 699 406 651 q 384 757 406 733 q 317 781 363 781 q 190 738 261 781 q 150 726 171 726 q 96 756 117 726 l 63 803 q 50 843 50 819 q 74 893 50 876 q 336 989 197 989 z "},"4":{"ha":806,"x_min":0,"x_max":778,"o":"m 664 208 l 664 64 q 645 19 664 38 q 600 0 626 0 l 519 0 q 474 19 493 0 q 456 64 456 38 l 456 208 l 64 208 q 19 227 38 208 q 0 272 0 246 l 0 317 q 38 404 0 340 l 338 932 q 408 972 361 972 l 500 972 q 542 955 525 972 q 558 915 558 938 q 550 886 558 900 l 282 417 l 456 417 l 456 561 q 474 606 456 588 q 519 625 493 625 l 600 625 q 645 606 626 625 q 664 561 664 588 l 664 417 l 714 417 q 759 398 740 417 q 778 353 778 379 l 778 272 q 759 227 778 246 q 714 208 740 208 l 664 208 z "},"5":{"ha":708,"x_min":22,"x_max":653,"o":"m 172 231 q 304 192 243 192 q 395 226 360 192 q 431 314 431 260 q 383 414 431 375 q 251 453 336 453 q 175 449 213 453 q 168 448 172 449 q 161 447 164 447 q 113 465 131 447 q 96 513 96 482 q 97 519 96 514 q 97 526 97 525 l 143 908 q 168 954 147 936 q 215 972 189 972 l 568 972 q 613 953 594 972 q 632 908 632 935 l 632 828 q 613 783 632 801 q 568 764 594 764 l 335 764 l 315 640 l 349 640 q 566 554 479 640 q 653 324 653 468 q 553 74 653 165 q 299 -17 453 -17 q 46 67 153 -17 q 22 119 22 83 q 33 157 22 142 l 75 214 q 129 243 97 243 q 172 231 149 243 z "},"6":{"ha":783,"x_min":56,"x_max":742,"o":"m 303 553 q 474 606 360 606 q 662 522 582 606 q 742 310 742 439 q 643 70 742 157 q 414 -17 544 -17 q 155 88 254 -17 q 56 344 56 192 q 180 744 56 579 q 496 981 304 910 q 525 986 508 986 q 585 944 565 986 l 604 903 q 610 876 610 892 q 567 815 610 836 q 303 553 379 733 m 278 343 q 314 233 278 274 q 415 192 350 192 q 493 222 467 192 q 519 294 519 253 q 489 378 519 346 q 401 411 458 411 q 278 343 325 411 z "},"7":{"ha":708,"x_min":28,"x_max":667,"o":"m 290 0 l 210 0 q 161 20 181 0 q 142 67 142 40 q 147 93 142 82 l 418 764 l 92 764 q 47 783 65 764 q 28 828 28 801 l 28 908 q 47 953 28 935 q 92 972 65 972 l 603 972 q 648 953 629 972 q 667 908 667 935 l 667 864 q 650 788 667 831 l 354 43 q 290 0 338 0 z "},"8":{"ha":840,"x_min":69,"x_max":771,"o":"m 431 604 q 501 631 476 604 q 525 694 525 658 q 418 781 525 781 q 341 756 367 781 q 315 694 315 732 q 340 631 315 658 q 413 604 365 604 l 431 604 m 414 396 q 328 369 364 396 q 292 293 292 342 q 323 220 292 249 q 419 192 354 192 q 549 289 549 192 l 549 293 q 515 369 547 343 q 431 396 483 396 l 414 396 m 187 917 q 234 953 187 917 q 419 989 281 989 q 653 917 558 989 q 747 732 747 844 q 710 597 747 660 q 608 501 674 535 q 724 420 676 481 q 771 269 771 360 q 674 59 771 135 q 421 -17 576 -17 q 168 56 267 -17 q 69 251 69 129 q 111 406 69 343 q 218 500 153 469 q 93 732 93 571 q 187 917 93 844 z "},"9":{"ha":776,"x_min":28,"x_max":721,"o":"m 474 406 q 322 353 417 353 q 115 439 201 353 q 28 656 28 525 q 130 899 28 808 q 363 989 232 989 q 623 886 525 989 q 721 614 721 783 q 607 203 721 354 q 267 -10 493 53 q 250 -12 256 -12 q 211 1 229 -12 q 186 35 193 15 l 169 89 q 167 110 167 96 q 211 172 167 157 q 384 265 325 213 q 474 406 443 318 m 499 615 q 462 733 499 686 q 361 781 425 781 q 280 747 310 781 q 250 671 250 713 q 284 583 250 619 q 375 547 318 547 q 499 615 451 547 z "}," ":{"ha":278,"x_min":0,"x_max":0,"o":""},"!":{"ha":431,"x_min":79,"x_max":351,"o":"m 326 908 l 326 439 q 308 394 326 413 q 263 375 289 375 l 168 375 q 123 394 142 375 q 104 439 104 413 l 104 908 q 123 953 104 935 q 168 972 142 972 l 263 972 q 308 953 289 972 q 326 908 326 935 m 79 133 q 118 224 79 183 q 221 264 157 264 q 314 224 276 264 q 351 133 351 183 q 315 34 351 76 q 221 -8 278 -8 q 118 33 157 -8 q 79 133 79 75 z "},"\"":{"ha":625,"x_min":69,"x_max":556,"o":"m 556 906 l 556 678 q 536 631 556 650 q 489 611 517 611 l 414 611 q 367 631 386 611 q 347 678 347 650 l 347 906 q 367 953 347 933 q 414 972 386 972 l 489 972 q 536 953 517 972 q 556 906 556 933 m 278 906 l 278 678 q 258 631 278 650 q 211 611 239 611 l 136 611 q 89 631 108 611 q 69 678 69 650 l 69 906 q 89 953 69 933 q 136 972 108 972 l 211 972 q 258 953 239 972 q 278 906 278 933 z "},"#":{"ha":1033,"x_min":56,"x_max":978,"o":"m 679 229 l 611 44 q 550 1 596 1 q 528 6 539 1 l 490 18 q 447 79 447 33 q 451 101 447 92 l 499 229 l 332 229 l 263 43 q 200 1 247 1 q 179 4 186 1 l 140 18 q 97 78 97 32 q 101 99 97 89 l 150 229 l 119 229 q 74 248 93 229 q 56 293 56 267 l 56 346 q 74 391 56 372 q 119 410 93 410 l 217 410 l 274 563 l 119 563 q 74 581 93 563 q 56 626 56 600 l 56 679 q 74 724 56 706 q 119 743 93 743 l 340 743 l 410 929 q 471 971 426 971 q 493 967 483 971 l 532 953 q 575 892 575 938 q 571 871 575 881 l 524 743 l 688 743 l 757 929 q 819 971 772 971 q 840 968 833 971 l 879 954 q 922 894 922 940 q 918 874 922 883 l 869 743 l 914 743 q 959 724 940 743 q 978 679 978 706 l 978 626 q 959 581 978 600 q 914 563 940 563 l 803 563 l 746 410 l 914 410 q 959 391 940 410 q 978 346 978 372 l 978 293 q 959 248 978 267 q 914 229 940 229 l 679 229 m 399 410 l 565 410 l 621 563 l 456 563 l 399 410 z "},"$":{"ha":828,"x_min":92,"x_max":736,"o":"m 107 190 l 156 251 q 204 275 175 275 q 256 256 232 275 q 422 192 335 192 q 500 267 500 192 q 458 337 500 306 q 357 396 417 368 q 238 458 297 424 q 136 557 178 493 q 94 708 94 621 q 153 870 94 797 q 310 972 211 943 l 310 1033 q 328 1078 310 1060 q 374 1097 347 1097 l 454 1097 q 499 1078 481 1097 q 518 1033 518 1060 l 518 979 q 654 922 593 965 q 682 871 682 906 q 671 835 682 853 l 632 774 q 576 742 613 742 q 538 753 557 742 q 442 781 486 781 q 331 708 331 781 q 360 642 331 671 q 435 594 390 613 q 533 547 481 575 q 631 488 586 519 q 706 401 676 457 q 736 269 736 344 q 677 94 736 167 q 518 -4 618 21 l 518 -75 q 499 -120 518 -101 q 454 -139 481 -139 l 374 -139 q 328 -120 347 -139 q 310 -75 310 -101 l 310 -4 q 114 97 192 21 q 92 147 92 119 q 107 190 92 171 z "},"%":{"ha":1313,"x_min":42,"x_max":1271,"o":"m 1017 849 l 410 36 q 356 10 390 10 q 310 25 332 10 q 278 82 278 46 q 290 118 278 101 l 900 936 q 951 961 919 961 q 999 946 978 961 q 1031 888 1031 921 q 1017 849 1031 867 m 546 541 q 505 505 546 541 q 335 469 464 469 q 124 541 206 469 q 42 731 42 613 q 124 919 42 849 q 335 989 206 989 q 546 919 464 989 q 628 731 628 849 q 546 541 628 613 m 406 797 q 393 810 406 797 q 335 822 379 822 q 263 797 290 822 q 236 731 236 772 q 264 661 236 686 q 335 636 292 636 q 407 661 381 636 q 433 731 433 686 q 406 797 433 772 m 1189 55 q 1148 19 1189 55 q 978 -17 1107 -17 q 767 55 849 -17 q 685 244 685 126 q 767 433 685 363 q 978 503 849 503 q 1189 433 1107 503 q 1271 244 1271 363 q 1189 55 1271 126 m 1049 311 q 1036 324 1049 311 q 978 336 1022 336 q 906 311 933 336 q 879 244 879 286 q 907 175 879 200 q 978 150 935 150 q 1050 175 1024 150 q 1076 244 1076 200 q 1049 311 1076 286 z "},"&":{"ha":1050,"x_min":69,"x_max":960,"o":"m 960 565 l 960 561 q 829 224 940 364 l 928 96 q 940 60 940 79 q 924 18 940 36 q 881 0 907 0 l 793 0 q 714 38 744 0 l 682 76 q 410 -17 581 -17 q 163 62 256 -17 q 69 264 69 140 q 98 401 69 342 q 164 496 126 461 q 271 579 201 531 q 175 768 175 646 q 248 929 175 869 q 422 989 321 989 q 597 929 524 989 q 671 768 671 869 q 640 655 671 708 q 564 578 608 601 l 704 390 q 753 561 744 481 q 775 608 756 590 q 824 625 794 625 l 901 625 q 942 607 924 625 q 960 565 960 589 m 557 243 l 407 460 q 326 375 346 407 q 306 307 306 343 q 338 226 306 261 q 417 192 369 192 q 557 243 514 192 m 369 768 q 384 731 369 746 q 422 715 399 715 q 461 731 446 715 q 476 768 476 746 q 460 806 476 790 q 422 822 444 822 q 384 807 399 822 q 369 768 369 792 z "},"'":{"ha":347,"x_min":69,"x_max":278,"o":"m 278 906 l 278 678 q 258 631 278 650 q 211 611 239 611 l 136 611 q 89 631 108 611 q 69 678 69 650 l 69 906 q 89 953 69 933 q 136 972 108 972 l 211 972 q 258 953 239 972 q 278 906 278 933 z "},"(":{"ha":465,"x_min":56,"x_max":440,"o":"m 386 868 l 415 843 q 439 792 439 822 q 422 749 439 767 q 264 313 264 563 q 422 -124 264 68 q 440 -168 440 -143 q 415 -218 440 -197 l 385 -244 q 339 -260 368 -260 q 288 -240 307 -260 q 56 313 56 -12 q 289 865 56 628 q 339 885 308 885 q 386 868 367 885 z "},")":{"ha":465,"x_min":25,"x_max":410,"o":"m 50 843 l 79 868 q 126 885 97 885 q 176 865 157 885 q 410 313 410 628 q 178 -240 410 -12 q 126 -260 158 -260 q 81 -244 97 -260 l 50 -218 q 25 -168 25 -197 q 43 -124 25 -143 q 201 313 201 68 q 43 749 201 563 q 26 793 26 769 q 50 843 26 822 z "},"*":{"ha":717,"x_min":56,"x_max":661,"o":"m 430 815 q 415 801 430 815 q 358 786 400 786 q 288 815 317 786 q 258 886 258 844 q 288 958 258 928 q 358 988 317 988 q 430 958 400 988 q 460 886 460 928 q 430 815 460 844 m 427 353 q 412 338 427 353 q 356 324 397 324 q 285 353 314 324 q 256 424 256 382 q 285 495 256 465 q 356 525 314 525 q 427 495 397 525 q 457 424 457 465 q 427 353 457 382 m 631 703 q 616 688 631 703 q 560 674 601 674 q 489 703 518 674 q 460 774 460 732 q 489 845 460 815 q 560 875 518 875 q 631 845 601 875 q 661 774 661 815 q 631 703 661 732 m 631 472 q 616 458 631 472 q 560 443 601 443 q 489 472 518 443 q 460 543 460 501 q 489 615 460 585 q 560 644 518 644 q 631 615 601 644 q 661 543 661 585 q 631 472 661 501 m 227 472 q 212 458 227 472 q 156 443 197 443 q 85 472 114 443 q 56 543 56 501 q 85 615 56 585 q 156 644 114 644 q 227 615 197 644 q 257 543 257 585 q 227 472 257 501 m 227 703 q 212 688 227 703 q 156 674 197 674 q 85 703 114 674 q 56 774 56 732 q 85 845 56 815 q 156 875 114 875 q 227 845 197 875 q 257 774 257 815 q 227 703 257 732 z "},"+":{"ha":833,"x_min":88,"x_max":746,"o":"m 446 169 l 385 169 q 338 189 358 169 q 318 236 318 208 l 318 410 l 154 410 q 108 430 128 410 q 88 476 88 450 l 88 524 q 108 570 88 550 q 154 590 128 590 l 318 590 l 318 761 q 338 808 318 789 q 385 828 358 828 l 446 828 q 492 808 472 828 q 513 761 513 789 l 513 590 l 679 590 q 726 570 706 590 q 746 524 746 550 l 746 476 q 726 430 746 450 q 679 410 706 410 l 513 410 l 513 236 q 492 189 513 208 q 446 169 472 169 z "},",":{"ha":390,"x_min":56,"x_max":335,"o":"m 124 -83 q 164 -51 151 -67 q 188 4 188 -25 l 188 10 q 153 0 178 0 l 144 0 q 83 33 110 0 q 56 113 56 65 q 90 206 56 171 q 190 242 125 242 q 296 192 257 242 q 335 67 335 143 q 301 -81 335 -24 q 179 -183 268 -139 q 151 -189 168 -189 q 101 -161 117 -189 q 94 -135 94 -149 q 124 -83 94 -103 z "},"-":{"ha":506,"x_min":69,"x_max":436,"o":"m 436 413 l 436 351 q 417 305 436 325 q 369 285 397 285 l 136 285 q 89 305 108 285 q 69 351 69 325 l 69 413 q 89 459 69 439 q 136 479 108 479 l 369 479 q 417 459 397 479 q 436 413 436 439 z "},".":{"ha":383,"x_min":56,"x_max":328,"o":"m 56 133 q 94 224 56 183 q 197 264 133 264 q 290 224 253 264 q 328 133 328 183 q 291 34 328 76 q 197 -8 254 -8 q 94 33 133 -8 q 56 133 56 75 z "},"/":{"ha":533,"x_min":-21,"x_max":554,"o":"m 550 867 l 144 -226 q 82 -269 129 -269 q 58 -265 71 -269 l 22 -253 q -21 -190 -21 -237 q -17 -167 -21 -179 l 390 926 q 453 969 406 969 q 476 965 464 969 l 511 953 q 554 890 554 938 q 550 867 554 879 z "},":":{"ha":439,"x_min":83,"x_max":356,"o":"m 83 511 q 122 601 83 561 q 225 642 161 642 q 318 601 281 642 q 356 511 356 561 q 319 412 356 454 q 225 369 282 369 q 122 411 161 369 q 83 511 83 453 m 83 133 q 122 224 83 183 q 225 264 161 264 q 318 224 281 264 q 356 133 356 183 q 319 34 356 76 q 225 -8 282 -8 q 122 33 161 -8 q 83 133 83 75 z "},";":{"ha":449,"x_min":83,"x_max":365,"o":"m 83 511 q 122 601 83 561 q 225 642 161 642 q 318 601 281 642 q 356 511 356 561 q 319 412 356 454 q 225 369 282 369 q 122 411 161 369 q 83 511 83 453 m 154 -83 q 194 -51 182 -67 q 218 4 218 -25 l 218 10 q 183 0 208 0 l 175 0 q 113 33 140 0 q 86 113 86 65 q 121 206 86 171 q 221 242 156 242 q 326 192 288 242 q 365 67 365 143 q 332 -81 365 -24 q 210 -183 299 -139 q 182 -189 199 -189 q 132 -161 147 -189 q 125 -135 125 -149 q 154 -83 125 -103 z "},"<":{"ha":833,"x_min":56,"x_max":736,"o":"m 736 256 l 736 176 q 719 134 736 151 q 676 117 701 117 q 647 125 661 117 l 94 436 q 56 503 56 458 q 94 569 56 547 l 647 878 q 676 886 661 886 q 719 869 701 886 q 736 826 736 851 l 736 747 q 696 683 736 701 l 342 503 l 697 321 q 736 256 736 300 z "},"=":{"ha":833,"x_min":88,"x_max":746,"o":"m 746 663 l 746 615 q 726 569 746 589 q 679 549 706 549 l 154 549 q 108 569 128 549 q 88 615 88 589 l 88 663 q 108 709 88 689 q 154 729 128 729 l 679 729 q 726 709 706 729 q 746 663 746 689 m 746 385 l 746 338 q 726 291 746 311 q 679 271 706 271 l 154 271 q 108 291 128 271 q 88 338 88 311 l 88 385 q 108 431 88 411 q 154 451 128 451 l 679 451 q 726 431 706 451 q 746 385 746 411 z "},">":{"ha":833,"x_min":97,"x_max":778,"o":"m 97 176 l 97 256 q 136 321 97 300 l 492 503 l 138 683 q 97 747 97 701 l 97 826 q 115 869 97 851 q 157 886 132 886 q 186 878 172 886 l 739 569 q 778 503 778 547 q 739 436 778 458 l 186 125 q 157 117 172 117 q 115 134 132 117 q 97 176 97 151 z "},"?":{"ha":664,"x_min":47,"x_max":636,"o":"m 333 322 l 254 322 q 219 338 232 322 q 207 379 207 354 q 208 393 207 389 q 240 478 215 442 q 292 537 264 515 q 348 579 321 558 q 394 628 375 600 q 413 694 413 656 q 385 754 413 728 q 321 781 358 781 q 204 742 260 781 q 154 724 178 724 q 110 742 129 724 l 69 779 q 47 828 47 797 q 65 872 47 853 q 186 958 114 928 q 332 989 258 989 q 553 917 471 989 q 636 740 636 846 q 617 633 636 678 q 569 558 599 588 q 510 505 540 529 q 449 445 479 481 q 403 365 418 410 q 379 331 394 339 q 333 322 364 322 m 172 133 q 211 224 172 183 q 314 264 250 264 q 407 224 369 264 q 444 133 444 183 q 408 34 444 76 q 314 -8 371 -8 q 211 33 250 -8 q 172 133 172 75 z "},"@":{"ha":1369,"x_min":69,"x_max":1300,"o":"m 69 313 q 250 750 69 572 q 699 928 431 928 q 1129 778 958 928 q 1300 383 1300 628 q 1219 122 1300 233 q 999 0 1139 11 l 821 0 q 799 9 808 0 q 790 32 790 18 q 642 -17 728 -17 q 419 74 501 -17 q 336 313 336 164 q 438 547 336 451 q 701 642 540 642 q 956 588 835 642 q 985 558 972 579 q 999 519 999 538 l 999 194 l 1025 194 q 1081 244 1057 194 q 1106 383 1106 293 q 997 631 1106 529 q 699 733 888 733 q 390 622 515 733 q 264 313 264 511 q 392 10 264 128 q 699 -108 519 -108 q 785 -103 747 -108 q 790 -102 786 -103 q 797 -101 794 -101 q 863 -150 854 -101 l 874 -215 q 874 -220 874 -217 q 875 -225 875 -224 q 860 -267 875 -249 q 824 -290 846 -286 q 699 -303 756 -303 q 248 -130 426 -303 q 69 313 69 43 m 790 224 l 790 425 q 700 447 743 447 q 592 406 626 447 q 558 303 558 365 q 592 210 558 243 q 679 178 626 178 q 790 224 742 178 z "},"A":{"ha":1001,"x_min":28,"x_max":974,"o":"m 686 204 l 301 204 l 239 46 q 172 0 221 0 l 88 0 q 45 18 63 0 q 28 60 28 36 q 32 83 28 72 l 382 926 q 450 972 403 972 l 551 972 q 619 926 599 972 l 969 83 q 974 60 974 72 q 956 18 974 36 q 914 0 939 0 l 815 0 q 749 46 767 0 l 686 204 m 494 688 l 385 413 l 603 413 l 494 688 z "},"B":{"ha":857,"x_min":125,"x_max":774,"o":"m 746 736 q 635 518 746 593 q 734 438 694 494 q 774 294 774 382 q 672 71 774 147 q 404 -6 569 -6 q 189 -1 285 -6 q 144 20 164 0 q 125 65 125 40 l 125 906 q 144 951 125 932 q 189 972 163 971 q 419 978 319 978 q 665 911 585 978 q 746 736 746 844 m 347 393 l 347 211 q 422 203 378 203 q 551 306 551 203 q 433 393 551 393 l 347 393 m 347 588 l 421 588 q 524 682 524 588 q 492 747 524 724 q 417 769 461 769 q 347 764 397 769 l 347 588 z "},"C":{"ha":907,"x_min":56,"x_max":878,"o":"m 703 756 q 564 781 639 781 q 369 703 446 781 q 292 486 292 625 q 374 274 292 357 q 586 192 456 192 q 738 229 664 192 q 778 239 757 239 q 835 206 815 239 l 868 153 q 878 118 878 136 q 847 60 878 82 q 565 -17 736 -17 q 197 122 339 -17 q 56 486 56 260 q 189 847 56 706 q 564 989 322 989 q 800 935 692 989 q 833 881 833 919 q 826 850 833 867 l 796 786 q 736 749 779 749 q 703 756 721 749 z "},"D":{"ha":1033,"x_min":125,"x_max":978,"o":"m 189 972 q 273 974 217 972 q 369 976 329 975 q 432 976 410 976 q 842 840 707 976 q 978 494 978 704 q 833 138 978 279 q 421 -3 688 -3 q 189 0 383 -3 q 144 19 163 0 q 125 65 125 39 l 125 907 q 144 953 125 933 q 189 972 163 972 m 347 764 l 347 208 q 428 206 376 206 q 658 281 574 206 q 742 494 742 357 q 656 697 742 625 q 429 768 569 768 q 347 764 375 768 z "},"E":{"ha":799,"x_min":125,"x_max":715,"o":"m 715 144 l 715 64 q 697 19 715 38 q 651 0 678 0 l 189 0 q 144 19 163 0 q 125 64 125 38 l 125 908 q 144 953 125 935 q 189 972 163 972 l 638 972 q 683 953 664 972 q 701 908 701 935 l 701 828 q 683 783 701 801 q 638 764 664 764 l 347 764 l 347 593 l 596 593 q 641 574 622 593 q 660 529 660 556 l 660 449 q 641 403 660 422 q 596 385 622 385 l 347 385 l 347 208 l 651 208 q 697 190 678 208 q 715 144 715 171 z "},"F":{"ha":743,"x_min":125,"x_max":688,"o":"m 347 350 l 347 64 q 328 19 347 38 q 283 0 310 0 l 189 0 q 144 19 163 0 q 125 64 125 38 l 125 908 q 144 953 125 935 q 189 972 163 972 l 624 972 q 669 953 650 972 q 688 908 688 935 l 688 828 q 669 783 688 801 q 624 764 650 764 l 347 764 l 347 558 l 582 558 q 627 540 608 558 q 646 494 646 521 l 646 414 q 627 369 646 388 q 582 350 608 350 l 347 350 z "},"G":{"ha":1010,"x_min":56,"x_max":940,"o":"m 292 486 q 370 272 292 351 q 579 192 449 192 q 667 208 621 192 q 732 240 714 224 l 732 346 l 589 346 q 544 365 563 346 q 525 410 525 383 l 525 490 q 544 535 525 517 q 589 554 563 554 l 876 554 q 922 535 903 554 q 940 490 940 517 l 940 163 q 903 89 940 115 q 748 12 838 40 q 576 -17 658 -17 q 193 119 331 -17 q 56 486 56 256 q 190 845 56 701 q 549 989 325 989 q 814 932 710 989 q 853 872 853 910 q 844 842 853 856 l 807 775 q 749 739 786 739 q 715 747 732 739 q 575 781 646 781 q 370 706 449 781 q 292 486 292 631 z "},"H":{"ha":1049,"x_min":125,"x_max":924,"o":"m 924 908 l 924 64 q 905 19 924 38 q 860 0 886 0 l 765 0 q 720 19 739 0 q 701 64 701 38 l 701 392 l 347 392 l 347 64 q 328 19 347 38 q 283 0 310 0 l 189 0 q 144 19 163 0 q 125 64 125 38 l 125 908 q 144 953 125 935 q 189 972 163 972 l 283 972 q 328 953 310 972 q 347 908 347 935 l 347 600 l 701 600 l 701 908 q 720 953 701 935 q 765 972 739 972 l 860 972 q 905 953 886 972 q 924 908 924 935 z "},"I":{"ha":500,"x_min":139,"x_max":361,"o":"m 361 908 l 361 64 q 342 19 361 38 q 297 0 324 0 l 203 0 q 158 19 176 0 q 139 64 139 38 l 139 908 q 158 953 139 935 q 203 972 176 972 l 297 972 q 342 953 324 972 q 361 908 361 935 z "},"J":{"ha":565,"x_min":-4,"x_max":440,"o":"m 218 278 l 218 908 q 237 953 218 935 q 282 972 256 972 l 376 972 q 422 953 403 972 q 440 908 440 935 l 440 238 q 374 49 440 114 q 183 -17 307 -17 q 32 18 101 -17 q -4 71 -4 36 q 4 104 -4 86 l 29 161 q 83 200 47 200 q 115 196 99 200 q 146 192 131 192 l 153 192 q 201 214 183 192 q 218 278 218 236 z "},"K":{"ha":956,"x_min":125,"x_max":899,"o":"m 347 463 l 347 64 q 328 19 347 38 q 283 0 310 0 l 189 0 q 144 19 163 0 q 125 64 125 38 l 125 908 q 144 953 125 935 q 189 972 163 972 l 283 972 q 328 953 310 972 q 347 908 347 935 l 347 549 l 636 933 q 714 972 665 972 l 806 972 q 849 954 832 972 q 867 913 867 936 q 853 874 867 892 l 567 524 l 885 101 q 899 63 899 83 q 881 19 899 38 q 835 0 863 0 l 728 0 q 650 40 679 0 l 347 463 z "},"L":{"ha":757,"x_min":125,"x_max":743,"o":"m 743 144 l 743 64 q 724 19 743 38 q 679 0 706 0 l 189 0 q 144 19 163 0 q 125 64 125 38 l 125 908 q 144 953 125 935 q 189 972 163 972 l 283 972 q 328 953 310 972 q 347 908 347 935 l 347 208 l 679 208 q 724 190 706 208 q 743 144 743 171 z "},"M":{"ha":1267,"x_min":125,"x_max":1142,"o":"m 347 615 l 347 64 q 328 19 347 38 q 283 0 310 0 l 189 0 q 144 19 163 0 q 125 64 125 38 l 125 908 q 144 953 125 935 q 189 972 163 972 l 306 972 q 378 933 349 972 l 649 563 l 904 932 q 974 972 931 972 l 1078 972 q 1123 953 1104 972 q 1142 908 1142 935 l 1142 64 q 1123 19 1142 38 q 1078 0 1104 0 l 983 0 q 938 19 957 0 q 919 64 919 38 l 919 619 l 718 336 q 633 288 682 288 q 549 336 585 288 l 347 615 z "},"N":{"ha":1097,"x_min":125,"x_max":972,"o":"m 828 972 l 908 972 q 953 953 935 972 q 972 908 972 935 l 972 64 q 953 19 972 38 q 908 0 935 0 l 843 0 q 764 39 793 0 l 333 583 l 333 64 q 315 19 333 38 q 269 0 296 0 l 189 0 q 144 19 163 0 q 125 64 125 38 l 125 908 q 144 953 125 935 q 189 972 163 972 l 254 972 q 333 933 304 972 l 764 386 l 764 908 q 783 953 764 935 q 828 972 801 972 z "},"O":{"ha":1144,"x_min":56,"x_max":1089,"o":"m 56 486 q 199 845 56 701 q 572 989 343 989 q 944 851 799 989 q 1089 486 1089 714 q 942 125 1089 267 q 572 -17 796 -17 q 201 121 346 -17 q 56 486 56 258 m 292 486 q 374 276 292 361 q 572 192 456 192 q 779 274 706 192 q 853 486 853 357 q 772 699 853 617 q 572 781 692 781 q 371 699 450 781 q 292 486 292 618 z "},"P":{"ha":871,"x_min":125,"x_max":815,"o":"m 422 975 q 722 884 629 975 q 815 653 815 793 q 717 422 815 517 q 456 326 618 326 q 347 331 382 326 l 347 64 q 328 19 347 38 q 283 0 310 0 l 189 0 q 144 19 163 0 q 125 64 125 38 l 125 907 q 144 953 125 933 q 189 972 163 972 q 422 975 336 975 m 347 764 l 347 542 q 449 535 400 535 q 540 563 501 535 q 579 654 579 590 q 444 767 579 767 q 347 764 439 767 z "},"Q":{"ha":1144,"x_min":56,"x_max":1089,"o":"m 865 -24 l 813 35 q 572 -17 703 -17 q 201 121 346 -17 q 56 486 56 258 q 199 845 56 701 q 572 989 343 989 q 944 851 799 989 q 1089 486 1089 714 q 968 153 1089 289 l 1008 108 q 1025 64 1025 90 q 1004 17 1025 36 l 956 -28 q 913 -44 936 -44 q 865 -24 883 -44 m 778 375 l 817 329 q 853 486 853 397 q 772 699 853 617 q 572 781 692 781 q 371 699 450 781 q 292 486 292 618 q 374 276 292 361 q 572 192 456 192 q 667 204 622 192 l 632 244 q 617 288 617 264 q 639 336 617 318 l 688 381 q 731 397 706 397 q 778 375 758 397 z "},"R":{"ha":929,"x_min":125,"x_max":878,"o":"m 638 40 l 429 340 l 347 340 l 347 64 q 328 19 347 38 q 283 0 310 0 l 189 0 q 144 19 163 0 q 125 64 125 38 l 125 908 q 144 953 125 935 q 189 972 163 972 q 456 975 378 975 q 730 892 644 975 q 815 664 815 808 q 651 383 815 465 l 865 94 q 878 60 878 78 q 860 18 878 36 q 817 0 843 0 l 714 0 q 638 40 664 0 m 347 549 l 428 549 q 579 661 579 549 q 444 767 579 767 q 347 764 439 767 l 347 549 z "},"S":{"ha":774,"x_min":63,"x_max":711,"o":"m 74 183 l 114 242 q 165 271 132 271 q 208 257 189 271 q 383 192 307 192 q 451 212 426 192 q 475 267 475 232 q 433 337 475 306 q 332 396 392 368 q 213 458 272 424 q 111 557 153 493 q 69 708 69 621 q 156 907 69 825 q 383 989 242 989 q 624 925 524 989 q 650 871 650 908 q 642 838 650 853 l 606 776 q 550 743 585 743 q 513 754 532 743 q 403 781 460 781 q 331 761 357 781 q 306 708 306 742 q 335 642 306 671 q 410 594 365 613 q 508 547 456 575 q 606 488 561 519 q 681 401 651 457 q 711 269 711 344 q 616 64 711 144 q 378 -17 521 -17 q 83 94 226 -17 q 63 143 63 111 q 74 183 63 168 z "},"T":{"ha":833,"x_min":14,"x_max":819,"o":"m 464 0 l 369 0 q 324 19 343 0 q 306 64 306 38 l 306 764 l 78 764 q 33 783 51 764 q 14 828 14 801 l 14 908 q 33 953 14 935 q 78 972 51 972 l 756 972 q 801 953 782 972 q 819 908 819 935 l 819 828 q 801 783 819 801 q 756 764 782 764 l 528 764 l 528 64 q 509 19 528 38 q 464 0 490 0 z "},"U":{"ha":1043,"x_min":111,"x_max":932,"o":"m 710 446 l 710 908 q 728 953 710 935 q 774 972 747 972 l 868 972 q 913 953 894 972 q 932 908 932 935 l 932 401 q 819 88 932 192 q 535 -17 706 -17 q 226 93 342 -17 q 111 411 111 203 l 111 908 q 130 953 111 935 q 175 972 149 972 l 269 972 q 315 953 296 972 q 333 908 333 935 l 333 458 q 535 192 333 192 q 670 256 631 192 q 710 446 710 321 z "},"V":{"ha":908,"x_min":14,"x_max":894,"o":"m 240 926 l 467 331 l 683 926 q 708 959 690 946 q 749 972 726 972 l 833 972 q 876 954 858 972 q 894 911 894 936 q 890 888 894 900 l 563 46 q 496 0 544 0 l 422 0 q 356 46 374 0 l 18 888 q 14 910 14 897 q 32 953 14 935 q 75 972 50 972 l 174 972 q 240 926 222 972 z "},"W":{"ha":1385,"x_min":21,"x_max":1364,"o":"m 88 972 l 185 972 q 235 955 213 972 q 265 910 258 938 l 413 358 l 576 911 q 608 956 585 939 q 658 972 631 972 l 754 972 q 806 955 782 972 q 838 911 829 938 l 1006 358 l 1156 910 q 1185 955 1163 938 q 1236 972 1208 972 l 1296 972 q 1344 951 1324 972 q 1364 903 1364 931 q 1361 885 1364 896 l 1131 63 q 1099 17 1122 35 q 1049 0 1076 0 l 949 0 q 885 47 901 0 l 697 625 l 513 47 q 449 0 496 0 l 349 0 q 298 17 321 0 q 267 61 275 33 l 24 885 q 21 906 21 892 q 40 953 21 933 q 88 972 60 972 z "},"X":{"ha":925,"x_min":50,"x_max":875,"o":"m 297 931 l 468 660 l 632 931 q 706 972 657 972 l 796 972 q 843 953 824 972 q 863 907 863 933 q 851 871 863 889 l 607 496 l 864 101 q 875 65 875 83 q 856 19 875 39 q 808 0 836 0 l 718 0 q 643 42 671 0 l 461 326 l 282 42 q 207 0 254 0 l 117 0 q 69 19 89 0 q 50 65 50 39 q 61 101 50 83 l 318 496 l 76 869 q 65 906 65 888 q 85 952 65 932 q 132 972 104 972 l 222 972 q 297 931 269 972 z "},"Y":{"ha":900,"x_min":49,"x_max":851,"o":"m 274 929 l 458 604 l 640 929 q 713 972 663 972 l 782 972 q 831 951 811 972 q 851 903 851 931 q 842 868 851 883 l 560 396 l 560 64 q 541 19 560 38 q 496 0 522 0 l 401 0 q 356 19 375 0 q 338 64 338 38 l 338 396 l 58 868 q 49 903 49 883 q 69 951 49 931 q 118 972 89 972 l 201 972 q 274 929 251 972 z "},"Z":{"ha":903,"x_min":56,"x_max":847,"o":"m 56 64 l 56 107 q 94 194 56 144 l 529 764 l 147 764 q 102 783 121 764 q 83 828 83 801 l 83 908 q 102 953 83 935 q 147 972 121 972 l 769 972 q 815 953 796 972 q 833 908 833 935 l 833 865 q 796 778 833 828 l 360 208 l 783 208 q 828 190 810 208 q 847 144 847 171 l 847 64 q 828 19 847 38 q 783 0 810 0 l 119 0 q 74 19 93 0 q 56 64 56 38 z "},"[":{"ha":528,"x_min":83,"x_max":500,"o":"m 500 -150 l 500 -211 q 481 -258 500 -239 q 433 -278 461 -278 l 150 -278 q 103 -258 122 -278 q 83 -211 83 -239 l 83 836 q 103 883 83 864 q 150 903 122 903 l 433 903 q 481 883 461 903 q 500 836 500 864 l 500 775 q 481 728 500 747 q 433 708 461 708 l 292 708 l 292 -83 l 433 -83 q 481 -103 461 -83 q 500 -150 500 -122 z "},"\\":{"ha":533,"x_min":-21,"x_max":554,"o":"m 389 -226 l -17 867 q -21 890 -21 879 q 22 953 -21 938 l 57 965 q 81 969 69 969 q 143 926 128 969 l 550 -167 q 554 -190 554 -179 q 511 -253 554 -237 l 475 -265 q 451 -269 463 -269 q 389 -226 404 -269 z "},"]":{"ha":528,"x_min":28,"x_max":444,"o":"m 28 775 l 28 836 q 47 883 28 864 q 94 903 67 903 l 378 903 q 425 883 406 903 q 444 836 444 864 l 444 -211 q 425 -258 444 -239 q 378 -278 406 -278 l 94 -278 q 47 -258 67 -278 q 28 -211 28 -239 l 28 -150 q 47 -103 28 -122 q 94 -83 67 -83 l 236 -83 l 236 708 l 94 708 q 47 728 67 708 q 28 775 28 747 z "},"^":{"ha":725,"x_min":86,"x_max":639,"o":"m 443 667 l 363 778 l 282 667 q 201 625 251 625 l 147 625 q 103 643 121 625 q 86 686 86 661 q 99 721 86 704 l 261 942 q 343 983 292 983 l 385 983 q 467 942 435 983 l 626 722 q 639 686 639 706 q 622 643 639 661 q 578 625 604 625 l 524 625 q 443 667 474 625 z "},"_":{"ha":521,"x_min":0,"x_max":521,"o":"m 521 -136 l 521 -211 q 501 -258 521 -239 q 454 -278 481 -278 l 67 -278 q 19 -258 39 -278 q 0 -211 0 -239 l 0 -136 q 19 -89 0 -108 q 67 -69 39 -69 l 454 -69 q 501 -89 481 -69 q 521 -136 521 -108 z "},"`":{"ha":475,"x_min":115,"x_max":365,"o":"m 286 960 l 354 849 q 365 808 365 829 q 331 743 365 769 q 279 726 308 726 q 218 753 244 726 l 133 844 q 115 890 115 865 q 142 943 115 924 l 190 978 q 231 992 206 992 q 286 960 269 992 z "},"a":{"ha":646,"x_min":42,"x_max":583,"o":"m 42 189 q 105 343 42 290 q 267 396 168 396 q 389 361 344 396 l 389 374 q 300 468 389 468 q 197 453 250 468 q 178 450 183 450 q 124 486 136 450 l 106 532 q 101 553 101 542 q 135 603 101 588 q 324 642 225 642 q 523 575 463 642 q 583 376 583 508 l 583 53 q 568 15 583 31 q 531 0 553 0 l 456 0 q 418 16 433 0 q 403 56 403 32 q 239 -8 356 -8 q 97 44 151 -8 q 42 189 42 96 m 389 197 l 389 236 q 310 257 360 257 q 267 244 283 257 q 250 210 250 232 q 267 177 250 189 q 310 165 283 165 q 389 197 365 165 z "},"b":{"ha":760,"x_min":76,"x_max":718,"o":"m 285 608 q 422 642 349 642 q 638 553 558 642 q 718 322 718 464 q 621 75 718 167 q 353 -17 524 -17 q 115 32 235 -17 q 88 56 100 39 q 76 89 76 72 l 76 919 q 92 957 76 942 q 129 972 107 972 l 232 972 q 269 957 254 972 q 285 919 285 942 l 285 608 m 285 407 l 285 196 q 363 178 318 178 q 458 213 421 178 q 496 310 496 247 q 459 413 496 378 q 372 447 422 447 q 285 407 325 447 z "},"c":{"ha":676,"x_min":42,"x_max":635,"o":"m 494 422 q 399 447 444 447 q 305 411 346 447 q 264 313 264 375 q 306 215 264 253 q 401 178 349 178 q 499 208 450 178 q 538 221 517 221 q 581 199 564 221 l 624 142 q 635 108 635 126 q 613 64 635 81 q 389 -17 514 -17 q 136 74 231 -17 q 42 313 42 164 q 134 547 42 451 q 372 642 226 642 q 590 583 500 642 q 621 535 621 564 q 613 508 621 521 l 572 442 q 525 414 556 414 q 494 422 508 414 z "},"d":{"ha":774,"x_min":42,"x_max":697,"o":"m 697 919 l 697 53 q 682 15 697 31 q 644 0 667 0 l 539 0 q 503 15 518 0 q 489 51 489 29 q 331 -11 424 -11 q 120 75 199 -11 q 42 304 42 161 q 138 547 42 453 q 386 642 233 642 q 489 622 447 642 l 489 919 q 504 957 489 942 q 542 972 519 972 l 644 972 q 682 957 667 972 q 697 919 697 942 m 489 229 l 489 421 q 396 447 443 447 q 303 412 342 447 q 264 311 264 376 q 297 217 264 251 q 374 183 331 183 q 489 229 439 183 z "},"e":{"ha":711,"x_min":42,"x_max":683,"o":"m 632 243 l 257 243 q 403 157 285 157 q 515 175 467 157 q 546 181 531 181 q 594 151 581 181 l 617 107 q 622 82 622 96 q 597 36 622 51 q 381 -17 503 -17 q 134 74 226 -17 q 42 313 42 164 q 135 547 42 453 q 381 642 229 642 q 594 559 506 642 q 683 347 683 476 q 679 285 683 310 q 663 256 678 269 q 632 243 647 243 m 475 382 q 448 442 475 417 q 374 468 421 468 q 250 382 281 468 l 475 382 z "},"f":{"ha":449,"x_min":76,"x_max":490,"o":"m 285 431 l 285 53 q 269 15 285 31 q 232 0 254 0 l 129 0 q 92 15 107 0 q 76 53 76 31 l 76 726 q 137 922 76 854 q 304 989 197 989 q 460 953 388 989 q 490 907 490 938 q 483 878 490 892 l 450 814 q 408 785 435 785 q 388 788 401 785 q 342 794 358 794 q 285 714 285 794 l 285 625 l 364 625 q 401 610 386 625 q 417 572 417 594 l 417 483 q 401 446 417 461 q 364 431 386 431 l 285 431 z "},"g":{"ha":708,"x_min":0,"x_max":708,"o":"m 351 151 q 356 128 351 140 q 578 71 492 124 q 664 -81 664 18 q 571 -236 664 -183 q 332 -289 478 -289 q 92 -237 185 -289 q 0 -81 0 -186 q 56 47 0 -3 q 207 117 111 97 q 199 151 199 133 q 208 188 199 172 q 95 274 136 217 q 54 401 54 332 q 130 571 54 500 q 331 642 206 642 q 490 600 422 642 l 632 629 q 638 630 635 629 q 643 631 642 631 q 677 618 663 631 q 696 588 692 606 l 707 532 q 708 526 707 529 q 708 521 708 522 q 696 487 708 501 q 665 468 683 472 l 600 454 q 607 401 607 424 q 537 241 607 308 q 353 167 467 174 q 351 151 351 161 m 194 -81 q 332 -122 194 -122 q 469 -81 469 -122 q 332 -37 469 -37 q 194 -81 194 -37 m 271 453 q 260 443 271 453 q 249 401 249 432 q 270 352 249 371 q 331 333 292 333 q 390 351 367 333 q 413 401 413 369 q 392 454 413 433 q 331 475 371 475 q 271 453 293 475 z "},"h":{"ha":756,"x_min":76,"x_max":693,"o":"m 285 401 l 285 53 q 269 15 285 31 q 232 0 254 0 l 129 0 q 92 15 107 0 q 76 53 76 31 l 76 919 q 92 957 76 942 q 129 972 107 972 l 232 972 q 269 957 254 972 q 285 919 285 942 l 285 582 q 439 636 346 636 q 624 571 556 636 q 693 367 693 506 l 693 53 q 678 15 693 31 q 640 0 663 0 l 538 0 q 500 15 515 0 q 485 53 485 31 l 485 340 q 457 414 485 386 q 385 442 429 442 q 285 401 325 442 z "},"i":{"ha":397,"x_min":76,"x_max":321,"o":"m 303 572 l 303 53 q 288 15 303 31 q 250 0 272 0 l 147 0 q 110 15 125 0 q 94 53 94 31 l 94 572 q 110 610 94 594 q 147 625 125 625 l 250 625 q 288 610 272 625 q 303 572 303 594 m 76 840 q 113 926 76 894 q 203 958 150 958 q 285 926 250 958 q 321 840 321 893 q 285 748 321 782 q 203 714 250 714 q 113 747 149 714 q 76 840 76 781 z "},"j":{"ha":394,"x_min":-42,"x_max":338,"o":"m 110 -26 l 110 572 q 125 610 110 594 q 163 625 140 625 l 265 625 q 303 610 288 625 q 318 572 318 594 l 318 -46 q 122 -289 318 -289 q -7 -267 54 -289 q -42 -218 -42 -256 q -39 -200 -42 -214 l -15 -126 q 29 -92 -4 -92 q 46 -93 40 -92 q 71 -96 60 -96 q 110 -26 110 -96 m 93 840 q 130 926 93 894 q 219 958 167 958 q 302 926 267 958 q 338 840 338 893 q 302 748 338 782 q 219 714 267 714 q 129 747 165 714 q 93 840 93 781 z "},"k":{"ha":742,"x_min":76,"x_max":696,"o":"m 285 299 l 285 53 q 269 15 285 31 q 232 0 254 0 l 129 0 q 92 15 107 0 q 76 53 76 31 l 76 919 q 92 957 76 942 q 129 972 107 972 l 232 972 q 269 957 254 972 q 285 919 285 942 l 285 354 l 433 589 q 497 625 456 625 l 610 625 q 649 608 633 625 q 665 571 665 592 q 654 539 665 554 l 514 343 l 686 88 q 696 56 696 74 q 680 17 696 33 q 639 0 664 0 l 521 0 q 456 36 478 0 l 285 299 z "},"l":{"ha":429,"x_min":76,"x_max":426,"o":"m 76 179 l 76 919 q 92 957 76 942 q 129 972 107 972 l 232 972 q 269 957 254 972 q 285 919 285 942 l 285 258 q 292 196 285 214 q 324 178 300 178 q 339 178 326 178 q 361 179 351 179 q 404 146 393 179 l 424 85 q 426 64 426 76 q 389 14 426 28 q 240 -17 311 -17 q 76 179 76 -17 z "},"m":{"ha":1108,"x_min":76,"x_max":1046,"o":"m 285 569 q 469 636 356 636 q 583 610 538 636 q 647 544 629 585 q 849 636 722 636 q 1046 408 1046 636 l 1046 53 q 1031 15 1046 31 q 993 0 1015 0 l 890 0 q 853 15 868 0 q 838 53 838 31 l 838 353 q 760 442 838 442 q 702 426 728 442 q 665 388 676 411 l 665 53 q 650 15 665 31 q 613 0 635 0 l 510 0 q 472 15 488 0 q 457 53 457 31 l 457 354 q 383 442 457 442 q 285 392 319 442 l 285 53 q 269 15 285 31 q 232 0 254 0 l 129 0 q 92 15 107 0 q 76 53 76 31 l 76 572 q 92 610 76 594 q 129 625 107 625 l 232 625 q 269 609 254 625 q 285 569 285 593 z "},"n":{"ha":756,"x_min":76,"x_max":693,"o":"m 285 399 l 285 53 q 269 15 285 31 q 232 0 254 0 l 129 0 q 92 15 107 0 q 76 53 76 31 l 76 572 q 92 610 76 594 q 129 625 107 625 l 238 625 q 271 611 257 625 q 285 578 285 597 q 439 636 349 636 q 693 372 693 636 l 693 53 q 678 15 693 31 q 640 0 663 0 l 538 0 q 500 15 515 0 q 485 53 485 31 l 485 336 q 457 415 485 389 q 382 442 429 442 q 285 399 328 442 z "},"o":{"ha":778,"x_min":42,"x_max":736,"o":"m 137 76 q 89 123 137 76 q 42 313 42 169 q 137 549 42 456 q 389 642 232 642 q 641 549 546 642 q 736 313 736 456 q 641 76 736 169 q 389 -17 546 -17 q 137 76 232 -17 m 264 313 q 299 216 264 254 q 389 178 335 178 q 478 214 443 178 q 514 313 514 250 q 478 410 514 372 q 389 447 442 447 q 300 410 336 447 q 264 313 264 374 z "},"p":{"ha":779,"x_min":76,"x_max":738,"o":"m 285 3 l 285 -225 q 269 -262 285 -247 q 232 -278 254 -278 l 129 -278 q 92 -262 107 -278 q 76 -225 76 -247 l 76 572 q 92 610 76 594 q 129 625 107 625 l 239 625 q 272 611 258 625 q 285 579 285 597 q 458 642 350 642 q 660 552 583 642 q 738 322 738 463 q 644 80 738 176 q 401 -17 551 -17 q 285 3 331 -17 m 285 392 l 285 201 q 382 178 325 178 q 481 217 447 178 q 515 318 515 257 q 483 411 515 375 q 393 447 450 447 q 285 392 335 447 z "},"q":{"ha":781,"x_min":42,"x_max":704,"o":"m 704 525 l 704 -225 q 689 -262 704 -247 q 651 -278 674 -278 l 549 -278 q 511 -262 526 -278 q 496 -225 496 -247 l 496 13 q 371 -17 431 -17 q 131 74 219 -17 q 42 313 42 164 q 144 547 42 451 q 407 642 246 642 q 667 585 546 642 q 693 560 682 578 q 704 525 704 542 m 496 214 l 496 425 q 406 447 449 447 q 298 406 332 447 q 264 303 264 365 q 301 215 264 251 q 399 178 339 178 q 496 214 458 178 z "},"r":{"ha":513,"x_min":76,"x_max":517,"o":"m 285 397 l 285 53 q 269 15 285 31 q 232 0 254 0 l 129 0 q 92 15 107 0 q 76 53 76 31 l 76 572 q 92 610 76 594 q 129 625 107 625 l 236 625 q 270 610 256 625 q 285 576 285 596 q 407 636 328 636 q 482 626 450 636 q 517 582 517 615 q 511 554 517 567 l 471 467 q 415 433 456 433 q 394 436 408 433 q 356 442 372 442 q 285 397 310 442 z "},"s":{"ha":638,"x_min":46,"x_max":592,"o":"m 57 143 l 94 194 q 133 215 108 215 q 179 201 156 215 q 336 157 258 157 q 383 185 383 157 q 349 215 383 203 q 267 238 315 226 q 169 269 218 250 q 87 331 121 288 q 53 438 53 374 q 122 588 53 535 q 297 642 192 642 q 514 590 414 642 q 543 540 543 575 q 538 518 543 528 l 510 465 q 458 433 492 433 q 435 439 451 433 q 310 468 368 468 q 274 460 288 468 q 261 440 261 451 q 295 412 261 424 q 378 389 329 400 q 475 359 426 378 q 558 299 524 340 q 592 194 592 257 q 519 41 592 99 q 322 -17 446 -17 q 67 65 164 -17 q 46 108 46 82 q 57 143 46 128 z "},"t":{"ha":504,"x_min":63,"x_max":469,"o":"m 435 163 l 464 106 q 469 81 469 94 q 440 32 469 49 q 257 -17 356 -17 q 108 48 154 -17 q 63 238 63 113 l 63 746 q 78 783 63 768 q 115 799 93 799 l 218 799 q 256 783 240 799 q 271 746 271 768 l 271 625 l 392 625 q 429 610 414 625 q 444 572 444 594 l 444 483 q 429 446 444 461 q 392 431 414 431 l 271 431 l 271 247 q 317 178 271 178 q 364 188 340 178 q 390 193 376 193 q 435 163 421 193 z "},"u":{"ha":736,"x_min":63,"x_max":660,"o":"m 451 235 l 451 572 q 467 610 451 594 q 504 625 482 625 l 607 625 q 644 610 629 625 q 660 572 660 594 l 660 53 q 644 15 660 31 q 607 0 629 0 l 504 0 q 467 17 482 0 q 451 58 451 33 q 272 -17 385 -17 q 124 47 186 -17 q 63 232 63 111 l 63 572 q 78 610 63 594 q 115 625 93 625 l 218 625 q 256 610 240 625 q 271 572 271 594 l 271 276 q 290 206 271 235 q 351 178 310 178 q 451 235 406 178 z "},"v":{"ha":675,"x_min":19,"x_max":656,"o":"m 313 428 q 354 283 340 361 q 394 429 368 363 l 453 585 q 510 625 469 625 l 590 625 q 637 606 618 625 q 656 560 656 586 q 650 535 656 546 l 442 39 q 383 0 425 0 l 310 0 q 250 39 268 0 l 25 536 q 19 563 19 547 q 38 606 19 588 q 82 625 56 625 l 190 625 q 249 586 232 625 l 313 428 z "},"w":{"ha":1021,"x_min":21,"x_max":1000,"o":"m 708 340 q 728 258 715 322 q 743 343 736 318 l 801 583 q 853 625 811 625 l 939 625 q 983 607 965 625 q 1000 564 1000 589 q 997 547 1000 558 l 840 40 q 786 0 828 0 l 679 0 q 622 39 639 0 l 526 289 q 508 360 524 296 q 489 286 503 318 l 393 39 q 336 0 376 0 l 240 0 q 186 40 199 0 l 24 547 q 21 565 21 558 q 38 607 21 589 q 81 625 56 625 l 181 625 q 233 585 221 625 l 299 339 q 313 260 303 324 q 331 339 321 311 l 411 585 q 433 614 417 603 q 467 625 449 625 l 569 625 q 625 585 611 625 l 708 340 z "},"x":{"ha":736,"x_min":58,"x_max":678,"o":"m 296 588 l 372 447 l 451 588 q 514 625 472 625 l 604 625 q 646 608 629 625 q 663 567 663 590 q 653 535 663 549 l 518 328 l 668 92 q 678 60 678 78 q 660 17 678 35 q 618 0 643 0 l 514 0 q 451 38 472 0 l 364 197 l 269 36 q 207 0 249 0 l 117 0 q 75 17 92 0 q 58 58 58 35 q 68 90 58 76 l 215 317 l 81 533 q 71 565 71 549 q 88 608 71 590 q 131 625 106 625 l 235 625 q 296 588 278 625 z "},"y":{"ha":715,"x_min":32,"x_max":683,"o":"m 356 339 q 379 253 364 317 q 394 340 385 308 l 465 585 q 518 625 478 625 l 617 625 q 664 605 644 625 q 683 558 683 585 q 679 535 683 547 l 471 0 q 351 -221 404 -164 q 218 -278 297 -278 q 86 -236 151 -278 q 64 -193 64 -221 q 72 -162 64 -176 l 103 -108 q 122 -83 114 -90 q 149 -75 131 -75 q 175 -81 156 -75 q 208 -86 194 -86 q 263 -33 240 -86 l 276 0 l 38 536 q 32 563 32 547 q 50 606 32 588 q 94 625 68 625 l 207 625 q 264 585 247 625 l 356 339 z "},"z":{"ha":688,"x_min":56,"x_max":632,"o":"m 56 53 l 56 122 q 78 175 56 153 l 342 431 l 129 431 q 92 446 107 431 q 76 483 76 461 l 76 572 q 92 610 76 594 q 129 625 107 625 l 579 625 q 617 610 601 625 q 632 572 632 594 l 632 503 q 610 450 632 472 l 344 194 l 572 194 q 610 179 594 194 q 625 142 625 164 l 625 53 q 610 15 625 31 q 572 0 594 0 l 108 0 q 71 15 86 0 q 56 53 56 31 z "},"{":{"ha":542,"x_min":28,"x_max":514,"o":"m 514 -136 l 514 -225 q 499 -262 514 -247 q 461 -278 483 -278 l 382 -278 q 210 -227 268 -278 q 153 -60 153 -176 l 153 86 q 81 214 153 186 q 39 242 50 225 q 28 290 28 258 l 28 333 q 38 383 28 367 q 81 414 49 399 q 153 556 153 446 l 153 674 q 208 848 153 793 q 399 903 264 903 l 461 903 q 499 888 483 903 q 514 850 514 872 l 514 761 q 497 724 514 739 q 456 708 481 708 q 381 687 400 708 q 361 600 361 665 l 361 472 q 333 363 361 406 q 257 314 304 321 q 361 156 361 301 l 361 28 q 383 -58 361 -33 q 461 -83 404 -83 q 499 -99 483 -83 q 514 -136 514 -114 z "},"|":{"ha":486,"x_min":139,"x_max":347,"o":"m 347 919 l 347 53 q 332 15 347 31 q 294 0 317 0 l 192 0 q 154 15 169 0 q 139 53 139 31 l 139 919 q 154 957 139 942 q 192 972 169 972 l 294 972 q 332 957 317 972 q 347 919 347 942 z "},"}":{"ha":542,"x_min":28,"x_max":514,"o":"m 514 333 l 514 290 q 503 242 514 258 q 461 214 492 225 q 389 86 389 186 l 389 -60 q 331 -227 389 -176 q 160 -278 274 -278 l 81 -278 q 43 -262 58 -278 q 28 -225 28 -247 l 28 -136 q 44 -99 28 -114 q 82 -83 60 -83 q 159 -58 138 -83 q 181 28 181 -33 l 181 156 q 285 314 181 301 q 209 363 238 321 q 181 472 181 406 l 181 600 q 161 687 181 665 q 86 708 142 708 q 44 724 61 708 q 28 761 28 739 l 28 850 q 43 888 28 872 q 81 903 58 903 l 143 903 q 333 848 278 903 q 389 674 389 793 l 389 556 q 461 414 389 446 q 503 383 493 399 q 514 333 514 367 z "},"~":{"ha":833,"x_min":50,"x_max":799,"o":"m 799 521 q 758 439 799 474 q 586 367 668 367 q 422 407 528 367 q 272 447 317 447 q 183 411 238 447 q 129 392 156 392 q 68 421 96 392 q 50 471 50 439 q 75 529 50 506 q 268 625 178 625 q 430 585 326 625 q 583 544 533 544 q 668 581 614 544 q 719 597 694 597 q 782 567 756 597 q 799 521 799 549 z "}," ":{"ha":278,"x_min":0,"x_max":0,"o":""},"¡":{"ha":431,"x_min":79,"x_max":351,"o":"m 104 -275 l 104 194 q 123 240 104 221 q 168 258 142 258 l 263 258 q 308 240 289 258 q 326 194 326 221 l 326 -275 q 308 -320 326 -301 q 263 -339 289 -339 l 168 -339 q 123 -320 142 -339 q 104 -275 104 -301 m 351 500 q 313 410 351 450 q 210 369 274 369 q 117 410 154 369 q 79 500 79 450 q 116 599 79 557 q 210 642 153 642 q 313 600 274 642 q 351 500 351 558 z "},"¢":{"ha":829,"x_min":118,"x_max":711,"o":"m 571 422 q 475 447 521 447 q 381 411 422 447 q 340 313 340 375 q 383 215 340 253 q 478 178 425 178 q 575 208 526 178 q 614 221 594 221 q 657 199 640 221 l 700 142 q 711 108 711 126 q 689 64 711 81 q 549 -7 621 10 l 549 -114 q 533 -151 549 -136 q 496 -167 518 -167 l 393 -167 q 356 -151 371 -167 q 340 -114 340 -136 l 340 0 q 177 114 236 32 q 118 313 118 196 q 178 508 118 422 q 340 625 239 593 l 340 729 q 356 767 340 751 q 393 782 371 782 l 496 782 q 533 767 518 782 q 549 729 549 751 l 549 633 q 667 583 608 621 q 697 535 697 564 q 689 508 697 521 l 649 442 q 601 414 632 414 q 571 422 586 414 z "},"£":{"ha":847,"x_min":24,"x_max":824,"o":"m 824 124 q 797 72 824 92 q 585 -4 696 -4 q 427 32 532 -4 q 268 68 322 68 q 175 31 229 68 q 128 14 153 14 q 76 39 100 14 l 39 83 q 24 129 24 103 q 40 174 24 157 q 161 251 89 219 q 196 354 190 306 l 135 354 q 90 373 108 354 q 71 418 71 392 l 71 457 q 90 502 71 483 q 135 521 108 521 l 169 521 q 158 549 167 526 q 145 581 149 572 q 135 610 142 589 q 125 644 128 631 q 119 678 122 658 q 117 717 117 697 q 209 910 117 836 q 444 985 301 985 q 569 969 519 985 q 674 918 619 954 q 700 864 700 900 q 690 829 700 843 l 654 772 q 597 740 633 740 q 561 750 579 740 q 454 776 513 776 q 353 683 353 776 q 377 601 353 654 q 410 521 401 549 l 554 521 q 599 502 581 521 q 618 457 618 483 l 618 418 q 599 373 618 392 q 554 354 581 354 l 408 354 q 363 263 397 313 q 433 239 386 256 q 517 213 481 222 q 588 204 554 204 q 683 229 638 204 q 722 240 703 240 q 779 208 757 240 l 811 163 q 824 124 824 144 z "},"¤":{"ha":819,"x_min":64,"x_max":756,"o":"m 154 128 q 90 154 119 128 q 64 218 64 181 q 90 282 64 256 l 124 315 q 85 472 85 385 q 125 631 85 558 l 90 665 q 64 731 64 694 q 90 794 64 768 q 154 821 117 821 q 218 793 190 821 l 256 756 q 410 788 322 788 q 563 756 492 788 l 600 793 q 665 819 626 819 q 729 793 704 819 q 756 729 756 768 q 729 665 756 692 l 694 631 q 735 472 735 558 q 696 315 735 389 l 728 283 q 756 219 756 256 q 729 156 756 182 q 665 129 703 129 q 600 156 629 129 l 565 190 q 410 157 494 157 q 254 190 324 157 l 218 154 q 154 128 192 128 m 279 472 q 315 376 279 414 q 410 338 350 338 q 507 375 474 338 q 540 472 540 413 q 506 572 540 536 q 410 607 471 607 q 315 571 350 607 q 279 472 279 535 z "},"¥":{"ha":824,"x_min":38,"x_max":786,"o":"m 147 313 l 300 313 l 300 396 l 147 396 q 102 415 121 396 q 83 460 83 433 l 83 499 q 102 544 83 525 q 147 563 121 563 l 213 563 l 44 886 q 38 913 38 900 q 55 954 38 936 q 97 972 72 972 l 206 972 q 275 928 254 972 l 421 604 l 565 928 q 592 960 574 947 q 633 972 611 972 l 728 972 q 769 955 753 972 q 786 914 786 938 q 779 886 786 900 l 610 563 l 678 563 q 723 544 704 563 q 742 499 742 525 l 742 460 q 723 415 742 433 q 678 396 704 396 l 522 396 l 522 313 l 678 313 q 723 294 704 313 q 742 249 742 275 l 742 210 q 723 165 742 183 q 678 146 704 146 l 522 146 l 522 64 q 503 19 522 38 q 458 0 485 0 l 364 0 q 319 19 338 0 q 300 64 300 38 l 300 146 l 147 146 q 102 165 121 146 q 83 210 83 183 l 83 249 q 102 294 83 275 q 147 313 121 313 z "},"¦":{"ha":486,"x_min":139,"x_max":347,"o":"m 206 972 l 281 972 q 328 953 308 972 q 347 906 347 933 l 347 678 q 328 631 347 650 q 281 611 308 611 l 206 611 q 158 631 178 611 q 139 678 139 650 l 139 906 q 158 953 139 933 q 206 972 178 972 m 281 0 l 206 0 q 158 19 178 0 q 139 67 139 39 l 139 294 q 158 342 139 322 q 206 361 178 361 l 281 361 q 328 342 308 361 q 347 294 347 322 l 347 67 q 328 19 347 39 q 281 0 308 0 z "},"§":{"ha":728,"x_min":69,"x_max":658,"o":"m 282 -65 q 331 -83 308 -83 q 365 -67 351 -83 q 378 -26 378 -51 q 297 89 378 39 q 128 176 186 106 q 69 346 69 247 q 108 489 69 426 q 222 582 147 551 q 139 771 139 675 q 204 914 139 856 q 390 972 269 972 q 581 903 486 972 q 600 865 600 888 q 585 824 600 849 l 540 764 q 500 740 522 740 q 458 754 483 740 q 397 778 415 778 q 360 763 374 778 q 347 722 347 747 q 426 603 347 657 q 599 516 539 586 q 658 346 658 446 q 619 203 658 265 q 504 110 579 140 q 586 -76 586 19 q 521 -219 586 -161 q 335 -278 456 -278 q 150 -207 221 -278 q 131 -164 131 -189 q 144 -128 131 -144 l 197 -68 q 236 -47 217 -47 q 282 -65 254 -47 m 278 346 q 298 291 278 317 q 364 265 318 265 q 431 290 413 265 q 450 346 450 314 q 430 402 450 376 q 364 428 410 428 q 299 402 319 428 q 278 346 278 376 z "},"¨":{"ha":654,"x_min":83,"x_max":571,"o":"m 197 699 q 116 731 149 699 q 83 818 83 763 q 116 900 83 869 q 197 931 149 931 q 271 900 239 931 q 303 818 303 869 q 272 731 303 763 q 197 699 240 699 m 465 699 q 384 731 417 699 q 351 818 351 763 q 385 900 351 869 q 465 931 418 931 q 540 900 508 931 q 571 818 571 869 q 540 731 571 763 q 465 699 508 699 z "},"©":{"ha":1414,"x_min":97,"x_max":1317,"o":"m 274 -126 q 185 -38 274 -126 q 97 307 97 50 q 274 740 97 564 q 707 917 450 917 q 1140 740 964 917 q 1317 307 1317 564 q 1140 -126 1317 50 q 707 -303 964 -303 q 274 -126 450 -303 m 278 306 q 401 3 278 128 q 708 -122 524 -122 q 1013 3 890 -122 q 1136 306 1136 128 q 1014 611 1136 486 q 708 736 892 736 q 401 611 524 736 q 278 306 278 486 m 944 64 q 717 -17 846 -17 q 467 74 561 -17 q 374 313 374 164 q 466 547 374 451 q 704 642 558 642 q 922 583 832 642 q 953 535 953 564 q 944 508 953 521 l 904 442 q 857 414 888 414 q 826 422 842 414 q 731 447 776 447 q 637 411 678 447 q 596 313 596 375 q 638 215 596 253 q 733 178 681 178 q 831 208 782 178 q 869 221 850 221 q 913 199 896 221 l 956 142 q 967 108 967 126 q 944 64 967 81 z "},"ª":{"ha":646,"x_min":56,"x_max":563,"o":"m 56 554 q 103 682 56 639 q 239 725 150 725 q 379 701 319 725 q 297 761 367 761 q 228 753 275 761 q 200 750 208 750 q 131 801 147 750 q 126 824 126 811 q 142 864 126 846 q 178 889 157 882 q 333 914 253 914 q 494 863 425 914 q 563 715 563 813 l 563 469 q 542 422 563 442 q 496 403 522 403 l 433 403 q 397 418 413 403 q 382 456 382 433 q 210 394 328 394 q 98 440 140 394 q 56 554 56 486 m 382 567 l 382 588 q 304 600 338 600 q 250 574 250 600 q 306 547 250 547 q 382 567 343 547 z "},"«":{"ha":814,"x_min":61,"x_max":753,"o":"m 601 347 l 738 188 q 753 144 753 168 q 729 93 753 114 l 690 61 q 647 46 674 46 q 596 69 614 46 l 404 296 q 386 347 386 318 q 404 397 386 378 l 603 626 q 651 649 621 649 q 696 632 678 649 l 731 600 q 753 549 753 579 q 738 506 753 522 l 601 347 m 276 347 l 413 188 q 428 144 428 168 q 404 93 428 114 l 365 61 q 322 46 349 46 q 271 69 289 46 l 79 296 q 61 347 61 318 q 79 397 61 378 l 278 626 q 326 649 296 649 q 371 632 353 649 l 406 600 q 428 549 428 579 q 413 506 428 522 l 276 347 z "},"¬":{"ha":833,"x_min":60,"x_max":774,"o":"m 707 228 l 660 228 q 613 247 633 228 q 593 294 593 267 l 593 410 l 126 410 q 80 430 100 410 q 60 476 60 450 l 60 524 q 80 570 60 550 q 126 590 100 590 l 707 590 q 753 570 733 590 q 774 524 774 550 l 774 294 q 753 247 774 267 q 707 228 733 228 z "},"­":{"ha":506,"x_min":69,"x_max":436,"o":"m 436 413 l 436 351 q 417 305 436 325 q 369 285 397 285 l 136 285 q 89 305 108 285 q 69 351 69 325 l 69 413 q 89 459 69 439 q 136 479 108 479 l 369 479 q 417 459 397 479 q 436 413 436 439 z "},"®":{"ha":983,"x_min":56,"x_max":928,"o":"m 524 551 l 482 606 l 460 606 l 460 567 q 440 519 460 539 q 390 500 419 500 q 341 519 361 500 q 321 567 321 539 l 321 822 q 341 869 321 850 q 388 889 361 889 l 510 889 q 634 853 592 889 q 676 753 676 817 q 657 681 676 713 q 613 638 638 650 l 646 596 q 661 557 661 579 q 643 517 661 533 q 601 500 625 500 q 569 508 583 500 q 547 524 554 515 q 524 551 539 532 m 460 703 l 486 703 q 538 750 538 703 q 489 792 538 792 l 460 792 l 460 703 m 494 1125 q 804 1001 681 1125 q 928 692 928 878 q 802 377 928 503 q 494 251 676 251 q 182 377 308 251 q 56 692 56 503 q 180 999 56 874 q 494 1125 304 1125 m 494 418 q 686 492 611 418 q 761 692 761 567 q 686 884 761 808 q 494 960 611 960 q 297 885 372 960 q 222 692 222 810 q 299 492 222 565 q 494 418 376 418 z "},"¯":{"ha":575,"x_min":83,"x_max":492,"o":"m 492 822 l 492 789 q 472 742 492 761 q 425 722 453 722 l 150 722 q 103 742 122 722 q 83 789 83 761 l 83 822 q 103 869 83 850 q 150 889 122 889 l 425 889 q 472 869 453 889 q 492 822 492 850 z "},"°":{"ha":611,"x_min":56,"x_max":556,"o":"m 303 542 q 128 613 200 542 q 56 789 56 683 q 128 969 56 897 q 303 1042 200 1042 q 483 974 410 1042 q 556 799 556 906 q 481 617 556 693 q 303 542 407 542 m 354 840 q 344 851 354 840 q 306 861 333 861 q 257 840 278 861 q 236 792 236 819 q 257 743 236 764 q 306 722 278 722 q 354 743 333 722 q 375 792 375 764 q 354 840 375 819 z "},"±":{"ha":833,"x_min":88,"x_max":746,"o":"m 460 433 l 371 433 q 333 449 349 433 q 318 486 318 464 l 318 549 l 140 549 q 103 564 118 549 q 88 601 88 579 l 88 676 q 103 714 88 699 q 140 729 118 729 l 318 729 l 318 914 q 333 951 318 936 q 371 967 349 967 l 460 967 q 497 951 482 967 q 513 914 513 936 l 513 729 l 693 729 q 731 714 715 729 q 746 676 746 699 l 746 601 q 731 564 746 579 q 693 549 715 549 l 513 549 l 513 486 q 497 449 513 464 q 460 433 482 433 m 746 329 l 746 254 q 731 217 746 232 q 693 201 715 201 l 140 201 q 103 217 118 201 q 88 254 88 232 l 88 329 q 103 367 88 351 q 140 382 118 382 l 693 382 q 731 367 715 382 q 746 329 746 351 z "},"²":{"ha":522,"x_min":35,"x_max":488,"o":"m 488 576 l 488 549 q 469 504 488 522 q 425 486 451 486 l 97 486 q 53 504 71 486 q 35 549 35 522 l 35 579 q 79 642 35 615 q 153 684 126 668 q 213 722 181 700 q 259 760 244 743 q 274 793 274 778 q 238 825 274 825 q 192 796 221 825 q 140 771 167 771 q 108 779 125 771 l 78 796 q 49 843 49 811 q 63 885 49 863 q 258 978 122 978 q 413 935 358 978 q 467 819 467 893 q 447 749 467 781 q 392 695 428 717 q 331 663 356 674 q 268 639 306 651 l 425 639 q 469 621 451 639 q 488 576 488 603 z "},"³":{"ha":508,"x_min":38,"x_max":471,"o":"m 258 982 q 400 948 344 982 q 456 857 456 914 q 344 744 456 765 q 438 709 406 740 q 471 631 471 678 q 405 519 471 561 q 247 476 339 476 q 61 533 125 476 q 38 588 38 553 q 54 633 38 614 q 107 658 78 658 q 161 639 133 658 q 215 622 186 622 q 276 647 276 622 q 214 668 276 668 q 188 678 199 668 q 176 704 176 689 l 176 760 q 187 783 176 774 q 211 793 197 793 q 261 818 261 793 q 221 836 261 836 q 164 822 192 836 q 117 810 139 810 q 63 842 85 810 q 53 874 53 856 q 86 932 53 908 q 258 982 157 982 z "},"´":{"ha":472,"x_min":110,"x_max":357,"o":"m 121 849 l 189 963 q 244 994 208 994 q 285 981 269 994 l 331 946 q 357 892 357 925 q 340 847 357 867 l 256 753 q 196 726 232 726 q 146 743 169 726 q 110 810 110 768 q 121 849 110 829 z "},"µ":{"ha":750,"x_min":76,"x_max":674,"o":"m 465 235 l 465 572 q 481 610 465 594 q 518 625 496 625 l 621 625 q 658 610 643 625 q 674 572 674 594 l 674 53 q 658 15 674 31 q 621 0 643 0 l 518 0 q 481 17 496 0 q 465 58 465 33 q 285 -17 399 -17 l 285 -225 q 269 -262 285 -247 q 232 -278 254 -278 l 129 -278 q 92 -262 107 -278 q 76 -225 76 -247 l 76 572 q 92 610 76 594 q 129 625 107 625 l 232 625 q 269 610 254 625 q 285 572 285 594 l 285 276 q 304 206 285 235 q 365 178 324 178 q 465 235 419 178 z "},"¶":{"ha":724,"x_min":42,"x_max":696,"o":"m 204 -86 q 260 -94 229 -94 q 357 47 357 -94 l 357 365 q 136 449 231 367 q 42 668 42 532 q 133 889 42 806 q 360 972 224 972 l 632 972 q 677 953 658 972 q 696 908 696 935 l 696 842 q 677 797 696 815 q 632 778 658 778 l 565 778 l 565 39 q 490 -207 565 -125 q 275 -289 415 -289 q 104 -242 182 -289 q 71 -187 71 -221 q 78 -160 71 -176 l 104 -108 q 156 -78 121 -78 q 204 -86 178 -78 z "},"·":{"ha":278,"x_min":3,"x_max":275,"o":"m 3 425 q 42 515 3 475 q 144 556 81 556 q 238 515 200 556 q 275 425 275 475 q 238 326 275 368 q 144 283 201 283 q 42 325 81 283 q 3 425 3 367 z "},"¸":{"ha":561,"x_min":86,"x_max":478,"o":"m 331 -12 l 331 -36 q 478 -161 478 -49 q 424 -256 478 -221 q 268 -292 371 -292 q 113 -247 183 -292 q 86 -199 86 -231 q 96 -167 86 -182 q 140 -142 113 -142 q 178 -151 161 -142 q 239 -167 214 -167 q 269 -149 269 -167 q 244 -110 269 -139 q 226 -49 226 -87 l 226 28 l 331 28 l 331 -12 z "},"¹":{"ha":393,"x_min":28,"x_max":310,"o":"m 129 553 l 129 767 q 97 758 113 758 q 40 790 64 758 q 28 833 28 811 q 57 889 28 869 l 136 944 q 221 972 176 972 l 236 972 q 289 953 268 972 q 310 906 310 933 l 310 553 q 290 506 310 525 q 243 486 269 486 l 196 486 q 149 506 169 486 q 129 553 129 525 z "},"º":{"ha":725,"x_min":69,"x_max":656,"o":"m 574 466 q 533 430 574 466 q 363 394 492 394 q 151 466 233 394 q 69 656 69 538 q 151 844 69 774 q 363 914 233 914 q 574 844 492 914 q 656 656 656 774 q 574 466 656 538 m 434 722 q 420 735 434 722 q 363 747 407 747 q 291 722 318 747 q 264 656 264 697 q 292 586 264 611 q 363 561 319 561 q 435 586 408 561 q 461 656 461 611 q 434 722 461 697 z "},"»":{"ha":814,"x_min":61,"x_max":753,"o":"m 407 600 l 442 632 q 486 649 461 649 q 535 626 517 649 l 733 397 q 753 346 753 375 q 733 293 753 317 l 542 69 q 490 46 524 46 q 447 61 464 46 l 408 93 q 385 144 385 114 q 400 188 385 168 l 536 347 l 400 506 q 383 549 383 525 q 407 600 383 579 m 85 600 l 119 632 q 164 649 139 649 q 213 626 194 649 l 411 397 q 431 346 431 375 q 411 293 431 317 l 219 69 q 168 46 201 46 q 125 61 142 46 l 86 93 q 63 144 63 114 q 78 188 63 168 l 214 347 l 78 506 q 61 549 61 525 q 85 600 61 579 z "},"¼":{"ha":993,"x_min":28,"x_max":956,"o":"m 129 553 l 129 767 q 97 758 113 758 q 40 790 64 758 q 28 833 28 811 q 57 889 28 869 l 136 944 q 221 972 176 972 l 236 972 q 289 953 268 972 q 310 906 310 933 l 310 553 q 290 506 310 525 q 243 486 269 486 l 196 486 q 149 506 169 486 q 129 553 129 525 m 819 849 l 213 36 q 158 10 193 10 q 113 25 135 10 q 81 82 81 46 q 93 118 81 101 l 703 936 q 754 961 722 961 q 801 946 781 961 q 833 888 833 921 q 819 849 833 867 m 888 85 l 888 63 q 869 18 888 36 q 825 0 851 0 l 783 0 q 739 18 757 0 q 721 63 721 36 l 721 85 l 518 85 q 474 101 492 85 q 456 144 456 117 q 457 167 456 157 q 467 192 458 176 q 478 213 475 207 q 499 247 482 219 l 622 444 q 699 494 654 494 q 748 475 731 494 q 765 428 765 456 q 754 390 765 408 l 650 224 l 721 224 l 721 250 q 739 294 721 276 q 783 313 757 313 l 825 313 q 869 294 851 313 q 888 250 888 276 l 888 224 q 936 206 917 224 q 956 161 956 188 l 956 147 q 936 103 956 121 q 888 85 917 85 z "},"½":{"ha":992,"x_min":28,"x_max":957,"o":"m 129 553 l 129 767 q 97 758 113 758 q 40 790 64 758 q 28 833 28 811 q 57 889 28 869 l 136 944 q 221 972 176 972 l 236 972 q 289 953 268 972 q 310 906 310 933 l 310 553 q 290 506 310 525 q 243 486 269 486 l 196 486 q 149 506 169 486 q 129 553 129 525 m 819 849 l 213 36 q 158 10 193 10 q 113 25 135 10 q 81 82 81 46 q 93 118 81 101 l 703 936 q 754 961 722 961 q 801 946 781 961 q 833 888 833 921 q 819 849 833 867 m 957 90 l 957 63 q 939 18 957 36 q 894 0 921 0 l 567 0 q 522 18 540 0 q 504 63 504 36 l 504 93 q 549 156 504 129 q 623 198 596 182 q 682 235 650 214 q 728 274 714 257 q 743 307 743 292 q 707 339 743 339 q 661 310 690 339 q 610 285 636 285 q 578 293 594 285 l 547 310 q 518 357 518 325 q 532 399 518 376 q 728 492 592 492 q 882 449 828 492 q 936 333 936 407 q 917 263 936 294 q 861 209 897 231 q 800 176 825 188 q 738 153 775 165 l 894 153 q 939 135 921 153 q 957 90 957 117 z "},"¾":{"ha":1089,"x_min":47,"x_max":1051,"o":"m 933 849 l 326 36 q 272 10 307 10 q 226 25 249 10 q 194 82 194 46 q 207 118 194 101 l 817 936 q 868 961 836 961 q 915 946 894 961 q 947 888 947 921 q 933 849 947 867 m 983 85 l 983 63 q 965 18 983 36 q 921 0 947 0 l 879 0 q 835 18 853 0 q 817 63 817 36 l 817 85 l 614 85 q 569 101 588 85 q 551 144 551 117 q 553 167 551 157 q 563 192 554 176 q 574 213 571 207 q 594 247 578 219 l 718 444 q 794 494 750 494 q 844 475 826 494 q 861 428 861 456 q 850 390 861 408 l 746 224 l 817 224 l 817 250 q 835 294 817 276 q 879 313 853 313 l 921 313 q 965 294 947 313 q 983 250 983 276 l 983 224 q 1032 206 1013 224 q 1051 161 1051 188 l 1051 147 q 1032 103 1051 121 q 983 85 1013 85 m 268 982 q 410 948 354 982 q 465 857 465 914 q 354 744 465 765 q 448 709 415 740 q 481 631 481 678 q 415 519 481 561 q 257 476 349 476 q 71 533 135 476 q 47 588 47 553 q 64 633 47 614 q 117 658 88 658 q 171 639 143 658 q 225 622 196 622 q 286 647 286 622 q 224 668 286 668 q 197 678 208 668 q 186 704 186 689 l 186 760 q 197 783 186 774 q 221 793 207 793 q 271 818 271 793 q 231 836 271 836 q 174 822 201 836 q 126 810 149 810 q 72 842 94 810 q 63 874 63 856 q 96 932 63 908 q 268 982 167 982 z "},"¿":{"ha":664,"x_min":32,"x_max":621,"o":"m 335 311 l 414 311 q 449 295 436 311 q 461 254 461 279 q 460 240 461 244 q 428 155 453 192 q 376 97 404 118 q 320 54 347 75 q 274 6 293 33 q 256 -61 256 -22 q 283 -121 256 -94 q 347 -147 310 -147 q 464 -108 408 -147 q 514 -90 490 -90 q 558 -108 539 -90 l 599 -146 q 621 -194 621 -164 q 603 -239 621 -219 q 482 -325 554 -294 q 336 -356 410 -356 q 115 -284 197 -356 q 32 -107 32 -212 q 51 1 32 -44 q 99 75 69 46 q 158 128 128 104 q 219 188 189 153 q 265 268 250 224 q 289 303 274 294 q 335 311 304 311 m 496 500 q 457 410 496 450 q 354 369 418 369 q 261 410 299 369 q 224 500 224 450 q 260 599 224 557 q 354 642 297 642 q 457 600 418 642 q 496 500 496 558 z "},"À":{"ha":1001,"x_min":28,"x_max":974,"o":"m 686 204 l 301 204 l 239 46 q 172 0 221 0 l 88 0 q 45 18 63 0 q 28 60 28 36 q 32 83 28 72 l 382 926 q 450 972 403 972 l 551 972 q 619 926 599 972 l 969 83 q 974 60 974 72 q 956 18 974 36 q 914 0 939 0 l 815 0 q 749 46 767 0 l 686 204 m 494 688 l 385 413 l 603 413 l 494 688 m 381 1268 l 586 1165 q 624 1103 624 1146 q 618 1074 624 1086 q 547 1028 596 1028 q 525 1031 532 1028 l 307 1100 q 276 1122 288 1106 q 264 1157 264 1138 q 269 1181 264 1167 l 294 1238 q 353 1275 310 1275 q 381 1268 368 1275 z "},"Á":{"ha":1001,"x_min":28,"x_max":974,"o":"m 686 204 l 301 204 l 239 46 q 172 0 221 0 l 88 0 q 45 18 63 0 q 28 60 28 36 q 32 83 28 72 l 382 926 q 450 972 403 972 l 551 972 q 619 926 599 972 l 969 83 q 974 60 974 72 q 956 18 974 36 q 914 0 939 0 l 815 0 q 749 46 767 0 l 686 204 m 494 688 l 385 413 l 603 413 l 494 688 m 414 1165 l 619 1268 q 647 1275 632 1275 q 706 1238 690 1275 l 731 1181 q 736 1157 736 1167 q 724 1122 736 1138 q 693 1100 713 1106 l 475 1031 q 450 1026 463 1026 q 382 1068 401 1026 q 375 1100 375 1086 q 414 1165 375 1144 z "},"Â":{"ha":1001,"x_min":28,"x_max":974,"o":"m 686 204 l 301 204 l 239 46 q 172 0 221 0 l 88 0 q 45 18 63 0 q 28 60 28 36 q 32 83 28 72 l 382 926 q 450 972 403 972 l 551 972 q 619 926 599 972 l 969 83 q 974 60 974 72 q 956 18 974 36 q 914 0 939 0 l 815 0 q 749 46 767 0 l 686 204 m 494 688 l 385 413 l 603 413 l 494 688 m 496 1096 l 378 1035 q 346 1026 361 1026 q 282 1063 303 1026 q 271 1100 271 1081 q 301 1156 271 1136 l 453 1257 q 496 1269 474 1269 q 539 1257 519 1269 l 697 1158 q 726 1104 726 1139 q 714 1064 726 1083 q 649 1026 689 1026 q 614 1035 631 1026 l 496 1096 z "},"Ã":{"ha":1001,"x_min":28,"x_max":974,"o":"m 686 204 l 301 204 l 239 46 q 172 0 221 0 l 88 0 q 45 18 63 0 q 28 60 28 36 q 32 83 28 72 l 382 926 q 450 972 403 972 l 551 972 q 619 926 599 972 l 969 83 q 974 60 974 72 q 956 18 974 36 q 914 0 939 0 l 815 0 q 749 46 767 0 l 686 204 m 494 688 l 385 413 l 603 413 l 494 688 m 778 1165 q 757 1114 778 1138 q 593 1032 676 1032 q 499 1063 561 1032 q 399 1093 438 1093 q 340 1072 372 1093 q 288 1053 308 1053 q 238 1079 260 1053 q 219 1122 219 1099 q 249 1179 219 1153 q 401 1254 332 1254 q 506 1224 449 1254 q 590 1194 564 1194 q 608 1196 600 1194 q 624 1201 617 1197 q 636 1207 632 1204 q 649 1215 640 1210 q 660 1222 657 1221 q 706 1239 685 1239 q 761 1210 733 1239 q 778 1165 778 1192 z "},"Ä":{"ha":1001,"x_min":28,"x_max":974,"o":"m 686 204 l 301 204 l 239 46 q 172 0 221 0 l 88 0 q 45 18 63 0 q 28 60 28 36 q 32 83 28 72 l 382 926 q 450 972 403 972 l 551 972 q 619 926 599 972 l 969 83 q 974 60 974 72 q 956 18 974 36 q 914 0 939 0 l 815 0 q 749 46 767 0 l 686 204 m 494 688 l 385 413 l 603 413 l 494 688 m 208 1163 q 247 1242 208 1213 q 344 1271 286 1271 q 433 1241 396 1271 q 471 1163 471 1211 q 433 1077 471 1108 q 344 1046 396 1046 q 247 1076 286 1046 q 208 1163 208 1107 m 529 1163 q 569 1242 529 1213 q 665 1271 608 1271 q 754 1241 717 1271 q 792 1163 792 1211 q 755 1077 792 1108 q 665 1046 718 1046 q 568 1076 607 1046 q 529 1163 529 1107 z "},"Å":{"ha":1001,"x_min":28,"x_max":974,"o":"m 172 0 l 88 0 q 45 18 63 0 q 28 60 28 36 q 32 83 28 72 l 400 969 q 282 1124 282 1010 q 342 1247 282 1206 q 497 1288 403 1288 q 658 1247 596 1288 q 719 1124 719 1206 q 600 971 719 1011 l 969 83 q 974 60 974 72 q 956 18 974 36 q 914 0 939 0 l 815 0 q 749 46 767 0 l 686 204 l 301 204 l 239 46 q 172 0 221 0 m 494 688 l 385 413 l 603 413 l 494 688 m 435 1124 q 500 1067 435 1067 q 567 1124 567 1067 q 500 1176 567 1176 q 435 1124 435 1176 z "},"Æ":{"ha":1314,"x_min":-1,"x_max":1231,"o":"m 1167 0 l 704 0 q 659 19 678 0 q 640 64 640 38 l 640 204 l 342 204 l 229 40 q 153 0 203 0 l 57 0 q 15 17 32 0 q -1 58 -1 35 q 10 92 -1 74 l 614 932 q 692 972 643 972 l 1153 972 q 1198 953 1179 972 q 1217 908 1217 935 l 1217 828 q 1198 783 1217 801 q 1153 764 1179 764 l 863 764 l 863 593 l 1111 593 q 1156 574 1138 593 q 1175 529 1175 556 l 1175 449 q 1156 403 1175 422 q 1111 385 1138 385 l 863 385 l 863 208 l 1167 208 q 1212 190 1193 208 q 1231 144 1231 171 l 1231 64 q 1212 19 1231 38 q 1167 0 1193 0 m 640 635 l 486 413 l 640 413 l 640 635 z "},"Ç":{"ha":907,"x_min":56,"x_max":878,"o":"m 703 756 q 564 781 639 781 q 369 703 446 781 q 292 486 292 625 q 374 274 292 357 q 586 192 456 192 q 738 229 664 192 q 778 239 757 239 q 835 206 815 239 l 868 153 q 878 118 878 136 q 847 60 878 82 q 571 -17 742 -14 l 571 -36 q 732 -161 732 -49 q 678 -256 732 -219 q 531 -292 625 -292 q 338 -239 424 -292 q 311 -189 311 -222 q 321 -157 311 -172 q 365 -132 338 -132 q 400 -142 381 -132 q 479 -167 444 -167 q 510 -149 510 -167 q 501 -131 510 -136 q 472 -105 478 -115 q 467 -67 467 -94 l 467 -8 q 167 153 279 19 q 56 486 56 286 q 189 847 56 706 q 564 989 322 989 q 800 935 692 989 q 833 881 833 919 q 826 850 833 867 l 796 786 q 736 749 779 749 q 703 756 721 749 z "},"È":{"ha":799,"x_min":125,"x_max":715,"o":"m 715 144 l 715 64 q 697 19 715 38 q 651 0 678 0 l 189 0 q 144 19 163 0 q 125 64 125 38 l 125 908 q 144 953 125 935 q 189 972 163 972 l 638 972 q 683 953 664 972 q 701 908 701 935 l 701 828 q 683 783 701 801 q 638 764 664 764 l 347 764 l 347 593 l 596 593 q 641 574 622 593 q 660 529 660 556 l 660 449 q 641 403 660 422 q 596 385 622 385 l 347 385 l 347 208 l 651 208 q 697 190 678 208 q 715 144 715 171 m 300 1268 l 506 1165 q 543 1103 543 1146 q 538 1074 543 1086 q 467 1028 515 1028 q 444 1031 451 1028 l 226 1100 q 195 1122 207 1106 q 183 1157 183 1138 q 189 1181 183 1167 l 214 1238 q 272 1275 229 1275 q 300 1268 288 1275 z "},"É":{"ha":799,"x_min":125,"x_max":715,"o":"m 715 144 l 715 64 q 697 19 715 38 q 651 0 678 0 l 189 0 q 144 19 163 0 q 125 64 125 38 l 125 908 q 144 953 125 935 q 189 972 163 972 l 638 972 q 683 953 664 972 q 701 908 701 935 l 701 828 q 683 783 701 801 q 638 764 664 764 l 347 764 l 347 593 l 596 593 q 641 574 622 593 q 660 529 660 556 l 660 449 q 641 403 660 422 q 596 385 622 385 l 347 385 l 347 208 l 651 208 q 697 190 678 208 q 715 144 715 171 m 347 1165 l 553 1268 q 581 1275 565 1275 q 639 1238 624 1275 l 664 1181 q 669 1157 669 1167 q 658 1122 669 1138 q 626 1100 646 1106 l 408 1031 q 383 1026 396 1026 q 315 1068 335 1026 q 308 1100 308 1086 q 347 1165 308 1144 z "},"Ê":{"ha":799,"x_min":125,"x_max":715,"o":"m 715 144 l 715 64 q 697 19 715 38 q 651 0 678 0 l 189 0 q 144 19 163 0 q 125 64 125 38 l 125 908 q 144 953 125 935 q 189 972 163 972 l 638 972 q 683 953 664 972 q 701 908 701 935 l 701 828 q 683 783 701 801 q 638 764 664 764 l 347 764 l 347 593 l 596 593 q 641 574 622 593 q 660 529 660 556 l 660 449 q 641 403 660 422 q 596 385 622 385 l 347 385 l 347 208 l 651 208 q 697 190 678 208 q 715 144 715 171 m 410 1096 l 292 1035 q 260 1026 275 1026 q 196 1063 217 1026 q 185 1100 185 1081 q 215 1156 185 1136 l 367 1257 q 410 1269 388 1269 q 453 1257 433 1269 l 611 1158 q 640 1104 640 1139 q 628 1064 640 1083 q 563 1026 603 1026 q 528 1035 544 1026 l 410 1096 z "},"Ë":{"ha":799,"x_min":125,"x_max":715,"o":"m 715 144 l 715 64 q 697 19 715 38 q 651 0 678 0 l 189 0 q 144 19 163 0 q 125 64 125 38 l 125 908 q 144 953 125 935 q 189 972 163 972 l 638 972 q 683 953 664 972 q 701 908 701 935 l 701 828 q 683 783 701 801 q 638 764 664 764 l 347 764 l 347 593 l 596 593 q 641 574 622 593 q 660 529 660 556 l 660 449 q 641 403 660 422 q 596 385 622 385 l 347 385 l 347 208 l 651 208 q 697 190 678 208 q 715 144 715 171 m 128 1163 q 167 1242 128 1213 q 264 1271 206 1271 q 353 1241 315 1271 q 390 1163 390 1211 q 353 1077 390 1108 q 264 1046 315 1046 q 167 1076 206 1046 q 128 1163 128 1107 m 449 1163 q 488 1242 449 1213 q 585 1271 528 1271 q 674 1241 636 1271 q 711 1163 711 1211 q 674 1077 711 1108 q 585 1046 638 1046 q 488 1076 526 1046 q 449 1163 449 1107 z "},"Ì":{"ha":500,"x_min":3,"x_max":363,"o":"m 361 908 l 361 64 q 342 19 361 38 q 297 0 324 0 l 203 0 q 158 19 176 0 q 139 64 139 38 l 139 908 q 158 953 139 935 q 203 972 176 972 l 297 972 q 342 953 324 972 q 361 908 361 935 m 119 1268 l 325 1165 q 363 1103 363 1146 q 357 1074 363 1086 q 286 1028 335 1028 q 264 1031 271 1028 l 46 1100 q 15 1122 26 1106 q 3 1157 3 1138 q 8 1181 3 1167 l 33 1238 q 92 1275 49 1275 q 119 1268 107 1275 z "},"Í":{"ha":500,"x_min":139,"x_max":503,"o":"m 361 908 l 361 64 q 342 19 361 38 q 297 0 324 0 l 203 0 q 158 19 176 0 q 139 64 139 38 l 139 908 q 158 953 139 935 q 203 972 176 972 l 297 972 q 342 953 324 972 q 361 908 361 935 m 181 1165 l 386 1268 q 414 1275 399 1275 q 472 1238 457 1275 l 497 1181 q 503 1157 503 1167 q 491 1122 503 1138 q 460 1100 479 1106 l 242 1031 q 217 1026 229 1026 q 149 1068 168 1026 q 142 1100 142 1086 q 181 1165 142 1144 z "},"Î":{"ha":500,"x_min":21,"x_max":476,"o":"m 361 908 l 361 64 q 342 19 361 38 q 297 0 324 0 l 203 0 q 158 19 176 0 q 139 64 139 38 l 139 908 q 158 953 139 935 q 203 972 176 972 l 297 972 q 342 953 324 972 q 361 908 361 935 m 246 1096 l 128 1035 q 96 1026 111 1026 q 32 1063 53 1026 q 21 1100 21 1081 q 51 1156 21 1136 l 203 1257 q 246 1269 224 1269 q 289 1257 269 1269 l 447 1158 q 476 1104 476 1139 q 464 1064 476 1083 q 399 1026 439 1026 q 364 1035 381 1026 l 246 1096 z "},"Ï":{"ha":500,"x_min":-42,"x_max":542,"o":"m 361 908 l 361 64 q 342 19 361 38 q 297 0 324 0 l 203 0 q 158 19 176 0 q 139 64 139 38 l 139 908 q 158 953 139 935 q 203 972 176 972 l 297 972 q 342 953 324 972 q 361 908 361 935 m -42 1163 q -3 1242 -42 1213 q 94 1271 36 1271 q 183 1241 146 1271 q 221 1163 221 1211 q 183 1077 221 1108 q 94 1046 146 1046 q -3 1076 36 1046 q -42 1163 -42 1107 m 279 1163 q 319 1242 279 1213 q 415 1271 358 1271 q 504 1241 467 1271 q 542 1163 542 1211 q 505 1077 542 1108 q 415 1046 468 1046 q 318 1076 357 1046 q 279 1163 279 1107 z "},"Ð":{"ha":1033,"x_min":14,"x_max":978,"o":"m 421 -3 q 189 0 383 -3 q 144 19 163 0 q 125 65 125 39 l 125 386 l 78 386 q 33 405 51 386 q 14 450 14 424 l 14 517 q 33 562 14 543 q 78 581 51 581 l 125 581 l 125 907 q 144 953 125 933 q 189 972 163 972 q 273 974 217 972 q 369 976 329 975 q 432 976 410 976 q 842 840 707 976 q 978 494 978 704 q 833 138 978 279 q 421 -3 688 -3 m 347 386 l 347 208 q 428 206 376 206 q 658 281 574 206 q 742 494 742 357 q 656 697 742 625 q 429 768 569 768 q 347 764 375 768 l 347 581 l 511 581 q 556 562 538 581 q 575 517 575 543 l 575 450 q 556 405 575 424 q 511 386 538 386 l 347 386 z "},"Ñ":{"ha":1097,"x_min":125,"x_max":972,"o":"m 828 972 l 908 972 q 953 953 935 972 q 972 908 972 935 l 972 64 q 953 19 972 38 q 908 0 935 0 l 843 0 q 764 39 793 0 l 333 583 l 333 64 q 315 19 333 38 q 269 0 296 0 l 189 0 q 144 19 163 0 q 125 64 125 38 l 125 908 q 144 953 125 935 q 189 972 163 972 l 254 972 q 333 933 304 972 l 764 386 l 764 908 q 783 953 764 935 q 828 972 801 972 m 838 1165 q 817 1114 838 1138 q 653 1032 736 1032 q 559 1063 621 1032 q 458 1093 497 1093 q 400 1072 432 1093 q 347 1053 368 1053 q 297 1079 319 1053 q 279 1122 279 1099 q 308 1179 279 1153 q 461 1254 392 1254 q 566 1224 508 1254 q 650 1194 624 1194 q 668 1196 660 1194 q 684 1201 676 1197 q 696 1207 692 1204 q 708 1215 700 1210 q 719 1222 717 1221 q 765 1239 744 1239 q 821 1210 794 1239 q 838 1165 838 1192 z "},"Ò":{"ha":1144,"x_min":56,"x_max":1089,"o":"m 56 486 q 199 845 56 701 q 572 989 343 989 q 944 851 799 989 q 1089 486 1089 714 q 942 125 1089 267 q 572 -17 796 -17 q 201 121 346 -17 q 56 486 56 258 m 292 486 q 374 276 292 361 q 572 192 456 192 q 779 274 706 192 q 853 486 853 357 q 772 699 853 617 q 572 781 692 781 q 371 699 450 781 q 292 486 292 618 m 467 1268 l 672 1165 q 710 1103 710 1146 q 704 1074 710 1086 q 633 1028 682 1028 q 611 1031 618 1028 l 393 1100 q 362 1122 374 1106 q 350 1157 350 1138 q 356 1181 350 1167 l 381 1238 q 439 1275 396 1275 q 467 1268 454 1275 z "},"Ó":{"ha":1144,"x_min":56,"x_max":1089,"o":"m 56 486 q 199 845 56 701 q 572 989 343 989 q 944 851 799 989 q 1089 486 1089 714 q 942 125 1089 267 q 572 -17 796 -17 q 201 121 346 -17 q 56 486 56 258 m 292 486 q 374 276 292 361 q 572 192 456 192 q 779 274 706 192 q 853 486 853 357 q 772 699 853 617 q 572 781 692 781 q 371 699 450 781 q 292 486 292 618 m 514 1165 l 719 1268 q 747 1275 732 1275 q 806 1238 790 1275 l 831 1181 q 836 1157 836 1167 q 824 1122 836 1138 q 793 1100 813 1106 l 575 1031 q 550 1026 563 1026 q 482 1068 501 1026 q 475 1100 475 1086 q 514 1165 475 1144 z "},"Ô":{"ha":1144,"x_min":56,"x_max":1089,"o":"m 56 486 q 199 845 56 701 q 572 989 343 989 q 944 851 799 989 q 1089 486 1089 714 q 942 125 1089 267 q 572 -17 796 -17 q 201 121 346 -17 q 56 486 56 258 m 292 486 q 374 276 292 361 q 572 192 456 192 q 779 274 706 192 q 853 486 853 357 q 772 699 853 617 q 572 781 692 781 q 371 699 450 781 q 292 486 292 618 m 572 1096 l 454 1035 q 422 1026 438 1026 q 358 1063 379 1026 q 347 1100 347 1081 q 378 1156 347 1136 l 529 1257 q 572 1269 550 1269 q 615 1257 597 1269 l 774 1158 q 803 1104 803 1139 q 790 1064 803 1083 q 725 1026 765 1026 q 690 1035 707 1026 l 572 1096 z "},"Õ":{"ha":1144,"x_min":56,"x_max":1089,"o":"m 56 486 q 199 845 56 701 q 572 989 343 989 q 944 851 799 989 q 1089 486 1089 714 q 942 125 1089 267 q 572 -17 796 -17 q 201 121 346 -17 q 56 486 56 258 m 292 486 q 374 276 292 361 q 572 192 456 192 q 779 274 706 192 q 853 486 853 357 q 772 699 853 617 q 572 781 692 781 q 371 699 450 781 q 292 486 292 618 m 840 1165 q 819 1114 840 1138 q 656 1032 739 1032 q 562 1063 624 1032 q 461 1093 500 1093 q 403 1072 435 1093 q 350 1053 371 1053 q 300 1079 322 1053 q 282 1122 282 1099 q 311 1179 282 1153 q 464 1254 394 1254 q 569 1224 511 1254 q 653 1194 626 1194 q 671 1196 663 1194 q 687 1201 679 1197 q 699 1207 694 1204 q 711 1215 703 1210 q 722 1222 719 1221 q 768 1239 747 1239 q 824 1210 797 1239 q 840 1165 840 1192 z "},"Ö":{"ha":1144,"x_min":56,"x_max":1089,"o":"m 56 486 q 199 845 56 701 q 572 989 343 989 q 944 851 799 989 q 1089 486 1089 714 q 942 125 1089 267 q 572 -17 796 -17 q 201 121 346 -17 q 56 486 56 258 m 292 486 q 374 276 292 361 q 572 192 456 192 q 779 274 706 192 q 853 486 853 357 q 772 699 853 617 q 572 781 692 781 q 371 699 450 781 q 292 486 292 618 m 274 1163 q 313 1242 274 1213 q 410 1271 351 1271 q 499 1241 461 1271 q 536 1163 536 1211 q 499 1077 536 1108 q 410 1046 461 1046 q 313 1076 351 1046 q 274 1163 274 1107 m 594 1163 q 634 1242 594 1213 q 731 1271 674 1271 q 819 1241 782 1271 q 857 1163 857 1211 q 820 1077 857 1108 q 731 1046 783 1046 q 633 1076 672 1046 q 594 1163 594 1107 z "},"×":{"ha":806,"x_min":133,"x_max":672,"o":"m 186 250 l 153 283 q 133 331 133 303 q 153 378 133 358 l 275 500 l 154 621 q 135 668 135 643 q 154 715 135 696 l 188 749 q 235 768 207 768 q 282 749 264 768 l 403 628 l 524 749 q 571 768 543 768 q 618 749 600 768 l 651 715 q 671 668 671 697 q 651 621 671 640 l 531 500 l 653 378 q 672 331 672 360 q 653 283 672 303 l 619 250 q 572 231 600 231 q 525 250 547 231 l 403 372 l 281 250 q 233 231 261 231 q 186 250 208 231 z "},"Ø":{"ha":1144,"x_min":56,"x_max":1089,"o":"m 147 75 l 133 89 q 113 140 113 110 q 136 197 113 174 q 56 486 56 321 q 199 845 56 701 q 572 989 343 989 q 865 911 738 989 q 917 932 889 932 q 965 911 947 932 l 994 882 q 1011 840 1011 865 q 993 796 1011 814 q 1089 486 1089 669 q 942 125 1089 267 q 572 -17 796 -17 q 256 75 388 -17 q 201 53 233 53 q 147 75 168 53 m 821 629 l 421 238 q 572 192 489 192 q 779 274 706 192 q 853 486 853 357 q 821 629 853 565 m 313 371 l 701 750 q 572 781 640 781 q 371 699 450 781 q 292 486 292 618 q 313 371 292 422 z "},"Ù":{"ha":1043,"x_min":111,"x_max":932,"o":"m 710 446 l 710 908 q 728 953 710 935 q 774 972 747 972 l 868 972 q 913 953 894 972 q 932 908 932 935 l 932 401 q 819 88 932 192 q 535 -17 706 -17 q 226 93 342 -17 q 111 411 111 203 l 111 908 q 130 953 111 935 q 175 972 149 972 l 269 972 q 315 953 296 972 q 333 908 333 935 l 333 458 q 535 192 333 192 q 670 256 631 192 q 710 446 710 321 m 397 1268 l 603 1165 q 640 1103 640 1146 q 635 1074 640 1086 q 564 1028 613 1028 q 542 1031 549 1028 l 324 1100 q 292 1122 304 1106 q 281 1157 281 1138 q 286 1181 281 1167 l 311 1238 q 369 1275 326 1275 q 397 1268 385 1275 z "},"Ú":{"ha":1043,"x_min":111,"x_max":932,"o":"m 710 446 l 710 908 q 728 953 710 935 q 774 972 747 972 l 868 972 q 913 953 894 972 q 932 908 932 935 l 932 401 q 819 88 932 192 q 535 -17 706 -17 q 226 93 342 -17 q 111 411 111 203 l 111 908 q 130 953 111 935 q 175 972 149 972 l 269 972 q 315 953 296 972 q 333 908 333 935 l 333 458 q 535 192 333 192 q 670 256 631 192 q 710 446 710 321 m 458 1165 l 664 1268 q 692 1275 676 1275 q 750 1238 735 1275 l 775 1181 q 781 1157 781 1167 q 769 1122 781 1138 q 738 1100 757 1106 l 519 1031 q 494 1026 507 1026 q 426 1068 446 1026 q 419 1100 419 1086 q 458 1165 419 1144 z "},"Û":{"ha":1043,"x_min":111,"x_max":932,"o":"m 710 446 l 710 908 q 728 953 710 935 q 774 972 747 972 l 868 972 q 913 953 894 972 q 932 908 932 935 l 932 401 q 819 88 932 192 q 535 -17 706 -17 q 226 93 342 -17 q 111 411 111 203 l 111 908 q 130 953 111 935 q 175 972 149 972 l 269 972 q 315 953 296 972 q 333 908 333 935 l 333 458 q 535 192 333 192 q 670 256 631 192 q 710 446 710 321 m 515 1096 l 397 1035 q 365 1026 381 1026 q 301 1063 322 1026 q 290 1100 290 1081 q 321 1156 290 1136 l 472 1257 q 515 1269 493 1269 q 558 1257 539 1269 l 717 1158 q 746 1104 746 1139 q 733 1064 746 1083 q 668 1026 708 1026 q 633 1035 650 1026 l 515 1096 z "},"Ü":{"ha":1043,"x_min":111,"x_max":932,"o":"m 710 446 l 710 908 q 728 953 710 935 q 774 972 747 972 l 868 972 q 913 953 894 972 q 932 908 932 935 l 932 401 q 819 88 932 192 q 535 -17 706 -17 q 226 93 342 -17 q 111 411 111 203 l 111 908 q 130 953 111 935 q 175 972 149 972 l 269 972 q 315 953 296 972 q 333 908 333 935 l 333 458 q 535 192 333 192 q 670 256 631 192 q 710 446 710 321 m 218 1163 q 257 1242 218 1213 q 354 1271 296 1271 q 443 1241 406 1271 q 481 1163 481 1211 q 443 1077 481 1108 q 354 1046 406 1046 q 257 1076 296 1046 q 218 1163 218 1107 m 539 1163 q 578 1242 539 1213 q 675 1271 618 1271 q 764 1241 726 1271 q 801 1163 801 1211 q 765 1077 801 1108 q 675 1046 728 1046 q 578 1076 617 1046 q 539 1163 539 1107 z "},"Ý":{"ha":900,"x_min":49,"x_max":851,"o":"m 274 929 l 458 604 l 640 929 q 713 972 663 972 l 782 972 q 831 951 811 972 q 851 903 851 931 q 842 868 851 883 l 560 396 l 560 64 q 541 19 560 38 q 496 0 522 0 l 401 0 q 356 19 375 0 q 338 64 338 38 l 338 396 l 58 868 q 49 903 49 883 q 69 951 49 931 q 118 972 89 972 l 201 972 q 274 929 251 972 m 385 1165 l 590 1268 q 618 1275 603 1275 q 676 1238 661 1275 l 701 1181 q 707 1157 707 1167 q 695 1122 707 1138 q 664 1100 683 1106 l 446 1031 q 421 1026 433 1026 q 353 1068 372 1026 q 346 1100 346 1086 q 385 1165 346 1144 z "},"Þ":{"ha":871,"x_min":125,"x_max":815,"o":"m 422 836 q 722 745 629 836 q 815 514 815 654 q 717 283 815 378 q 456 188 618 188 q 347 192 382 188 l 347 64 q 328 19 347 38 q 283 0 310 0 l 189 0 q 144 19 163 0 q 125 64 125 38 l 125 908 q 144 953 125 935 q 189 972 163 972 l 283 972 q 328 953 310 972 q 347 908 347 935 l 347 833 q 383 835 353 833 q 422 836 414 836 m 347 622 l 347 403 q 449 396 400 396 q 540 424 501 396 q 579 515 579 451 q 425 628 579 628 q 347 622 386 628 z "},"ß":{"ha":772,"x_min":69,"x_max":744,"o":"m 324 100 l 351 158 q 392 189 365 189 q 409 186 399 189 q 421 183 419 183 q 463 178 444 178 l 474 178 q 508 191 494 178 q 522 232 522 204 q 491 294 522 264 q 423 348 460 325 q 355 413 386 371 q 324 506 324 454 q 348 608 324 563 q 396 686 372 654 q 419 742 419 718 q 401 779 419 764 q 351 794 382 794 q 294 765 311 794 q 278 669 278 735 l 278 53 q 263 15 278 31 q 225 0 247 0 l 122 0 q 85 15 100 0 q 69 53 69 31 l 69 685 q 382 989 69 989 q 567 928 493 989 q 642 782 642 868 q 626 699 642 735 q 594 647 611 664 q 561 604 576 631 q 546 547 546 578 q 566 490 546 515 q 615 444 586 464 q 674 399 644 424 q 724 329 704 374 q 744 225 744 285 q 681 55 744 126 q 517 -17 618 -17 q 343 35 424 -17 q 318 79 318 53 q 324 100 318 86 z "},"à":{"ha":646,"x_min":42,"x_max":583,"o":"m 42 189 q 105 343 42 290 q 267 396 168 396 q 389 361 344 396 l 389 374 q 300 468 389 468 q 197 453 250 468 q 178 450 183 450 q 124 486 136 450 l 106 532 q 101 553 101 542 q 135 603 101 588 q 324 642 225 642 q 523 575 463 642 q 583 376 583 508 l 583 53 q 568 15 583 31 q 531 0 553 0 l 456 0 q 418 16 433 0 q 403 56 403 32 q 239 -8 356 -8 q 97 44 151 -8 q 42 189 42 96 m 389 197 l 389 236 q 310 257 360 257 q 267 244 283 257 q 250 210 250 232 q 267 177 250 189 q 310 165 283 165 q 389 197 365 165 m 357 960 l 425 849 q 436 808 436 829 q 401 743 436 769 q 350 726 378 726 q 289 753 315 726 l 204 844 q 186 890 186 865 q 213 943 186 924 l 261 978 q 301 992 276 992 q 357 960 340 992 z "},"á":{"ha":646,"x_min":42,"x_max":583,"o":"m 42 189 q 105 343 42 290 q 267 396 168 396 q 389 361 344 396 l 389 374 q 300 468 389 468 q 197 453 250 468 q 178 450 183 450 q 124 486 136 450 l 106 532 q 101 553 101 542 q 135 603 101 588 q 324 642 225 642 q 523 575 463 642 q 583 376 583 508 l 583 53 q 568 15 583 31 q 531 0 553 0 l 456 0 q 418 16 433 0 q 403 56 403 32 q 239 -8 356 -8 q 97 44 151 -8 q 42 189 42 96 m 389 197 l 389 236 q 310 257 360 257 q 267 244 283 257 q 250 210 250 232 q 267 177 250 189 q 310 165 283 165 q 389 197 365 165 m 238 849 l 306 963 q 361 994 325 994 q 401 981 386 994 l 447 946 q 474 892 474 925 q 457 847 474 867 l 372 753 q 313 726 349 726 q 263 743 286 726 q 226 810 226 768 q 238 849 226 829 z "},"â":{"ha":646,"x_min":42,"x_max":583,"o":"m 42 189 q 105 343 42 290 q 267 396 168 396 q 389 361 344 396 l 389 374 q 300 468 389 468 q 197 453 250 468 q 178 450 183 450 q 124 486 136 450 l 106 532 q 101 553 101 542 q 135 603 101 588 q 324 642 225 642 q 523 575 463 642 q 583 376 583 508 l 583 53 q 568 15 583 31 q 531 0 553 0 l 456 0 q 418 16 433 0 q 403 56 403 32 q 239 -8 356 -8 q 97 44 151 -8 q 42 189 42 96 m 389 197 l 389 236 q 310 257 360 257 q 267 244 283 257 q 250 210 250 232 q 267 177 250 189 q 310 165 283 165 q 389 197 365 165 m 321 782 l 243 721 q 196 704 222 704 q 136 733 157 704 q 119 781 119 754 q 150 842 119 818 l 261 932 q 322 953 289 953 q 385 931 358 953 l 494 842 q 522 781 522 819 q 506 731 522 751 q 446 701 483 701 q 397 719 417 701 l 321 782 z "},"ã":{"ha":646,"x_min":42,"x_max":583,"o":"m 42 189 q 105 343 42 290 q 267 396 168 396 q 389 361 344 396 l 389 374 q 300 468 389 468 q 197 453 250 468 q 178 450 183 450 q 124 486 136 450 l 106 532 q 101 553 101 542 q 135 603 101 588 q 324 642 225 642 q 523 575 463 642 q 583 376 583 508 l 583 53 q 568 15 583 31 q 531 0 553 0 l 456 0 q 418 16 433 0 q 403 56 403 32 q 239 -8 356 -8 q 97 44 151 -8 q 42 189 42 96 m 389 197 l 389 236 q 310 257 360 257 q 267 244 283 257 q 250 210 250 232 q 267 177 250 189 q 310 165 283 165 q 389 197 365 165 m 574 849 q 547 788 574 814 q 472 731 503 746 q 403 715 440 715 q 315 744 372 715 q 225 772 257 772 q 181 753 210 772 q 131 735 154 735 q 83 757 101 735 q 68 796 68 775 q 96 856 68 828 q 165 908 135 894 q 233 922 194 922 q 324 897 267 922 q 410 871 382 871 q 460 894 422 871 q 508 911 488 911 q 563 882 538 911 q 574 849 574 869 z "},"ä":{"ha":646,"x_min":42,"x_max":583,"o":"m 42 189 q 105 343 42 290 q 267 396 168 396 q 389 361 344 396 l 389 374 q 300 468 389 468 q 197 453 250 468 q 178 450 183 450 q 124 486 136 450 l 106 532 q 101 553 101 542 q 135 603 101 588 q 324 642 225 642 q 523 575 463 642 q 583 376 583 508 l 583 53 q 568 15 583 31 q 531 0 553 0 l 456 0 q 418 16 433 0 q 403 56 403 32 q 239 -8 356 -8 q 97 44 151 -8 q 42 189 42 96 m 389 197 l 389 236 q 310 257 360 257 q 267 244 283 257 q 250 210 250 232 q 267 177 250 189 q 310 165 283 165 q 389 197 365 165 m 207 699 q 126 731 158 699 q 93 818 93 763 q 126 900 93 869 q 207 931 158 931 q 281 900 249 931 q 313 818 313 869 q 281 731 313 763 q 207 699 250 699 m 475 699 q 394 731 426 699 q 361 818 361 763 q 394 900 361 869 q 475 931 428 931 q 549 900 518 931 q 581 818 581 869 q 549 731 581 763 q 475 699 518 699 z "},"å":{"ha":646,"x_min":42,"x_max":583,"o":"m 42 189 q 105 343 42 290 q 267 396 168 396 q 389 361 344 396 l 389 374 q 300 468 389 468 q 197 453 250 468 q 178 450 183 450 q 124 486 136 450 l 106 532 q 101 553 101 542 q 135 603 101 588 q 324 642 225 642 q 523 575 463 642 q 583 376 583 508 l 583 53 q 568 15 583 31 q 531 0 553 0 l 456 0 q 418 16 433 0 q 403 56 403 32 q 239 -8 356 -8 q 97 44 151 -8 q 42 189 42 96 m 389 197 l 389 236 q 310 257 360 257 q 267 244 283 257 q 250 210 250 232 q 267 177 250 189 q 310 165 283 165 q 389 197 365 165 m 339 672 q 203 724 257 672 q 149 849 149 775 q 203 976 149 924 q 339 1028 257 1028 q 477 976 422 1028 q 532 849 532 924 q 477 724 532 775 q 339 672 422 672 m 342 917 q 297 898 314 917 q 281 851 281 879 q 297 803 281 822 q 342 783 314 783 q 384 803 368 783 q 400 851 400 822 q 384 898 400 879 q 342 917 368 917 z "},"æ":{"ha":1031,"x_min":42,"x_max":1003,"o":"m 583 382 l 794 382 q 765 443 790 418 q 689 468 739 468 l 686 468 q 582 410 615 468 q 583 397 582 406 q 583 382 583 388 m 386 193 l 389 236 q 310 257 360 257 q 266 243 282 257 q 250 210 250 229 q 265 179 250 193 q 310 165 279 165 q 386 193 349 165 m 583 224 q 636 176 597 194 q 728 157 675 157 q 840 175 792 157 q 871 181 856 181 q 919 151 906 181 l 942 107 q 947 82 947 96 q 922 36 947 51 q 706 -17 828 -17 q 475 53 564 -17 q 275 -14 381 -14 q 101 41 160 -14 q 42 200 42 96 q 103 342 42 289 q 267 396 165 396 q 336 385 299 396 q 389 361 374 374 q 390 378 390 367 q 367 444 390 419 q 311 469 343 469 q 197 453 256 469 q 178 450 183 450 q 124 486 136 450 l 106 532 q 101 553 101 542 q 135 603 101 588 q 324 642 225 642 q 507 589 446 642 q 700 642 590 642 q 914 559 825 642 q 1003 347 1003 476 q 999 285 1003 310 q 982 256 997 269 q 951 243 967 243 l 583 243 l 583 224 z "},"ç":{"ha":676,"x_min":42,"x_max":635,"o":"m 494 422 q 399 447 444 447 q 305 411 346 447 q 264 313 264 375 q 306 215 264 253 q 401 178 349 178 q 499 208 450 178 q 538 221 517 221 q 581 199 564 221 l 624 142 q 635 108 635 126 q 613 64 635 81 q 422 -15 526 -6 l 422 -36 q 569 -161 569 -49 q 516 -256 569 -221 q 360 -292 463 -292 q 204 -247 275 -292 q 178 -199 178 -231 q 188 -167 178 -182 q 232 -142 204 -142 q 269 -151 253 -142 q 331 -167 306 -167 q 361 -149 361 -167 q 336 -110 361 -139 q 318 -49 318 -87 l 318 -11 q 116 95 190 8 q 42 313 42 182 q 134 547 42 451 q 372 642 226 642 q 590 583 500 642 q 621 535 621 564 q 613 508 621 521 l 572 442 q 525 414 556 414 q 494 422 508 414 z "},"è":{"ha":711,"x_min":42,"x_max":683,"o":"m 632 243 l 257 243 q 403 157 285 157 q 515 175 467 157 q 546 181 531 181 q 594 151 581 181 l 617 107 q 622 82 622 96 q 597 36 622 51 q 381 -17 503 -17 q 134 74 226 -17 q 42 313 42 164 q 135 547 42 453 q 381 642 229 642 q 594 559 506 642 q 683 347 683 476 q 679 285 683 310 q 663 256 678 269 q 632 243 647 243 m 475 382 q 448 442 475 417 q 374 468 421 468 q 250 382 281 468 l 475 382 m 419 960 l 488 849 q 499 808 499 829 q 464 743 499 769 q 413 726 440 726 q 351 753 378 726 l 267 844 q 249 890 249 865 q 275 943 249 924 l 324 978 q 364 992 339 992 q 419 960 403 992 z "},"é":{"ha":711,"x_min":42,"x_max":683,"o":"m 632 243 l 257 243 q 403 157 285 157 q 515 175 467 157 q 546 181 531 181 q 594 151 581 181 l 617 107 q 622 82 622 96 q 597 36 622 51 q 381 -17 503 -17 q 134 74 226 -17 q 42 313 42 164 q 135 547 42 453 q 381 642 229 642 q 594 559 506 642 q 683 347 683 476 q 679 285 683 310 q 663 256 678 269 q 632 243 647 243 m 475 382 q 448 442 475 417 q 374 468 421 468 q 250 382 281 468 l 475 382 m 300 849 l 368 963 q 424 994 388 994 q 464 981 449 994 l 510 946 q 536 892 536 925 q 519 847 536 867 l 435 753 q 375 726 411 726 q 325 743 347 726 q 289 810 289 768 q 300 849 289 829 z "},"ê":{"ha":711,"x_min":42,"x_max":683,"o":"m 632 243 l 257 243 q 403 157 285 157 q 515 175 467 157 q 546 181 531 181 q 594 151 581 181 l 617 107 q 622 82 622 96 q 597 36 622 51 q 381 -17 503 -17 q 134 74 226 -17 q 42 313 42 164 q 135 547 42 453 q 381 642 229 642 q 594 559 506 642 q 683 347 683 476 q 679 285 683 310 q 663 256 678 269 q 632 243 647 243 m 475 382 q 448 442 475 417 q 374 468 421 468 q 250 382 281 468 l 475 382 m 369 782 l 292 721 q 244 704 271 704 q 185 733 206 704 q 168 781 168 754 q 199 842 168 818 l 310 932 q 371 953 336 953 q 433 931 407 953 l 543 842 q 571 781 571 819 q 554 731 571 751 q 494 701 531 701 q 446 719 465 701 l 369 782 z "},"ë":{"ha":711,"x_min":42,"x_max":683,"o":"m 632 243 l 257 243 q 403 157 285 157 q 515 175 467 157 q 546 181 531 181 q 594 151 581 181 l 617 107 q 622 82 622 96 q 597 36 622 51 q 381 -17 503 -17 q 134 74 226 -17 q 42 313 42 164 q 135 547 42 453 q 381 642 229 642 q 594 559 506 642 q 683 347 683 476 q 679 285 683 310 q 663 256 678 269 q 632 243 647 243 m 475 382 q 448 442 475 417 q 374 468 421 468 q 250 382 281 468 l 475 382 m 246 699 q 165 731 197 699 q 132 818 132 763 q 165 900 132 869 q 246 931 197 931 q 319 900 288 931 q 351 818 351 869 q 320 731 351 763 q 246 699 289 699 m 514 699 q 433 731 465 699 q 400 818 400 763 q 433 900 400 869 q 514 931 467 931 q 588 900 557 931 q 619 818 619 869 q 588 731 619 763 q 514 699 557 699 z "},"ì":{"ha":397,"x_min":13,"x_max":303,"o":"m 303 572 l 303 53 q 288 15 303 31 q 250 0 272 0 l 147 0 q 110 15 125 0 q 94 53 94 31 l 94 572 q 110 610 94 594 q 147 625 125 625 l 250 625 q 288 610 272 625 q 303 572 303 594 m 183 960 l 251 849 q 263 808 263 829 q 228 743 263 769 q 176 726 204 726 q 115 753 142 726 l 31 844 q 13 890 13 865 q 39 943 13 924 l 88 978 q 128 992 103 992 q 183 960 167 992 z "},"í":{"ha":397,"x_min":94,"x_max":342,"o":"m 303 572 l 303 53 q 288 15 303 31 q 250 0 272 0 l 147 0 q 110 15 125 0 q 94 53 94 31 l 94 572 q 110 610 94 594 q 147 625 125 625 l 250 625 q 288 610 272 625 q 303 572 303 594 m 106 849 l 174 963 q 229 994 193 994 q 269 981 254 994 l 315 946 q 342 892 342 925 q 325 847 342 867 l 240 753 q 181 726 217 726 q 131 743 153 726 q 94 810 94 768 q 106 849 94 829 z "},"î":{"ha":397,"x_min":-3,"x_max":400,"o":"m 303 572 l 303 53 q 288 15 303 31 q 250 0 272 0 l 147 0 q 110 15 125 0 q 94 53 94 31 l 94 572 q 110 610 94 594 q 147 625 125 625 l 250 625 q 288 610 272 625 q 303 572 303 594 m 199 782 l 121 721 q 74 704 100 704 q 14 733 35 704 q -3 781 -3 754 q 28 842 -3 818 l 139 932 q 200 953 165 953 q 263 931 236 953 l 372 842 q 400 781 400 819 q 383 731 400 751 q 324 701 361 701 q 275 719 294 701 l 199 782 z "},"ï":{"ha":397,"x_min":-44,"x_max":443,"o":"m 303 572 l 303 53 q 288 15 303 31 q 250 0 272 0 l 147 0 q 110 15 125 0 q 94 53 94 31 l 94 572 q 110 610 94 594 q 147 625 125 625 l 250 625 q 288 610 272 625 q 303 572 303 594 m 69 699 q -12 731 21 699 q -44 818 -44 763 q -12 900 -44 869 q 69 931 21 931 q 143 900 111 931 q 175 818 175 869 q 144 731 175 763 q 69 699 113 699 m 338 699 q 256 731 289 699 q 224 818 224 763 q 257 900 224 869 q 338 931 290 931 q 412 900 381 931 q 443 818 443 869 q 412 731 443 763 q 338 699 381 699 z "},"ð":{"ha":778,"x_min":42,"x_max":736,"o":"m 137 76 q 89 123 137 76 q 42 313 42 169 q 137 549 42 456 q 389 642 232 642 q 464 625 428 642 q 419 708 447 665 l 303 672 q 288 669 292 669 q 256 681 271 669 q 236 708 242 692 l 208 792 q 206 807 206 803 q 217 838 206 824 q 244 858 228 853 l 285 871 q 276 878 282 874 q 268 886 271 883 q 250 928 250 903 q 263 964 250 947 l 294 1007 q 340 1029 314 1029 q 372 1019 358 1029 q 492 933 479 946 l 579 961 q 594 964 590 964 q 626 953 611 964 q 646 925 640 942 l 672 842 q 675 826 675 831 q 636 774 675 788 l 622 769 q 736 371 736 574 q 643 85 736 188 q 389 -17 550 -17 q 137 76 232 -17 m 264 313 q 299 216 264 254 q 389 178 335 178 q 481 222 446 178 q 515 344 515 267 q 514 379 515 367 q 389 447 483 447 q 300 410 336 447 q 264 313 264 374 z "},"ñ":{"ha":756,"x_min":76,"x_max":693,"o":"m 285 399 l 285 53 q 269 15 285 31 q 232 0 254 0 l 129 0 q 92 15 107 0 q 76 53 76 31 l 76 572 q 92 610 76 594 q 129 625 107 625 l 238 625 q 271 611 257 625 q 285 578 285 597 q 439 636 349 636 q 693 372 693 636 l 693 53 q 678 15 693 31 q 640 0 663 0 l 538 0 q 500 15 515 0 q 485 53 485 31 l 485 336 q 457 415 485 389 q 382 442 429 442 q 285 399 328 442 m 633 849 q 607 788 633 814 q 531 731 563 746 q 463 715 500 715 q 374 744 432 715 q 285 772 317 772 q 240 753 269 772 q 190 735 214 735 q 143 757 161 735 q 128 796 128 775 q 156 856 128 828 q 224 908 194 894 q 293 922 254 922 q 384 897 326 922 q 469 871 442 871 q 519 894 482 871 q 568 911 547 911 q 622 882 597 911 q 633 849 633 869 z "},"ò":{"ha":778,"x_min":42,"x_max":736,"o":"m 137 76 q 89 123 137 76 q 42 313 42 169 q 137 549 42 456 q 389 642 232 642 q 641 549 546 642 q 736 313 736 456 q 641 76 736 169 q 389 -17 546 -17 q 137 76 232 -17 m 264 313 q 299 216 264 254 q 389 178 335 178 q 478 214 443 178 q 514 313 514 250 q 478 410 514 372 q 389 447 442 447 q 300 410 336 447 q 264 313 264 374 m 401 960 l 469 849 q 481 808 481 829 q 446 743 481 769 q 394 726 424 726 q 333 753 360 726 l 249 844 q 231 890 231 865 q 257 943 231 924 l 306 978 q 346 992 321 992 q 401 960 385 992 z "},"ó":{"ha":778,"x_min":42,"x_max":736,"o":"m 137 76 q 89 123 137 76 q 42 313 42 169 q 137 549 42 456 q 389 642 232 642 q 641 549 546 642 q 736 313 736 456 q 641 76 736 169 q 389 -17 546 -17 q 137 76 232 -17 m 264 313 q 299 216 264 254 q 389 178 335 178 q 478 214 443 178 q 514 313 514 250 q 478 410 514 372 q 389 447 442 447 q 300 410 336 447 q 264 313 264 374 m 310 849 l 378 963 q 433 994 397 994 q 474 981 458 994 l 519 946 q 546 892 546 925 q 529 847 546 867 l 444 753 q 385 726 421 726 q 335 743 358 726 q 299 810 299 768 q 310 849 299 829 z "},"ô":{"ha":778,"x_min":42,"x_max":736,"o":"m 137 76 q 89 123 137 76 q 42 313 42 169 q 137 549 42 456 q 389 642 232 642 q 641 549 546 642 q 736 313 736 456 q 641 76 736 169 q 389 -17 546 -17 q 137 76 232 -17 m 264 313 q 299 216 264 254 q 389 178 335 178 q 478 214 443 178 q 514 313 514 250 q 478 410 514 372 q 389 447 442 447 q 300 410 336 447 q 264 313 264 374 m 392 782 l 314 721 q 267 704 293 704 q 207 733 228 704 q 190 781 190 754 q 221 842 190 818 l 332 932 q 393 953 358 953 q 456 931 429 953 l 565 842 q 593 781 593 819 q 576 731 593 751 q 517 701 553 701 q 468 719 488 701 l 392 782 z "},"õ":{"ha":778,"x_min":42,"x_max":736,"o":"m 137 76 q 89 123 137 76 q 42 313 42 169 q 137 549 42 456 q 389 642 232 642 q 641 549 546 642 q 736 313 736 456 q 641 76 736 169 q 389 -17 546 -17 q 137 76 232 -17 m 264 313 q 299 216 264 254 q 389 178 335 178 q 478 214 443 178 q 514 313 514 250 q 478 410 514 372 q 389 447 442 447 q 300 410 336 447 q 264 313 264 374 m 644 849 q 618 788 644 814 q 542 731 574 746 q 474 715 511 715 q 385 744 443 715 q 296 772 328 772 q 251 753 281 772 q 201 735 225 735 q 154 757 172 735 q 139 796 139 775 q 167 856 139 828 q 235 908 206 894 q 304 922 265 922 q 395 897 338 922 q 481 871 453 871 q 531 894 493 871 q 579 911 558 911 q 633 882 608 911 q 644 849 644 869 z "},"ö":{"ha":778,"x_min":42,"x_max":736,"o":"m 137 76 q 89 123 137 76 q 42 313 42 169 q 137 549 42 456 q 389 642 232 642 q 641 549 546 642 q 736 313 736 456 q 641 76 736 169 q 389 -17 546 -17 q 137 76 232 -17 m 264 313 q 299 216 264 254 q 389 178 335 178 q 478 214 443 178 q 514 313 514 250 q 478 410 514 372 q 389 447 442 447 q 300 410 336 447 q 264 313 264 374 m 271 699 q 190 731 222 699 q 157 818 157 763 q 190 900 157 869 q 271 931 222 931 q 344 900 313 931 q 376 818 376 869 q 345 731 376 763 q 271 699 314 699 m 539 699 q 458 731 490 699 q 425 818 425 763 q 458 900 425 869 q 539 931 492 931 q 613 900 582 931 q 644 818 644 869 q 613 731 644 763 q 539 699 582 699 z "},"÷":{"ha":833,"x_min":88,"x_max":746,"o":"m 296 764 q 328 844 296 810 q 417 879 361 879 q 502 844 469 879 q 535 764 535 808 q 503 677 535 714 q 417 640 471 640 q 328 677 360 640 q 296 764 296 714 m 296 239 q 328 319 296 283 q 417 354 361 354 q 501 318 468 354 q 535 239 535 282 q 503 152 535 189 q 417 115 471 115 q 328 151 360 115 q 296 239 296 188 m 746 524 l 746 476 q 726 430 746 450 q 679 410 706 410 l 154 410 q 108 430 128 410 q 88 476 88 450 l 88 524 q 108 570 88 550 q 154 590 128 590 l 679 590 q 726 570 706 590 q 746 524 746 550 z "},"ø":{"ha":806,"x_min":42,"x_max":764,"o":"m 764 313 q 663 77 764 171 q 403 -17 561 -17 q 182 46 272 -17 q 143 31 164 31 q 94 53 114 31 q 82 88 82 69 q 99 126 82 110 q 42 313 42 204 q 143 548 42 454 q 403 642 244 642 q 617 582 524 642 q 657 597 633 597 q 706 575 688 597 q 718 542 718 561 q 701 506 718 519 q 764 313 764 421 m 535 358 l 343 188 q 403 178 367 178 q 504 214 467 178 q 542 313 542 250 q 535 358 542 335 m 268 275 l 454 439 q 403 447 431 447 q 303 411 342 447 q 264 313 264 375 q 268 275 264 294 z "},"ù":{"ha":736,"x_min":63,"x_max":660,"o":"m 451 235 l 451 572 q 467 610 451 594 q 504 625 482 625 l 607 625 q 644 610 629 625 q 660 572 660 594 l 660 53 q 644 15 660 31 q 607 0 629 0 l 504 0 q 467 17 482 0 q 451 58 451 33 q 272 -17 385 -17 q 124 47 186 -17 q 63 232 63 111 l 63 572 q 78 610 63 594 q 115 625 93 625 l 218 625 q 256 610 240 625 q 271 572 271 594 l 271 276 q 290 206 271 235 q 351 178 310 178 q 451 235 406 178 m 374 960 l 442 849 q 453 808 453 829 q 418 743 453 769 q 367 726 394 726 q 306 753 332 726 l 221 844 q 203 890 203 865 q 229 943 203 924 l 278 978 q 318 992 293 992 q 374 960 357 992 z "},"ú":{"ha":736,"x_min":63,"x_max":660,"o":"m 451 235 l 451 572 q 467 610 451 594 q 504 625 482 625 l 607 625 q 644 610 629 625 q 660 572 660 594 l 660 53 q 644 15 660 31 q 607 0 629 0 l 504 0 q 467 17 482 0 q 451 58 451 33 q 272 -17 385 -17 q 124 47 186 -17 q 63 232 63 111 l 63 572 q 78 610 63 594 q 115 625 93 625 l 218 625 q 256 610 240 625 q 271 572 271 594 l 271 276 q 290 206 271 235 q 351 178 310 178 q 451 235 406 178 m 296 849 l 364 963 q 419 994 383 994 q 460 981 444 994 l 506 946 q 532 892 532 925 q 515 847 532 867 l 431 753 q 371 726 407 726 q 321 743 344 726 q 285 810 285 768 q 296 849 285 829 z "},"û":{"ha":736,"x_min":63,"x_max":660,"o":"m 451 235 l 451 572 q 467 610 451 594 q 504 625 482 625 l 607 625 q 644 610 629 625 q 660 572 660 594 l 660 53 q 644 15 660 31 q 607 0 629 0 l 504 0 q 467 17 482 0 q 451 58 451 33 q 272 -17 385 -17 q 124 47 186 -17 q 63 232 63 111 l 63 572 q 78 610 63 594 q 115 625 93 625 l 218 625 q 256 610 240 625 q 271 572 271 594 l 271 276 q 290 206 271 235 q 351 178 310 178 q 451 235 406 178 m 368 782 l 290 721 q 243 704 269 704 q 183 733 204 704 q 167 781 167 754 q 197 842 167 818 l 308 932 q 369 953 336 953 q 432 931 406 953 l 542 842 q 569 781 569 819 q 553 731 569 751 q 493 701 531 701 q 444 719 464 701 l 368 782 z "},"ü":{"ha":736,"x_min":63,"x_max":660,"o":"m 451 235 l 451 572 q 467 610 451 594 q 504 625 482 625 l 607 625 q 644 610 629 625 q 660 572 660 594 l 660 53 q 644 15 660 31 q 607 0 629 0 l 504 0 q 467 17 482 0 q 451 58 451 33 q 272 -17 385 -17 q 124 47 186 -17 q 63 232 63 111 l 63 572 q 78 610 63 594 q 115 625 93 625 l 218 625 q 256 610 240 625 q 271 572 271 594 l 271 276 q 290 206 271 235 q 351 178 310 178 q 451 235 406 178 m 233 699 q 152 731 185 699 q 119 818 119 763 q 152 900 119 869 q 233 931 185 931 q 307 900 275 931 q 339 818 339 869 q 308 731 339 763 q 233 699 276 699 m 501 699 q 420 731 453 699 q 388 818 388 763 q 421 900 388 869 q 501 931 454 931 q 576 900 544 931 q 607 818 607 869 q 576 731 607 763 q 501 699 544 699 z "},"ý":{"ha":715,"x_min":32,"x_max":683,"o":"m 356 339 q 379 253 364 317 q 394 340 385 308 l 465 585 q 518 625 478 625 l 617 625 q 664 605 644 625 q 683 558 683 585 q 679 535 683 547 l 471 0 q 351 -221 404 -164 q 218 -278 297 -278 q 86 -236 151 -278 q 64 -193 64 -221 q 72 -162 64 -176 l 103 -108 q 122 -83 114 -90 q 149 -75 131 -75 q 175 -81 156 -75 q 208 -86 194 -86 q 263 -33 240 -86 l 276 0 l 38 536 q 32 563 32 547 q 50 606 32 588 q 94 625 68 625 l 207 625 q 264 585 247 625 l 356 339 m 269 849 l 338 963 q 393 994 357 994 q 433 981 418 994 l 479 946 q 506 892 506 925 q 489 847 506 867 l 404 753 q 344 726 381 726 q 294 743 317 726 q 258 810 258 768 q 269 849 258 829 z "},"þ":{"ha":779,"x_min":76,"x_max":738,"o":"m 285 3 l 285 -225 q 269 -262 285 -247 q 232 -278 254 -278 l 129 -278 q 92 -262 107 -278 q 76 -225 76 -247 l 76 919 q 92 957 76 942 q 129 972 107 972 l 232 972 q 269 957 254 972 q 285 919 285 942 l 285 589 q 458 642 356 642 q 660 552 583 642 q 738 322 738 463 q 644 80 738 176 q 401 -17 551 -17 q 285 3 331 -17 m 285 392 l 285 201 q 382 178 325 178 q 481 217 447 178 q 515 318 515 257 q 483 411 515 375 q 393 447 450 447 q 285 392 335 447 z "},"ÿ":{"ha":715,"x_min":32,"x_max":683,"o":"m 356 339 q 379 253 364 317 q 394 340 385 308 l 465 585 q 518 625 478 625 l 617 625 q 664 605 644 625 q 683 558 683 585 q 679 535 683 547 l 471 0 q 351 -221 404 -164 q 218 -278 297 -278 q 86 -236 151 -278 q 64 -193 64 -221 q 72 -162 64 -176 l 103 -108 q 122 -83 114 -90 q 149 -75 131 -75 q 175 -81 156 -75 q 208 -86 194 -86 q 263 -33 240 -86 l 276 0 l 38 536 q 32 563 32 547 q 50 606 32 588 q 94 625 68 625 l 207 625 q 264 585 247 625 l 356 339 m 239 699 q 158 731 190 699 q 125 818 125 763 q 158 900 125 869 q 239 931 190 931 q 313 900 281 931 q 344 818 344 869 q 313 731 344 763 q 239 699 282 699 m 507 699 q 426 731 458 699 q 393 818 393 763 q 426 900 393 869 q 507 931 460 931 q 581 900 550 931 q 613 818 613 869 q 581 731 613 763 q 507 699 550 699 z "},"Ā":{"ha":1001,"x_min":28,"x_max":974,"o":"m 686 204 l 301 204 l 239 46 q 172 0 221 0 l 88 0 q 45 18 63 0 q 28 60 28 36 q 32 83 28 72 l 382 926 q 450 972 403 972 l 551 972 q 619 926 599 972 l 969 83 q 974 60 974 72 q 956 18 974 36 q 914 0 939 0 l 815 0 q 749 46 767 0 l 686 204 m 494 688 l 385 413 l 603 413 l 494 688 m 718 1142 l 718 1108 q 698 1061 718 1081 q 651 1042 678 1042 l 349 1042 q 302 1061 322 1042 q 282 1108 282 1081 l 282 1142 q 302 1189 282 1169 q 349 1208 322 1208 l 651 1208 q 698 1189 678 1208 q 718 1142 718 1169 z "},"ā":{"ha":646,"x_min":42,"x_max":583,"o":"m 42 189 q 105 343 42 290 q 267 396 168 396 q 389 361 344 396 l 389 374 q 300 468 389 468 q 197 453 250 468 q 178 450 183 450 q 124 486 136 450 l 106 532 q 101 553 101 542 q 135 603 101 588 q 324 642 225 642 q 523 575 463 642 q 583 376 583 508 l 583 53 q 568 15 583 31 q 531 0 553 0 l 456 0 q 418 16 433 0 q 403 56 403 32 q 239 -8 356 -8 q 97 44 151 -8 q 42 189 42 96 m 389 197 l 389 236 q 310 257 360 257 q 267 244 283 257 q 250 210 250 232 q 267 177 250 189 q 310 165 283 165 q 389 197 365 165 m 535 822 l 535 789 q 515 742 535 761 q 468 722 494 722 l 193 722 q 147 742 167 722 q 126 789 126 761 l 126 822 q 147 869 126 850 q 193 889 167 889 l 468 889 q 515 869 494 889 q 535 822 535 850 z "},"Ă":{"ha":1001,"x_min":28,"x_max":974,"o":"m 686 204 l 301 204 l 239 46 q 172 0 221 0 l 88 0 q 45 18 63 0 q 28 60 28 36 q 32 83 28 72 l 382 926 q 450 972 403 972 l 551 972 q 619 926 599 972 l 969 83 q 974 60 974 72 q 956 18 974 36 q 914 0 939 0 l 815 0 q 749 46 767 0 l 686 204 m 494 688 l 385 413 l 603 413 l 494 688 m 358 1236 q 508 1194 422 1194 q 658 1236 594 1194 q 711 1256 686 1256 q 764 1232 738 1256 q 786 1179 786 1211 q 771 1136 786 1154 q 508 1014 664 1014 q 246 1136 353 1014 q 231 1179 231 1154 q 253 1232 231 1211 q 306 1256 279 1256 q 358 1236 331 1256 z "},"ă":{"ha":646,"x_min":42,"x_max":583,"o":"m 42 189 q 105 343 42 290 q 267 396 168 396 q 389 361 344 396 l 389 374 q 300 468 389 468 q 197 453 250 468 q 178 450 183 450 q 124 486 136 450 l 106 532 q 101 553 101 542 q 135 603 101 588 q 324 642 225 642 q 523 575 463 642 q 583 376 583 508 l 583 53 q 568 15 583 31 q 531 0 553 0 l 456 0 q 418 16 433 0 q 403 56 403 32 q 239 -8 356 -8 q 97 44 151 -8 q 42 189 42 96 m 389 197 l 389 236 q 310 257 360 257 q 267 244 283 257 q 250 210 250 232 q 267 177 250 189 q 310 165 283 165 q 389 197 365 165 m 221 904 q 319 875 264 875 q 418 904 375 875 q 475 925 449 925 q 525 903 503 925 q 544 856 544 883 q 526 808 544 829 q 319 707 433 707 q 113 808 206 707 q 94 856 94 829 q 114 903 94 883 q 164 925 136 925 q 221 904 190 925 z "},"Ą":{"ha":1001,"x_min":28,"x_max":974,"o":"m 686 204 l 301 204 l 239 46 q 172 0 221 0 l 88 0 q 45 18 63 0 q 28 60 28 36 q 32 83 28 72 l 382 926 q 450 972 403 972 l 551 972 q 619 926 599 972 l 969 83 q 974 60 974 72 q 956 18 974 36 q 914 0 939 0 l 886 0 q 817 -27 844 -3 q 789 -75 789 -51 q 831 -111 789 -111 q 860 -108 843 -111 q 889 -104 878 -104 q 950 -143 932 -104 q 960 -182 960 -164 q 917 -247 960 -221 q 782 -278 860 -278 q 638 -244 694 -278 q 581 -146 581 -211 q 633 -43 581 -85 q 768 18 685 -1 q 749 46 756 29 l 686 204 m 494 688 l 385 413 l 603 413 l 494 688 z "},"ą":{"ha":646,"x_min":42,"x_max":613,"o":"m 42 189 q 105 343 42 290 q 267 396 168 396 q 389 361 344 396 l 389 374 q 300 468 389 468 q 197 453 250 468 q 178 450 183 450 q 124 486 136 450 l 106 532 q 101 553 101 542 q 135 603 101 588 q 324 642 225 642 q 523 575 463 642 q 583 376 583 508 l 583 53 q 568 15 583 31 q 531 0 553 0 l 508 0 q 475 -27 488 -3 q 463 -75 463 -51 q 504 -111 463 -111 q 552 -112 538 -111 q 583 -125 567 -114 q 607 -158 599 -136 q 613 -189 613 -171 q 568 -257 613 -236 q 456 -278 521 -278 q 311 -244 368 -278 q 254 -146 254 -211 q 303 -48 254 -89 q 421 14 351 -7 q 403 56 403 29 q 239 -8 356 -8 q 97 44 151 -8 q 42 189 42 96 m 389 197 l 389 236 q 310 257 360 257 q 267 244 283 257 q 250 210 250 232 q 267 177 250 189 q 310 165 283 165 q 389 197 365 165 z "},"Ć":{"ha":907,"x_min":56,"x_max":878,"o":"m 703 756 q 564 781 639 781 q 369 703 446 781 q 292 486 292 625 q 374 274 292 357 q 586 192 456 192 q 738 229 664 192 q 778 239 757 239 q 835 206 815 239 l 868 153 q 878 118 878 136 q 847 60 878 82 q 565 -17 736 -17 q 197 122 339 -17 q 56 486 56 260 q 189 847 56 706 q 564 989 322 989 q 800 935 692 989 q 833 881 833 919 q 826 850 833 867 l 796 786 q 736 749 779 749 q 703 756 721 749 m 458 1165 l 664 1268 q 692 1275 676 1275 q 750 1238 735 1275 l 775 1181 q 781 1157 781 1167 q 769 1122 781 1138 q 738 1100 757 1106 l 519 1031 q 494 1026 507 1026 q 426 1068 446 1026 q 419 1100 419 1086 q 458 1165 419 1144 z "},"ć":{"ha":676,"x_min":42,"x_max":635,"o":"m 494 422 q 399 447 444 447 q 305 411 346 447 q 264 313 264 375 q 306 215 264 253 q 401 178 349 178 q 499 208 450 178 q 538 221 517 221 q 581 199 564 221 l 624 142 q 635 108 635 126 q 613 64 635 81 q 389 -17 514 -17 q 136 74 231 -17 q 42 313 42 164 q 134 547 42 451 q 372 642 226 642 q 590 583 500 642 q 621 535 621 564 q 613 508 621 521 l 572 442 q 525 414 556 414 q 494 422 508 414 m 286 849 l 354 963 q 410 994 374 994 q 450 981 435 994 l 496 946 q 522 892 522 925 q 506 847 522 867 l 421 753 q 361 726 397 726 q 311 743 333 726 q 275 810 275 768 q 286 849 275 829 z "},"Ĉ":{"ha":907,"x_min":56,"x_max":878,"o":"m 703 756 q 564 781 639 781 q 369 703 446 781 q 292 486 292 625 q 374 274 292 357 q 586 192 456 192 q 738 229 664 192 q 778 239 757 239 q 835 206 815 239 l 868 153 q 878 118 878 136 q 847 60 878 82 q 565 -17 736 -17 q 197 122 339 -17 q 56 486 56 260 q 189 847 56 706 q 564 989 322 989 q 800 935 692 989 q 833 881 833 919 q 826 850 833 867 l 796 786 q 736 749 779 749 q 703 756 721 749 m 531 1096 l 413 1035 q 381 1026 396 1026 q 317 1063 338 1026 q 306 1100 306 1081 q 336 1156 306 1136 l 488 1257 q 531 1269 508 1269 q 574 1257 556 1269 l 732 1158 q 761 1104 761 1139 q 749 1064 761 1083 q 683 1026 724 1026 q 649 1035 665 1026 l 531 1096 z "},"ĉ":{"ha":676,"x_min":42,"x_max":635,"o":"m 494 422 q 399 447 444 447 q 305 411 346 447 q 264 313 264 375 q 306 215 264 253 q 401 178 349 178 q 499 208 450 178 q 538 221 517 221 q 581 199 564 221 l 624 142 q 635 108 635 126 q 613 64 635 81 q 389 -17 514 -17 q 136 74 231 -17 q 42 313 42 164 q 134 547 42 451 q 372 642 226 642 q 590 583 500 642 q 621 535 621 564 q 613 508 621 521 l 572 442 q 525 414 556 414 q 494 422 508 414 m 383 782 l 306 721 q 258 704 285 704 q 199 733 219 704 q 182 781 182 754 q 213 842 182 818 l 324 932 q 385 953 351 953 q 447 931 421 953 l 557 842 q 585 781 585 819 q 568 731 585 751 q 508 701 544 701 q 460 719 479 701 l 383 782 z "},"Ċ":{"ha":907,"x_min":56,"x_max":878,"o":"m 703 756 q 564 781 639 781 q 369 703 446 781 q 292 486 292 625 q 374 274 292 357 q 586 192 456 192 q 738 229 664 192 q 778 239 757 239 q 835 206 815 239 l 868 153 q 878 118 878 136 q 847 60 878 82 q 565 -17 736 -17 q 197 122 339 -17 q 56 486 56 260 q 189 847 56 706 q 564 989 322 989 q 800 935 692 989 q 833 881 833 919 q 826 850 833 867 l 796 786 q 736 749 779 749 q 703 756 721 749 m 394 1174 q 435 1265 394 1231 q 535 1299 476 1299 q 628 1264 589 1299 q 668 1174 668 1229 q 628 1076 668 1113 q 535 1040 589 1040 q 435 1076 475 1040 q 394 1174 394 1111 z "},"ċ":{"ha":676,"x_min":42,"x_max":635,"o":"m 494 422 q 399 447 444 447 q 305 411 346 447 q 264 313 264 375 q 306 215 264 253 q 401 178 349 178 q 499 208 450 178 q 538 221 517 221 q 581 199 564 221 l 624 142 q 635 108 635 126 q 613 64 635 81 q 389 -17 514 -17 q 136 74 231 -17 q 42 313 42 164 q 134 547 42 451 q 372 642 226 642 q 590 583 500 642 q 621 535 621 564 q 613 508 621 521 l 572 442 q 525 414 556 414 q 494 422 508 414 m 250 840 q 287 926 250 894 q 376 958 324 958 q 459 926 424 958 q 494 840 494 893 q 459 748 494 782 q 376 714 424 714 q 286 747 322 714 q 250 840 250 781 z "},"Č":{"ha":907,"x_min":56,"x_max":878,"o":"m 703 756 q 564 781 639 781 q 369 703 446 781 q 292 486 292 625 q 374 274 292 357 q 586 192 456 192 q 738 229 664 192 q 778 239 757 239 q 835 206 815 239 l 868 153 q 878 118 878 136 q 847 60 878 82 q 565 -17 736 -17 q 197 122 339 -17 q 56 486 56 260 q 189 847 56 706 q 564 989 322 989 q 800 935 692 989 q 833 881 833 919 q 826 850 833 867 l 796 786 q 736 749 779 749 q 703 756 721 749 m 538 1193 l 656 1264 q 692 1274 675 1274 q 751 1242 731 1274 q 761 1204 761 1226 q 731 1146 761 1167 l 594 1056 q 536 1039 569 1039 q 476 1056 503 1039 l 338 1143 q 307 1200 307 1163 q 319 1240 307 1221 q 383 1274 342 1274 q 419 1264 404 1274 l 538 1193 z "},"č":{"ha":676,"x_min":42,"x_max":635,"o":"m 494 422 q 399 447 444 447 q 305 411 346 447 q 264 313 264 375 q 306 215 264 253 q 401 178 349 178 q 499 208 450 178 q 538 221 517 221 q 581 199 564 221 l 624 142 q 635 108 635 126 q 613 64 635 81 q 389 -17 514 -17 q 136 74 231 -17 q 42 313 42 164 q 134 547 42 451 q 372 642 226 642 q 590 583 500 642 q 621 535 621 564 q 613 508 621 521 l 572 442 q 525 414 556 414 q 494 422 508 414 m 367 876 l 444 938 q 493 954 465 954 q 553 926 529 954 q 568 879 568 904 q 538 817 568 839 l 426 726 q 365 706 400 706 q 303 728 329 706 l 193 817 q 165 878 165 839 q 182 928 165 907 q 242 957 206 957 q 290 939 271 957 l 367 876 z "},"Ď":{"ha":1033,"x_min":125,"x_max":978,"o":"m 189 972 q 273 974 217 972 q 369 976 329 975 q 432 976 410 976 q 842 840 707 976 q 978 494 978 704 q 833 138 978 279 q 421 -3 688 -3 q 189 0 383 -3 q 144 19 163 0 q 125 65 125 39 l 125 907 q 144 953 125 933 q 189 972 163 972 m 347 764 l 347 208 q 428 206 376 206 q 658 281 574 206 q 742 494 742 357 q 656 697 742 625 q 429 768 569 768 q 347 764 375 768 m 468 1193 l 586 1264 q 622 1274 606 1274 q 682 1242 661 1274 q 692 1204 692 1226 q 661 1146 692 1167 l 525 1056 q 467 1039 500 1039 q 407 1056 433 1039 l 268 1143 q 238 1200 238 1163 q 250 1240 238 1221 q 314 1274 272 1274 q 350 1264 335 1274 l 468 1193 z "},"ď":{"ha":774,"x_min":42,"x_max":982,"o":"m 697 919 l 697 53 q 682 15 697 31 q 644 0 667 0 l 539 0 q 503 15 518 0 q 489 51 489 29 q 331 -11 424 -11 q 120 75 199 -11 q 42 304 42 161 q 138 547 42 453 q 386 642 233 642 q 489 622 447 642 l 489 919 q 504 957 489 942 q 542 972 519 972 l 644 972 q 682 957 667 972 q 697 919 697 942 m 489 229 l 489 421 q 396 447 443 447 q 303 412 342 447 q 264 311 264 376 q 297 217 264 251 q 374 183 331 183 q 489 229 439 183 m 825 676 q 778 692 797 676 q 750 747 750 714 q 764 800 750 774 q 788 906 788 850 q 854 972 788 972 l 939 972 q 970 958 958 972 q 982 929 982 944 q 878 694 982 783 q 825 676 857 676 z "},"Đ":{"ha":1033,"x_min":14,"x_max":978,"o":"m 421 -3 q 189 0 383 -3 q 144 19 163 0 q 125 65 125 39 l 125 386 l 78 386 q 33 405 51 386 q 14 450 14 424 l 14 517 q 33 562 14 543 q 78 581 51 581 l 125 581 l 125 907 q 144 953 125 933 q 189 972 163 972 q 273 974 217 972 q 369 976 329 975 q 432 976 410 976 q 842 840 707 976 q 978 494 978 704 q 833 138 978 279 q 421 -3 688 -3 m 347 386 l 347 208 q 428 206 376 206 q 658 281 574 206 q 742 494 742 357 q 656 697 742 625 q 429 768 569 768 q 347 764 375 768 l 347 581 l 511 581 q 556 562 538 581 q 575 517 575 543 l 575 450 q 556 405 575 424 q 511 386 538 386 l 347 386 z "},"đ":{"ha":774,"x_min":42,"x_max":788,"o":"m 42 304 q 138 547 42 453 q 386 642 233 642 q 489 622 447 642 l 489 704 l 397 704 q 360 719 375 704 q 344 757 344 735 l 344 818 q 360 856 344 840 q 397 871 375 871 l 489 871 l 489 919 q 504 957 489 942 q 542 972 519 972 l 644 972 q 682 957 667 972 q 697 919 697 942 l 697 871 l 735 871 q 772 856 757 871 q 788 818 788 840 l 788 757 q 772 719 788 735 q 735 704 757 704 l 697 704 l 697 53 q 682 15 697 31 q 644 0 667 0 l 539 0 q 503 15 518 0 q 489 51 489 29 q 331 -11 424 -11 q 120 75 199 -11 q 42 304 42 161 m 489 229 l 489 421 q 396 447 443 447 q 303 412 342 447 q 264 311 264 376 q 297 217 264 251 q 374 183 331 183 q 489 229 439 183 z "},"Ē":{"ha":799,"x_min":125,"x_max":715,"o":"m 715 144 l 715 64 q 697 19 715 38 q 651 0 678 0 l 189 0 q 144 19 163 0 q 125 64 125 38 l 125 908 q 144 953 125 935 q 189 972 163 972 l 638 972 q 683 953 664 972 q 701 908 701 935 l 701 828 q 683 783 701 801 q 638 764 664 764 l 347 764 l 347 593 l 596 593 q 641 574 622 593 q 660 529 660 556 l 660 449 q 641 403 660 422 q 596 385 622 385 l 347 385 l 347 208 l 651 208 q 697 190 678 208 q 715 144 715 171 m 631 1142 l 631 1108 q 611 1061 631 1081 q 564 1042 592 1042 l 261 1042 q 214 1061 233 1042 q 194 1108 194 1081 l 194 1142 q 214 1189 194 1169 q 261 1208 233 1208 l 564 1208 q 611 1189 592 1208 q 631 1142 631 1169 z "},"ē":{"ha":711,"x_min":42,"x_max":683,"o":"m 632 243 l 257 243 q 403 157 285 157 q 515 175 467 157 q 546 181 531 181 q 594 151 581 181 l 617 107 q 622 82 622 96 q 597 36 622 51 q 381 -17 503 -17 q 134 74 226 -17 q 42 313 42 164 q 135 547 42 453 q 381 642 229 642 q 594 559 506 642 q 683 347 683 476 q 679 285 683 310 q 663 256 678 269 q 632 243 647 243 m 475 382 q 448 442 475 417 q 374 468 421 468 q 250 382 281 468 l 475 382 m 571 822 l 571 789 q 551 742 571 761 q 504 722 531 722 l 229 722 q 183 742 203 722 q 163 789 163 761 l 163 822 q 183 869 163 850 q 229 889 203 889 l 504 889 q 551 869 531 889 q 571 822 571 850 z "},"Ė":{"ha":799,"x_min":125,"x_max":715,"o":"m 715 144 l 715 64 q 697 19 715 38 q 651 0 678 0 l 189 0 q 144 19 163 0 q 125 64 125 38 l 125 908 q 144 953 125 935 q 189 972 163 972 l 638 972 q 683 953 664 972 q 701 908 701 935 l 701 828 q 683 783 701 801 q 638 764 664 764 l 347 764 l 347 593 l 596 593 q 641 574 622 593 q 660 529 660 556 l 660 449 q 641 403 660 422 q 596 385 622 385 l 347 385 l 347 208 l 651 208 q 697 190 678 208 q 715 144 715 171 m 283 1174 q 324 1265 283 1231 q 424 1299 365 1299 q 517 1264 478 1299 q 557 1174 557 1229 q 517 1076 557 1113 q 424 1040 478 1040 q 324 1076 364 1040 q 283 1174 283 1111 z "},"ė":{"ha":711,"x_min":42,"x_max":683,"o":"m 632 243 l 257 243 q 403 157 285 157 q 515 175 467 157 q 546 181 531 181 q 594 151 581 181 l 617 107 q 622 82 622 96 q 597 36 622 51 q 381 -17 503 -17 q 134 74 226 -17 q 42 313 42 164 q 135 547 42 453 q 381 642 229 642 q 594 559 506 642 q 683 347 683 476 q 679 285 683 310 q 663 256 678 269 q 632 243 647 243 m 475 382 q 448 442 475 417 q 374 468 421 468 q 250 382 281 468 l 475 382 m 250 840 q 287 926 250 894 q 376 958 324 958 q 459 926 424 958 q 494 840 494 893 q 459 748 494 782 q 376 714 424 714 q 286 747 322 714 q 250 840 250 781 z "},"Ę":{"ha":799,"x_min":125,"x_max":715,"o":"m 715 144 l 715 64 q 697 19 715 38 q 651 0 678 0 l 635 0 q 558 -25 589 0 q 528 -75 528 -50 q 569 -111 528 -111 q 599 -108 582 -111 q 628 -104 617 -104 q 689 -143 671 -104 q 699 -182 699 -164 q 656 -247 699 -221 q 521 -278 599 -278 q 376 -244 433 -278 q 319 -146 319 -211 q 447 0 319 -49 l 189 0 q 144 19 163 0 q 125 64 125 38 l 125 908 q 144 953 125 935 q 189 972 163 972 l 638 972 q 683 953 664 972 q 701 908 701 935 l 701 828 q 683 783 701 801 q 638 764 664 764 l 347 764 l 347 593 l 596 593 q 641 574 622 593 q 660 529 660 556 l 660 449 q 641 403 660 422 q 596 385 622 385 l 347 385 l 347 208 l 651 208 q 697 190 678 208 q 715 144 715 171 z "},"ę":{"ha":711,"x_min":42,"x_max":683,"o":"m 632 243 l 257 243 q 403 157 285 157 q 515 175 467 157 q 546 181 531 181 q 594 151 581 181 l 617 107 q 622 82 622 96 q 597 36 622 51 q 432 -15 518 -8 q 386 -75 386 -39 q 428 -111 386 -111 q 476 -112 461 -111 q 506 -125 490 -114 q 531 -158 522 -136 q 536 -189 536 -171 q 492 -257 536 -236 q 379 -278 444 -278 q 235 -244 292 -278 q 178 -146 178 -211 q 290 -7 178 -54 q 108 103 175 18 q 42 313 42 188 q 135 547 42 453 q 381 642 229 642 q 594 559 506 642 q 683 347 683 476 q 679 285 683 310 q 663 256 678 269 q 632 243 647 243 m 475 382 q 448 442 475 417 q 374 468 421 468 q 250 382 281 468 l 475 382 z "},"Ě":{"ha":799,"x_min":125,"x_max":715,"o":"m 715 144 l 715 64 q 697 19 715 38 q 651 0 678 0 l 189 0 q 144 19 163 0 q 125 64 125 38 l 125 908 q 144 953 125 935 q 189 972 163 972 l 638 972 q 683 953 664 972 q 701 908 701 935 l 701 828 q 683 783 701 801 q 638 764 664 764 l 347 764 l 347 593 l 596 593 q 641 574 622 593 q 660 529 660 556 l 660 449 q 641 403 660 422 q 596 385 622 385 l 347 385 l 347 208 l 651 208 q 697 190 678 208 q 715 144 715 171 m 426 1193 l 544 1264 q 581 1274 564 1274 q 640 1242 619 1274 q 650 1204 650 1226 q 619 1146 650 1167 l 483 1056 q 425 1039 458 1039 q 365 1056 392 1039 l 226 1143 q 196 1200 196 1163 q 208 1240 196 1221 q 272 1274 232 1274 q 308 1264 293 1274 l 426 1193 z "},"ě":{"ha":711,"x_min":42,"x_max":683,"o":"m 632 243 l 257 243 q 403 157 285 157 q 515 175 467 157 q 546 181 531 181 q 594 151 581 181 l 617 107 q 622 82 622 96 q 597 36 622 51 q 381 -17 503 -17 q 134 74 226 -17 q 42 313 42 164 q 135 547 42 453 q 381 642 229 642 q 594 559 506 642 q 683 347 683 476 q 679 285 683 310 q 663 256 678 269 q 632 243 647 243 m 475 382 q 448 442 475 417 q 374 468 421 468 q 250 382 281 468 l 475 382 m 381 876 l 458 938 q 507 954 479 954 q 567 926 543 954 q 582 879 582 904 q 551 817 582 839 l 440 726 q 379 706 414 706 q 317 728 343 706 l 207 817 q 179 878 179 839 q 196 928 179 907 q 256 957 219 957 q 304 939 285 957 l 381 876 z "},"Ĝ":{"ha":1010,"x_min":56,"x_max":940,"o":"m 292 486 q 370 272 292 351 q 579 192 449 192 q 667 208 621 192 q 732 240 714 224 l 732 346 l 589 346 q 544 365 563 346 q 525 410 525 383 l 525 490 q 544 535 525 517 q 589 554 563 554 l 876 554 q 922 535 903 554 q 940 490 940 517 l 940 163 q 903 89 940 115 q 748 12 838 40 q 576 -17 658 -17 q 193 119 331 -17 q 56 486 56 256 q 190 845 56 701 q 549 989 325 989 q 814 932 710 989 q 853 872 853 910 q 844 842 853 856 l 807 775 q 749 739 786 739 q 715 747 732 739 q 575 781 646 781 q 370 706 449 781 q 292 486 292 631 m 531 1096 l 413 1035 q 381 1026 396 1026 q 317 1063 338 1026 q 306 1100 306 1081 q 336 1156 306 1136 l 488 1257 q 531 1269 508 1269 q 574 1257 556 1269 l 732 1158 q 761 1104 761 1139 q 749 1064 761 1083 q 683 1026 724 1026 q 649 1035 665 1026 l 531 1096 z "},"ĝ":{"ha":708,"x_min":0,"x_max":708,"o":"m 351 151 q 356 128 351 140 q 578 71 492 124 q 664 -81 664 18 q 571 -236 664 -183 q 332 -289 478 -289 q 92 -237 185 -289 q 0 -81 0 -186 q 56 47 0 -3 q 207 117 111 97 q 199 151 199 133 q 208 188 199 172 q 95 274 136 217 q 54 401 54 332 q 130 571 54 500 q 331 642 206 642 q 490 600 422 642 l 632 629 q 638 630 635 629 q 643 631 642 631 q 677 618 663 631 q 696 588 692 606 l 707 532 q 708 526 707 529 q 708 521 708 522 q 696 487 708 501 q 665 468 683 472 l 600 454 q 607 401 607 424 q 537 241 607 308 q 353 167 467 174 q 351 151 351 161 m 194 -81 q 332 -122 194 -122 q 469 -81 469 -122 q 332 -37 469 -37 q 194 -81 194 -37 m 271 453 q 260 443 271 453 q 249 401 249 432 q 270 352 249 371 q 331 333 292 333 q 390 351 367 333 q 413 401 413 369 q 392 454 413 433 q 331 475 371 475 q 271 453 293 475 m 339 782 l 261 721 q 214 704 240 704 q 154 733 175 704 q 138 781 138 754 q 168 842 138 818 l 279 932 q 340 953 307 953 q 403 931 376 953 l 513 842 q 540 781 540 819 q 524 731 540 751 q 464 701 500 701 q 415 719 435 701 l 339 782 z "},"Ğ":{"ha":1010,"x_min":56,"x_max":940,"o":"m 292 486 q 370 272 292 351 q 579 192 449 192 q 667 208 621 192 q 732 240 714 224 l 732 346 l 589 346 q 544 365 563 346 q 525 410 525 383 l 525 490 q 544 535 525 517 q 589 554 563 554 l 876 554 q 922 535 903 554 q 940 490 940 517 l 940 163 q 903 89 940 115 q 748 12 838 40 q 576 -17 658 -17 q 193 119 331 -17 q 56 486 56 256 q 190 845 56 701 q 549 989 325 989 q 814 932 710 989 q 853 872 853 910 q 844 842 853 856 l 807 775 q 749 739 786 739 q 715 747 732 739 q 575 781 646 781 q 370 706 449 781 q 292 486 292 631 m 419 1236 q 569 1194 483 1194 q 719 1236 656 1194 q 772 1256 747 1256 q 825 1232 799 1256 q 847 1179 847 1211 q 832 1136 847 1154 q 569 1014 725 1014 q 307 1136 414 1014 q 292 1179 292 1154 q 314 1232 292 1211 q 367 1256 340 1256 q 419 1236 392 1256 z "},"ğ":{"ha":708,"x_min":0,"x_max":708,"o":"m 351 151 q 356 128 351 140 q 578 71 492 124 q 664 -81 664 18 q 571 -236 664 -183 q 332 -289 478 -289 q 92 -237 185 -289 q 0 -81 0 -186 q 56 47 0 -3 q 207 117 111 97 q 199 151 199 133 q 208 188 199 172 q 95 274 136 217 q 54 401 54 332 q 130 571 54 500 q 331 642 206 642 q 490 600 422 642 l 632 629 q 638 630 635 629 q 643 631 642 631 q 677 618 663 631 q 696 588 692 606 l 707 532 q 708 526 707 529 q 708 521 708 522 q 696 487 708 501 q 665 468 683 472 l 600 454 q 607 401 607 424 q 537 241 607 308 q 353 167 467 174 q 351 151 351 161 m 194 -81 q 332 -122 194 -122 q 469 -81 469 -122 q 332 -37 469 -37 q 194 -81 194 -37 m 271 453 q 260 443 271 453 q 249 401 249 432 q 270 352 249 371 q 331 333 292 333 q 390 351 367 333 q 413 401 413 369 q 392 454 413 433 q 331 475 371 475 q 271 453 293 475 m 239 904 q 338 875 282 875 q 436 904 392 875 q 493 925 467 925 q 543 903 521 925 q 563 856 563 883 q 544 808 563 829 q 338 707 451 707 q 131 808 224 707 q 113 856 113 829 q 132 903 113 883 q 182 925 154 925 q 239 904 208 925 z "},"Ġ":{"ha":1010,"x_min":56,"x_max":940,"o":"m 292 486 q 370 272 292 351 q 579 192 449 192 q 667 208 621 192 q 732 240 714 224 l 732 346 l 589 346 q 544 365 563 346 q 525 410 525 383 l 525 490 q 544 535 525 517 q 589 554 563 554 l 876 554 q 922 535 903 554 q 940 490 940 517 l 940 163 q 903 89 940 115 q 748 12 838 40 q 576 -17 658 -17 q 193 119 331 -17 q 56 486 56 256 q 190 845 56 701 q 549 989 325 989 q 814 932 710 989 q 853 872 853 910 q 844 842 853 856 l 807 775 q 749 739 786 739 q 715 747 732 739 q 575 781 646 781 q 370 706 449 781 q 292 486 292 631 m 381 1174 q 422 1265 381 1231 q 521 1299 463 1299 q 615 1264 575 1299 q 654 1174 654 1229 q 615 1076 654 1113 q 521 1040 575 1040 q 421 1076 461 1040 q 381 1174 381 1111 z "},"ġ":{"ha":708,"x_min":0,"x_max":708,"o":"m 351 151 q 356 128 351 140 q 578 71 492 124 q 664 -81 664 18 q 571 -236 664 -183 q 332 -289 478 -289 q 92 -237 185 -289 q 0 -81 0 -186 q 56 47 0 -3 q 207 117 111 97 q 199 151 199 133 q 208 188 199 172 q 95 274 136 217 q 54 401 54 332 q 130 571 54 500 q 331 642 206 642 q 490 600 422 642 l 632 629 q 638 630 635 629 q 643 631 642 631 q 677 618 663 631 q 696 588 692 606 l 707 532 q 708 526 707 529 q 708 521 708 522 q 696 487 708 501 q 665 468 683 472 l 600 454 q 607 401 607 424 q 537 241 607 308 q 353 167 467 174 q 351 151 351 161 m 194 -81 q 332 -122 194 -122 q 469 -81 469 -122 q 332 -37 469 -37 q 194 -81 194 -37 m 271 453 q 260 443 271 453 q 249 401 249 432 q 270 352 249 371 q 331 333 292 333 q 390 351 367 333 q 413 401 413 369 q 392 454 413 433 q 331 475 371 475 q 271 453 293 475 m 208 840 q 245 926 208 894 q 335 958 282 958 q 417 926 382 958 q 453 840 453 893 q 417 748 453 782 q 335 714 382 714 q 244 747 281 714 q 208 840 208 781 z "},"Ģ":{"ha":1010,"x_min":56,"x_max":940,"o":"m 292 486 q 370 272 292 351 q 579 192 449 192 q 667 208 621 192 q 732 240 714 224 l 732 346 l 589 346 q 544 365 563 346 q 525 410 525 383 l 525 490 q 544 535 525 517 q 589 554 563 554 l 876 554 q 922 535 903 554 q 940 490 940 517 l 940 163 q 903 89 940 115 q 748 12 838 40 q 576 -17 658 -17 q 193 119 331 -17 q 56 486 56 256 q 190 845 56 701 q 549 989 325 989 q 814 932 710 989 q 853 872 853 910 q 844 842 853 856 l 807 775 q 749 739 786 739 q 715 747 732 739 q 575 781 646 781 q 370 706 449 781 q 292 486 292 631 m 489 -283 q 439 -262 454 -283 q 425 -226 425 -244 q 451 -174 425 -203 q 469 -118 469 -154 q 478 -76 469 -87 q 511 -58 486 -64 l 625 -36 l 632 -36 q 664 -51 650 -36 q 678 -96 678 -65 q 631 -208 678 -160 q 519 -279 585 -257 q 489 -283 507 -283 z "},"ģ":{"ha":708,"x_min":0,"x_max":708,"o":"m 351 151 q 356 128 351 140 q 578 71 492 124 q 664 -81 664 18 q 571 -236 664 -183 q 332 -289 478 -289 q 92 -237 185 -289 q 0 -81 0 -186 q 56 47 0 -3 q 207 117 111 97 q 199 151 199 133 q 208 188 199 172 q 95 274 136 217 q 54 401 54 332 q 130 571 54 500 q 331 642 206 642 q 490 600 422 642 l 632 629 q 638 630 635 629 q 643 631 642 631 q 677 618 663 631 q 696 588 692 606 l 707 532 q 708 526 707 529 q 708 521 708 522 q 696 487 708 501 q 665 468 683 472 l 600 454 q 607 401 607 424 q 537 241 607 308 q 353 167 467 174 q 351 151 351 161 m 194 -81 q 332 -122 194 -122 q 469 -81 469 -122 q 332 -37 469 -37 q 194 -81 194 -37 m 271 453 q 260 443 271 453 q 249 401 249 432 q 270 352 249 371 q 331 333 292 333 q 390 351 367 333 q 413 401 413 369 q 392 454 413 433 q 331 475 371 475 q 271 453 293 475 m 403 974 q 453 953 438 974 q 467 917 467 935 q 440 864 467 893 q 422 808 422 844 q 414 766 422 778 q 381 749 406 754 l 267 726 l 260 726 q 228 741 242 726 q 214 786 214 756 q 260 899 214 850 q 372 969 307 947 q 403 974 385 974 z "},"Ĥ":{"ha":1049,"x_min":125,"x_max":924,"o":"m 924 908 l 924 64 q 905 19 924 38 q 860 0 886 0 l 765 0 q 720 19 739 0 q 701 64 701 38 l 701 392 l 347 392 l 347 64 q 328 19 347 38 q 283 0 310 0 l 189 0 q 144 19 163 0 q 125 64 125 38 l 125 908 q 144 953 125 935 q 189 972 163 972 l 283 972 q 328 953 310 972 q 347 908 347 935 l 347 600 l 701 600 l 701 908 q 720 953 701 935 q 765 972 739 972 l 860 972 q 905 953 886 972 q 924 908 924 935 m 524 1096 l 406 1035 q 374 1026 389 1026 q 310 1063 331 1026 q 299 1100 299 1081 q 329 1156 299 1136 l 481 1257 q 524 1269 501 1269 q 567 1257 547 1269 l 725 1158 q 754 1104 754 1139 q 742 1064 754 1083 q 676 1026 717 1026 q 642 1035 658 1026 l 524 1096 z "},"ĥ":{"ha":756,"x_min":-21,"x_max":693,"o":"m 285 401 l 285 53 q 269 15 285 31 q 232 0 254 0 l 129 0 q 92 15 107 0 q 76 53 76 31 l 76 919 q 92 957 76 942 q 129 972 107 972 l 232 972 q 269 957 254 972 q 285 919 285 942 l 285 582 q 439 636 346 636 q 624 571 556 636 q 693 367 693 506 l 693 53 q 678 15 693 31 q 640 0 663 0 l 538 0 q 500 15 515 0 q 485 53 485 31 l 485 340 q 457 414 485 386 q 385 442 429 442 q 285 401 325 442 m 204 1096 l 86 1035 q 54 1026 69 1026 q -10 1063 11 1026 q -21 1100 -21 1081 q 10 1156 -21 1136 l 161 1257 q 204 1269 182 1269 q 247 1257 228 1269 l 406 1158 q 435 1104 435 1139 q 422 1064 435 1083 q 357 1026 397 1026 q 322 1035 339 1026 l 204 1096 z "},"Ħ":{"ha":1063,"x_min":28,"x_max":1035,"o":"m 290 0 l 196 0 q 151 19 169 0 q 132 64 132 38 l 132 690 l 92 690 q 47 709 65 690 q 28 754 28 728 l 28 821 q 47 866 28 847 q 92 885 65 885 l 132 885 l 132 908 q 151 953 132 935 q 196 972 169 972 l 290 972 q 335 953 317 972 q 354 908 354 935 l 354 885 l 708 885 l 708 908 q 727 953 708 935 q 772 972 746 972 l 867 972 q 912 953 893 972 q 931 908 931 935 l 931 885 l 971 885 q 1016 866 997 885 q 1035 821 1035 847 l 1035 754 q 1016 709 1035 728 q 971 690 997 690 l 931 690 l 931 64 q 912 19 931 38 q 867 0 893 0 l 772 0 q 727 19 746 0 q 708 64 708 38 l 708 392 l 354 392 l 354 64 q 335 19 354 38 q 290 0 317 0 m 708 600 l 708 690 l 354 690 l 354 600 l 708 600 z "},"ħ":{"ha":825,"x_min":14,"x_max":763,"o":"m 301 0 l 199 0 q 161 15 176 0 q 146 53 146 31 l 146 681 l 67 681 q 29 696 44 681 q 14 733 14 711 l 14 822 q 29 860 14 844 q 67 875 44 875 l 146 875 l 146 919 q 161 957 146 942 q 199 972 176 972 l 301 972 q 339 957 324 972 q 354 919 354 942 l 354 875 l 488 875 q 525 860 510 875 q 540 822 540 844 l 540 733 q 525 696 540 711 q 488 681 510 681 l 354 681 l 354 582 q 508 636 415 636 q 694 571 625 636 q 763 367 763 506 l 763 53 q 747 15 763 31 q 710 0 732 0 l 607 0 q 569 15 585 0 q 554 53 554 31 l 554 340 q 526 414 554 386 q 454 442 499 442 q 354 401 394 442 l 354 53 q 339 15 354 31 q 301 0 324 0 z "},"Ī":{"ha":500,"x_min":39,"x_max":475,"o":"m 361 908 l 361 64 q 342 19 361 38 q 297 0 324 0 l 203 0 q 158 19 176 0 q 139 64 139 38 l 139 908 q 158 953 139 935 q 203 972 176 972 l 297 972 q 342 953 324 972 q 361 908 361 935 m 475 1142 l 475 1108 q 456 1061 475 1081 q 408 1042 436 1042 l 106 1042 q 58 1061 78 1042 q 39 1108 39 1081 l 39 1142 q 58 1189 39 1169 q 106 1208 78 1208 l 408 1208 q 456 1189 436 1208 q 475 1142 475 1169 z "},"ī":{"ha":397,"x_min":-6,"x_max":403,"o":"m 303 572 l 303 53 q 288 15 303 31 q 250 0 272 0 l 147 0 q 110 15 125 0 q 94 53 94 31 l 94 572 q 110 610 94 594 q 147 625 125 625 l 250 625 q 288 610 272 625 q 303 572 303 594 m 403 822 l 403 789 q 383 742 403 761 q 336 722 364 722 l 61 722 q 14 742 33 722 q -6 789 -6 761 l -6 822 q 14 869 -6 850 q 61 889 33 889 l 336 889 q 383 869 364 889 q 403 822 403 850 z "},"Į":{"ha":500,"x_min":-33,"x_max":361,"o":"m 361 908 l 361 64 q 342 19 361 38 q 297 0 324 0 l 282 0 q 206 -25 236 0 q 175 -75 175 -50 q 217 -111 175 -111 q 247 -108 229 -111 q 275 -104 264 -104 q 336 -143 318 -104 q 346 -182 346 -164 q 303 -247 346 -221 q 168 -278 246 -278 q 24 -244 81 -278 q -33 -146 -33 -211 q 19 -42 -33 -83 q 157 18 72 0 q 139 64 139 39 l 139 908 q 158 953 139 935 q 203 972 176 972 l 297 972 q 342 953 324 972 q 361 908 361 935 z "},"į":{"ha":397,"x_min":-79,"x_max":321,"o":"m 303 572 l 303 53 q 288 15 303 31 q 250 0 272 0 l 226 0 q 157 -27 185 -3 q 129 -75 129 -51 q 171 -111 129 -111 q 219 -112 204 -111 q 249 -125 233 -114 q 274 -158 265 -136 q 279 -189 279 -171 q 235 -257 279 -236 q 122 -278 188 -278 q -22 -244 35 -278 q -79 -146 -79 -211 q -27 -44 -79 -85 q 108 17 25 -3 q 94 53 94 31 l 94 572 q 110 610 94 594 q 147 625 125 625 l 250 625 q 288 610 272 625 q 303 572 303 594 m 76 840 q 113 926 76 894 q 203 958 150 958 q 285 926 250 958 q 321 840 321 893 q 285 748 321 782 q 203 714 250 714 q 113 747 149 714 q 76 840 76 781 z "},"İ":{"ha":500,"x_min":114,"x_max":388,"o":"m 361 908 l 361 64 q 342 19 361 38 q 297 0 324 0 l 203 0 q 158 19 176 0 q 139 64 139 38 l 139 908 q 158 953 139 935 q 203 972 176 972 l 297 972 q 342 953 324 972 q 361 908 361 935 m 114 1174 q 155 1265 114 1231 q 254 1299 196 1299 q 348 1264 308 1299 q 388 1174 388 1229 q 348 1076 388 1113 q 254 1040 308 1040 q 154 1076 194 1040 q 114 1174 114 1111 z "},"ı":{"ha":397,"x_min":94,"x_max":303,"o":"m 303 572 l 303 53 q 288 15 303 31 q 250 0 272 0 l 147 0 q 110 15 125 0 q 94 53 94 31 l 94 572 q 110 610 94 594 q 147 625 125 625 l 250 625 q 288 610 272 625 q 303 572 303 594 z "},"Ĵ":{"ha":565,"x_min":-4,"x_max":557,"o":"m 218 278 l 218 908 q 237 953 218 935 q 282 972 256 972 l 376 972 q 422 953 403 972 q 440 908 440 935 l 440 238 q 374 49 440 114 q 183 -17 307 -17 q 32 18 101 -17 q -4 71 -4 36 q 4 104 -4 86 l 29 161 q 83 200 47 200 q 115 196 99 200 q 146 192 131 192 l 153 192 q 201 214 183 192 q 218 278 218 236 m 326 1096 l 208 1035 q 176 1026 192 1026 q 113 1063 133 1026 q 101 1100 101 1081 q 132 1156 101 1136 l 283 1257 q 326 1269 304 1269 q 369 1257 350 1269 l 528 1158 q 557 1104 557 1139 q 544 1064 557 1083 q 479 1026 519 1026 q 444 1035 461 1026 l 326 1096 z "},"ĵ":{"ha":394,"x_min":-42,"x_max":415,"o":"m 110 -26 l 110 572 q 125 610 110 594 q 163 625 140 625 l 265 625 q 303 610 288 625 q 318 572 318 594 l 318 -46 q 122 -289 318 -289 q -7 -267 54 -289 q -42 -218 -42 -256 q -39 -200 -42 -214 l -15 -126 q 29 -92 -4 -92 q 46 -93 40 -92 q 71 -96 60 -96 q 110 -26 110 -96 m 214 782 l 136 721 q 89 704 115 704 q 29 733 50 704 q 13 781 13 754 q 43 842 13 818 l 154 932 q 215 953 181 953 q 278 931 251 953 l 388 842 q 415 781 415 819 q 399 731 415 751 q 339 701 375 701 q 290 719 310 701 l 214 782 z "},"Ķ":{"ha":956,"x_min":125,"x_max":899,"o":"m 347 463 l 347 64 q 328 19 347 38 q 283 0 310 0 l 189 0 q 144 19 163 0 q 125 64 125 38 l 125 908 q 144 953 125 935 q 189 972 163 972 l 283 972 q 328 953 310 972 q 347 908 347 935 l 347 549 l 636 933 q 714 972 665 972 l 806 972 q 849 954 832 972 q 867 913 867 936 q 853 874 867 892 l 567 524 l 885 101 q 899 63 899 83 q 881 19 899 38 q 835 0 863 0 l 728 0 q 650 40 679 0 l 347 463 m 406 -283 q 356 -262 371 -283 q 342 -226 342 -244 q 368 -174 342 -203 q 386 -118 386 -154 q 394 -76 386 -87 q 428 -58 403 -64 l 542 -36 l 549 -36 q 581 -51 567 -36 q 594 -96 594 -65 q 548 -208 594 -160 q 436 -279 501 -257 q 406 -283 424 -283 z "},"ķ":{"ha":742,"x_min":76,"x_max":696,"o":"m 285 299 l 285 53 q 269 15 285 31 q 232 0 254 0 l 129 0 q 92 15 107 0 q 76 53 76 31 l 76 919 q 92 957 76 942 q 129 972 107 972 l 232 972 q 269 957 254 972 q 285 919 285 942 l 285 354 l 433 589 q 497 625 456 625 l 610 625 q 649 608 633 625 q 665 571 665 592 q 654 539 665 554 l 514 343 l 686 88 q 696 56 696 74 q 680 17 696 33 q 639 0 664 0 l 521 0 q 456 36 478 0 l 285 299 m 276 -283 q 226 -262 242 -283 q 213 -226 213 -244 q 239 -174 213 -203 q 257 -118 257 -154 q 265 -76 257 -87 q 299 -58 274 -64 l 413 -36 l 419 -36 q 451 -51 438 -36 q 465 -96 465 -65 q 419 -208 465 -160 q 307 -279 372 -257 q 276 -283 294 -283 z "},"Ĺ":{"ha":757,"x_min":125,"x_max":743,"o":"m 743 144 l 743 64 q 724 19 743 38 q 679 0 706 0 l 189 0 q 144 19 163 0 q 125 64 125 38 l 125 908 q 144 953 125 935 q 189 972 163 972 l 283 972 q 328 953 310 972 q 347 908 347 935 l 347 208 l 679 208 q 724 190 706 208 q 743 144 743 171 m 306 1165 l 511 1268 q 539 1275 524 1275 q 597 1238 582 1275 l 622 1181 q 628 1157 628 1167 q 616 1122 628 1138 q 585 1100 604 1106 l 367 1031 q 342 1026 354 1026 q 274 1068 293 1026 q 267 1100 267 1086 q 306 1165 267 1144 z "},"ĺ":{"ha":429,"x_min":76,"x_max":482,"o":"m 76 179 l 76 919 q 92 957 76 942 q 129 972 107 972 l 232 972 q 269 957 254 972 q 285 919 285 942 l 285 258 q 292 196 285 214 q 324 178 300 178 q 339 178 326 178 q 361 179 351 179 q 404 146 393 179 l 424 85 q 426 64 426 76 q 389 14 426 28 q 240 -17 311 -17 q 76 179 76 -17 m 160 1165 l 365 1268 q 393 1275 378 1275 q 451 1238 436 1275 l 476 1181 q 482 1157 482 1167 q 470 1122 482 1138 q 439 1100 458 1106 l 221 1031 q 196 1026 208 1026 q 128 1068 147 1026 q 121 1100 121 1086 q 160 1165 121 1144 z "},"Ļ":{"ha":757,"x_min":125,"x_max":743,"o":"m 743 144 l 743 64 q 724 19 743 38 q 679 0 706 0 l 189 0 q 144 19 163 0 q 125 64 125 38 l 125 908 q 144 953 125 935 q 189 972 163 972 l 283 972 q 328 953 310 972 q 347 908 347 935 l 347 208 l 679 208 q 724 190 706 208 q 743 144 743 171 m 350 -283 q 300 -262 315 -283 q 286 -226 286 -244 q 313 -174 286 -203 q 331 -118 331 -154 q 339 -76 331 -87 q 372 -58 347 -64 l 486 -36 l 493 -36 q 525 -51 511 -36 q 539 -96 539 -65 q 492 -208 539 -160 q 381 -279 446 -257 q 350 -283 368 -283 z "},"ļ":{"ha":429,"x_min":76,"x_max":426,"o":"m 76 179 l 76 919 q 92 957 76 942 q 129 972 107 972 l 232 972 q 269 957 254 972 q 285 919 285 942 l 285 258 q 292 196 285 214 q 324 178 300 178 q 339 178 326 178 q 361 179 351 179 q 404 146 393 179 l 424 85 q 426 64 426 76 q 389 14 426 28 q 240 -17 311 -17 q 76 179 76 -17 m 176 -283 q 126 -262 142 -283 q 113 -226 113 -244 q 139 -174 113 -203 q 157 -118 157 -154 q 165 -76 157 -87 q 199 -58 174 -64 l 313 -36 l 319 -36 q 351 -51 338 -36 q 365 -96 365 -65 q 319 -208 365 -160 q 207 -279 272 -257 q 176 -283 194 -283 z "},"Ľ":{"ha":757,"x_min":125,"x_max":743,"o":"m 743 144 l 743 64 q 724 19 743 38 q 679 0 706 0 l 189 0 q 144 19 163 0 q 125 64 125 38 l 125 908 q 144 953 125 935 q 189 972 163 972 l 283 972 q 328 953 310 972 q 347 908 347 935 l 347 208 l 679 208 q 724 190 706 208 q 743 144 743 171 m 547 676 q 500 692 519 676 q 472 747 472 714 q 486 800 472 774 q 510 906 510 850 q 576 972 510 972 l 661 972 q 692 958 681 972 q 704 929 704 944 q 600 694 704 783 q 547 676 579 676 z "},"ľ":{"ha":429,"x_min":76,"x_max":579,"o":"m 76 179 l 76 919 q 92 957 76 942 q 129 972 107 972 l 232 972 q 269 957 254 972 q 285 919 285 942 l 285 258 q 292 196 285 214 q 324 178 300 178 q 339 178 326 178 q 361 179 351 179 q 404 146 393 179 l 424 85 q 426 64 426 76 q 389 14 426 28 q 240 -17 311 -17 q 76 179 76 -17 m 422 676 q 375 692 394 676 q 347 747 347 714 q 361 800 347 774 q 385 906 385 850 q 451 972 385 972 l 536 972 q 567 958 556 972 q 579 929 579 944 q 475 694 579 783 q 422 676 454 676 z "},"Ŀ":{"ha":757,"x_min":125,"x_max":750,"o":"m 743 144 l 743 64 q 724 19 743 38 q 679 0 706 0 l 189 0 q 144 19 163 0 q 125 64 125 38 l 125 908 q 144 953 125 935 q 189 972 163 972 l 283 972 q 328 953 310 972 q 347 908 347 935 l 347 208 l 679 208 q 724 190 706 208 q 743 144 743 171 m 478 522 q 517 613 478 572 q 619 653 556 653 q 713 613 675 653 q 750 522 750 572 q 713 423 750 465 q 619 381 676 381 q 517 422 556 381 q 478 522 478 464 z "},"ŀ":{"ha":524,"x_min":76,"x_max":565,"o":"m 76 179 l 76 919 q 92 957 76 942 q 129 972 107 972 l 232 972 q 269 957 254 972 q 285 919 285 942 l 285 258 q 292 196 285 214 q 324 178 300 178 q 339 178 326 178 q 361 179 351 179 q 404 146 393 179 l 424 85 q 426 64 426 76 q 389 14 426 28 q 240 -17 311 -17 q 76 179 76 -17 m 321 486 q 358 572 321 540 q 447 604 394 604 q 530 572 494 604 q 565 486 565 539 q 530 394 565 428 q 447 360 494 360 q 357 393 393 360 q 321 486 321 426 z "},"Ł":{"ha":760,"x_min":3,"x_max":757,"o":"m 693 0 l 203 0 q 158 19 176 0 q 139 64 139 38 l 139 315 l 121 306 q 93 300 110 300 q 35 336 51 300 l 8 390 q 3 418 3 401 q 39 476 3 460 l 139 525 l 139 908 q 158 953 139 935 q 203 972 176 972 l 297 972 q 342 953 324 972 q 361 908 361 935 l 361 624 l 479 675 q 506 681 490 681 q 564 643 549 681 l 590 585 q 596 558 596 574 q 558 500 596 515 l 361 410 l 361 208 l 693 208 q 738 190 719 208 q 757 144 757 171 l 757 64 q 738 19 757 38 q 693 0 719 0 z "},"ł":{"ha":471,"x_min":-19,"x_max":458,"o":"m 106 179 l 106 292 l 92 286 q 69 281 78 281 q 21 313 36 281 l -14 393 q -19 415 -19 407 q 13 464 -19 447 l 106 506 l 106 919 q 121 957 106 942 q 158 972 136 972 l 261 972 q 299 957 283 972 q 314 919 314 942 l 314 597 l 350 613 q 371 617 361 617 q 419 585 406 617 l 454 504 q 458 483 458 494 q 426 435 458 449 l 314 385 l 314 258 q 322 196 314 214 q 353 178 329 178 q 368 178 356 178 q 390 179 381 179 q 433 146 422 179 l 453 85 q 456 64 456 76 q 418 14 456 28 q 269 -17 340 -17 q 106 179 106 -17 z "},"Ń":{"ha":1097,"x_min":125,"x_max":972,"o":"m 828 972 l 908 972 q 953 953 935 972 q 972 908 972 935 l 972 64 q 953 19 972 38 q 908 0 935 0 l 843 0 q 764 39 793 0 l 333 583 l 333 64 q 315 19 333 38 q 269 0 296 0 l 189 0 q 144 19 163 0 q 125 64 125 38 l 125 908 q 144 953 125 935 q 189 972 163 972 l 254 972 q 333 933 304 972 l 764 386 l 764 908 q 783 953 764 935 q 828 972 801 972 m 486 1165 l 692 1268 q 719 1275 704 1275 q 778 1238 763 1275 l 803 1181 q 808 1157 808 1167 q 797 1122 808 1138 q 765 1100 785 1106 l 547 1031 q 522 1026 535 1026 q 454 1068 474 1026 q 447 1100 447 1086 q 486 1165 447 1144 z "},"ń":{"ha":756,"x_min":76,"x_max":693,"o":"m 285 399 l 285 53 q 269 15 285 31 q 232 0 254 0 l 129 0 q 92 15 107 0 q 76 53 76 31 l 76 572 q 92 610 76 594 q 129 625 107 625 l 238 625 q 271 611 257 625 q 285 578 285 597 q 439 636 349 636 q 693 372 693 636 l 693 53 q 678 15 693 31 q 640 0 663 0 l 538 0 q 500 15 515 0 q 485 53 485 31 l 485 336 q 457 415 485 389 q 382 442 429 442 q 285 399 328 442 m 313 849 l 381 963 q 436 994 400 994 q 476 981 461 994 l 522 946 q 549 892 549 925 q 532 847 549 867 l 447 753 q 388 726 424 726 q 338 743 361 726 q 301 810 301 768 q 313 849 301 829 z "},"Ņ":{"ha":1097,"x_min":125,"x_max":972,"o":"m 828 972 l 908 972 q 953 953 935 972 q 972 908 972 935 l 972 64 q 953 19 972 38 q 908 0 935 0 l 843 0 q 764 39 793 0 l 333 583 l 333 64 q 315 19 333 38 q 269 0 296 0 l 189 0 q 144 19 163 0 q 125 64 125 38 l 125 908 q 144 953 125 935 q 189 972 163 972 l 254 972 q 333 933 304 972 l 764 386 l 764 908 q 783 953 764 935 q 828 972 801 972 m 475 -283 q 425 -262 440 -283 q 411 -226 411 -244 q 438 -174 411 -203 q 456 -118 456 -154 q 464 -76 456 -87 q 497 -58 472 -64 l 611 -36 l 618 -36 q 650 -51 636 -36 q 664 -96 664 -65 q 617 -208 664 -160 q 506 -279 571 -257 q 475 -283 493 -283 z "},"ņ":{"ha":756,"x_min":76,"x_max":693,"o":"m 285 399 l 285 53 q 269 15 285 31 q 232 0 254 0 l 129 0 q 92 15 107 0 q 76 53 76 31 l 76 572 q 92 610 76 594 q 129 625 107 625 l 238 625 q 271 611 257 625 q 285 578 285 597 q 439 636 349 636 q 693 372 693 636 l 693 53 q 678 15 693 31 q 640 0 663 0 l 538 0 q 500 15 515 0 q 485 53 485 31 l 485 336 q 457 415 485 389 q 382 442 429 442 q 285 399 328 442 m 296 -283 q 246 -262 261 -283 q 232 -226 232 -244 q 258 -174 232 -203 q 276 -118 276 -154 q 285 -76 276 -87 q 318 -58 293 -64 l 432 -36 l 439 -36 q 471 -51 457 -36 q 485 -96 485 -65 q 438 -208 485 -160 q 326 -279 392 -257 q 296 -283 314 -283 z "},"Ň":{"ha":1097,"x_min":125,"x_max":972,"o":"m 828 972 l 908 972 q 953 953 935 972 q 972 908 972 935 l 972 64 q 953 19 972 38 q 908 0 935 0 l 843 0 q 764 39 793 0 l 333 583 l 333 64 q 315 19 333 38 q 269 0 296 0 l 189 0 q 144 19 163 0 q 125 64 125 38 l 125 908 q 144 953 125 935 q 189 972 163 972 l 254 972 q 333 933 304 972 l 764 386 l 764 908 q 783 953 764 935 q 828 972 801 972 m 554 1193 l 672 1264 q 708 1274 692 1274 q 768 1242 747 1274 q 778 1204 778 1226 q 747 1146 778 1167 l 611 1056 q 553 1039 586 1039 q 493 1056 519 1039 l 354 1143 q 324 1200 324 1163 q 336 1240 324 1221 q 400 1274 358 1274 q 436 1264 421 1274 l 554 1193 z "},"ň":{"ha":756,"x_min":76,"x_max":693,"o":"m 285 399 l 285 53 q 269 15 285 31 q 232 0 254 0 l 129 0 q 92 15 107 0 q 76 53 76 31 l 76 572 q 92 610 76 594 q 129 625 107 625 l 238 625 q 271 611 257 625 q 285 578 285 597 q 439 636 349 636 q 693 372 693 636 l 693 53 q 678 15 693 31 q 640 0 663 0 l 538 0 q 500 15 515 0 q 485 53 485 31 l 485 336 q 457 415 485 389 q 382 442 429 442 q 285 399 328 442 m 378 876 l 456 938 q 504 954 476 954 q 564 926 540 954 q 579 879 579 904 q 549 817 579 839 l 438 726 q 376 706 411 706 q 314 728 340 706 l 204 817 q 176 878 176 839 q 193 928 176 907 q 253 957 215 957 q 301 939 282 957 l 378 876 z "},"Ō":{"ha":1144,"x_min":56,"x_max":1089,"o":"m 56 486 q 199 845 56 701 q 572 989 343 989 q 944 851 799 989 q 1089 486 1089 714 q 942 125 1089 267 q 572 -17 796 -17 q 201 121 346 -17 q 56 486 56 258 m 292 486 q 374 276 292 361 q 572 192 456 192 q 779 274 706 192 q 853 486 853 357 q 772 699 853 617 q 572 781 692 781 q 371 699 450 781 q 292 486 292 618 m 804 1142 l 804 1108 q 784 1061 804 1081 q 738 1042 764 1042 l 435 1042 q 388 1061 408 1042 q 368 1108 368 1081 l 368 1142 q 388 1189 368 1169 q 435 1208 408 1208 l 738 1208 q 784 1189 764 1208 q 804 1142 804 1169 z "},"ō":{"ha":778,"x_min":42,"x_max":736,"o":"m 137 76 q 89 123 137 76 q 42 313 42 169 q 137 549 42 456 q 389 642 232 642 q 641 549 546 642 q 736 313 736 456 q 641 76 736 169 q 389 -17 546 -17 q 137 76 232 -17 m 264 313 q 299 216 264 254 q 389 178 335 178 q 478 214 443 178 q 514 313 514 250 q 478 410 514 372 q 389 447 442 447 q 300 410 336 447 q 264 313 264 374 m 607 822 l 607 789 q 587 742 607 761 q 540 722 567 722 l 265 722 q 219 742 239 722 q 199 789 199 761 l 199 822 q 219 869 199 850 q 265 889 239 889 l 540 889 q 587 869 567 889 q 607 822 607 850 z "},"Ő":{"ha":1144,"x_min":56,"x_max":1089,"o":"m 56 486 q 199 845 56 701 q 572 989 343 989 q 944 851 799 989 q 1089 486 1089 714 q 942 125 1089 267 q 572 -17 796 -17 q 201 121 346 -17 q 56 486 56 258 m 292 486 q 374 276 292 361 q 572 192 456 192 q 779 274 706 192 q 853 486 853 357 q 772 699 853 617 q 572 781 692 781 q 371 699 450 781 q 292 486 292 618 m 642 1139 l 774 1258 q 819 1275 792 1275 q 863 1258 844 1275 l 921 1208 q 935 1176 935 1196 q 913 1139 935 1151 l 735 1040 q 690 1028 710 1028 q 638 1051 657 1028 q 622 1093 622 1069 q 642 1139 622 1119 m 372 1142 l 446 1249 q 503 1279 465 1279 q 533 1272 517 1279 l 606 1235 q 628 1200 628 1225 q 614 1169 628 1182 l 474 1050 q 429 1035 457 1035 q 381 1053 403 1035 q 360 1101 360 1074 q 372 1142 360 1122 z "},"ő":{"ha":778,"x_min":42,"x_max":736,"o":"m 137 76 q 89 123 137 76 q 42 313 42 169 q 137 549 42 456 q 389 642 232 642 q 641 549 546 642 q 736 313 736 456 q 641 76 736 169 q 389 -17 546 -17 q 137 76 232 -17 m 264 313 q 299 216 264 254 q 389 178 335 178 q 478 214 443 178 q 514 313 514 250 q 478 410 514 372 q 389 447 442 447 q 300 410 336 447 q 264 313 264 374 m 439 847 l 514 947 q 574 978 536 978 q 618 963 599 978 l 653 938 q 678 885 678 919 q 658 839 678 857 l 572 751 q 503 722 540 722 q 454 739 475 722 q 425 801 425 761 q 439 847 425 828 m 194 851 l 257 963 q 315 996 274 996 q 354 983 336 996 l 382 961 q 413 900 413 939 q 399 856 413 875 l 326 760 q 264 731 303 731 q 215 744 235 731 q 183 808 183 768 q 194 851 183 829 z "},"Œ":{"ha":1436,"x_min":56,"x_max":1353,"o":"m 1353 144 l 1353 64 q 1334 19 1353 38 q 1289 0 1315 0 l 781 0 q 763 19 763 0 q 565 -17 668 -17 q 197 122 339 -17 q 56 486 56 260 q 189 847 56 706 q 564 989 322 989 q 763 951 669 989 q 769 966 763 960 q 783 972 775 972 l 1275 972 q 1320 953 1301 972 q 1339 908 1339 935 l 1339 828 q 1320 783 1339 801 q 1275 764 1301 764 l 985 764 l 985 593 l 1233 593 q 1278 574 1260 593 q 1297 529 1297 556 l 1297 449 q 1278 403 1297 422 q 1233 385 1260 385 l 985 385 l 985 208 l 1289 208 q 1334 190 1315 208 q 1353 144 1353 171 m 763 239 l 763 721 q 564 781 664 781 q 369 703 446 781 q 292 486 292 625 q 374 274 292 357 q 586 192 456 192 q 763 239 678 192 z "},"œ":{"ha":1150,"x_min":42,"x_max":1122,"o":"m 481 313 q 493 410 481 364 q 389 447 450 447 q 300 410 336 447 q 264 313 264 374 q 299 216 264 254 q 389 178 335 178 q 492 217 453 178 q 481 313 481 256 m 914 382 q 887 442 914 417 q 813 468 860 468 q 689 382 719 468 l 914 382 m 1036 36 q 819 -17 942 -17 q 606 46 692 -17 q 389 -17 517 -17 q 137 76 232 -17 q 42 313 42 169 q 137 549 42 456 q 389 642 232 642 q 608 576 519 642 q 819 642 699 642 q 1033 559 944 642 q 1122 347 1122 476 q 1118 285 1122 310 q 1101 256 1117 269 q 1071 243 1086 243 l 696 243 q 842 157 724 157 q 954 175 906 157 q 985 181 969 181 q 1033 151 1019 181 l 1056 107 q 1061 82 1061 96 q 1036 36 1061 51 z "},"Ŕ":{"ha":929,"x_min":125,"x_max":878,"o":"m 638 40 l 429 340 l 347 340 l 347 64 q 328 19 347 38 q 283 0 310 0 l 189 0 q 144 19 163 0 q 125 64 125 38 l 125 908 q 144 953 125 935 q 189 972 163 972 q 456 975 378 975 q 730 892 644 975 q 815 664 815 808 q 651 383 815 465 l 865 94 q 878 60 878 78 q 860 18 878 36 q 817 0 843 0 l 714 0 q 638 40 664 0 m 347 549 l 428 549 q 579 661 579 549 q 444 767 579 767 q 347 764 439 767 l 347 549 m 347 1165 l 553 1268 q 581 1275 565 1275 q 639 1238 624 1275 l 664 1181 q 669 1157 669 1167 q 658 1122 669 1138 q 626 1100 646 1106 l 408 1031 q 383 1026 396 1026 q 315 1068 335 1026 q 308 1100 308 1086 q 347 1165 308 1144 z "},"ŕ":{"ha":513,"x_min":76,"x_max":517,"o":"m 285 397 l 285 53 q 269 15 285 31 q 232 0 254 0 l 129 0 q 92 15 107 0 q 76 53 76 31 l 76 572 q 92 610 76 594 q 129 625 107 625 l 236 625 q 270 610 256 625 q 285 576 285 596 q 407 636 328 636 q 482 626 450 636 q 517 582 517 615 q 511 554 517 567 l 471 467 q 415 433 456 433 q 394 436 408 433 q 356 442 372 442 q 285 397 310 442 m 186 849 l 254 963 q 310 994 274 994 q 350 981 335 994 l 396 946 q 422 892 422 925 q 406 847 422 867 l 321 753 q 261 726 297 726 q 211 743 233 726 q 175 810 175 768 q 186 849 175 829 z "},"Ŗ":{"ha":929,"x_min":125,"x_max":878,"o":"m 638 40 l 429 340 l 347 340 l 347 64 q 328 19 347 38 q 283 0 310 0 l 189 0 q 144 19 163 0 q 125 64 125 38 l 125 908 q 144 953 125 935 q 189 972 163 972 q 456 975 378 975 q 730 892 644 975 q 815 664 815 808 q 651 383 815 465 l 865 94 q 878 60 878 78 q 860 18 878 36 q 817 0 843 0 l 714 0 q 638 40 664 0 m 347 549 l 428 549 q 579 661 579 549 q 444 767 579 767 q 347 764 439 767 l 347 549 m 392 -283 q 342 -262 357 -283 q 328 -226 328 -244 q 354 -174 328 -203 q 372 -118 372 -154 q 381 -76 372 -87 q 414 -58 389 -64 l 528 -36 l 535 -36 q 567 -51 553 -36 q 581 -96 581 -65 q 534 -208 581 -160 q 422 -279 488 -257 q 392 -283 410 -283 z "},"ŗ":{"ha":513,"x_min":76,"x_max":517,"o":"m 285 397 l 285 53 q 269 15 285 31 q 232 0 254 0 l 129 0 q 92 15 107 0 q 76 53 76 31 l 76 572 q 92 610 76 594 q 129 625 107 625 l 236 625 q 270 610 256 625 q 285 576 285 596 q 407 636 328 636 q 482 626 450 636 q 517 582 517 615 q 511 554 517 567 l 471 467 q 415 433 456 433 q 394 436 408 433 q 356 442 372 442 q 285 397 310 442 m 171 -283 q 121 -262 136 -283 q 107 -226 107 -244 q 133 -174 107 -203 q 151 -118 151 -154 q 160 -76 151 -87 q 193 -58 168 -64 l 307 -36 l 314 -36 q 346 -51 332 -36 q 360 -96 360 -65 q 313 -208 360 -160 q 201 -279 267 -257 q 171 -283 189 -283 z "},"Ř":{"ha":929,"x_min":125,"x_max":878,"o":"m 638 40 l 429 340 l 347 340 l 347 64 q 328 19 347 38 q 283 0 310 0 l 189 0 q 144 19 163 0 q 125 64 125 38 l 125 908 q 144 953 125 935 q 189 972 163 972 q 456 975 378 975 q 730 892 644 975 q 815 664 815 808 q 651 383 815 465 l 865 94 q 878 60 878 78 q 860 18 878 36 q 817 0 843 0 l 714 0 q 638 40 664 0 m 347 549 l 428 549 q 579 661 579 549 q 444 767 579 767 q 347 764 439 767 l 347 549 m 440 1193 l 558 1264 q 594 1274 578 1274 q 654 1242 633 1274 q 664 1204 664 1226 q 633 1146 664 1167 l 497 1056 q 439 1039 472 1039 q 379 1056 406 1039 l 240 1143 q 210 1200 210 1163 q 222 1240 210 1221 q 286 1274 244 1274 q 322 1264 307 1274 l 440 1193 z "},"ř":{"ha":513,"x_min":76,"x_max":517,"o":"m 285 397 l 285 53 q 269 15 285 31 q 232 0 254 0 l 129 0 q 92 15 107 0 q 76 53 76 31 l 76 572 q 92 610 76 594 q 129 625 107 625 l 236 625 q 270 610 256 625 q 285 576 285 596 q 407 636 328 636 q 482 626 450 636 q 517 582 517 615 q 511 554 517 567 l 471 467 q 415 433 456 433 q 394 436 408 433 q 356 442 372 442 q 285 397 310 442 m 281 876 l 358 938 q 407 954 379 954 q 467 926 443 954 q 482 879 482 904 q 451 817 482 839 l 340 726 q 279 706 313 706 q 217 728 243 706 l 107 817 q 79 878 79 839 q 96 928 79 907 q 156 957 118 957 q 204 939 185 957 l 281 876 z "},"Ś":{"ha":774,"x_min":63,"x_max":711,"o":"m 74 183 l 114 242 q 165 271 132 271 q 208 257 189 271 q 383 192 307 192 q 451 212 426 192 q 475 267 475 232 q 433 337 475 306 q 332 396 392 368 q 213 458 272 424 q 111 557 153 493 q 69 708 69 621 q 156 907 69 825 q 383 989 242 989 q 624 925 524 989 q 650 871 650 908 q 642 838 650 853 l 606 776 q 550 743 585 743 q 513 754 532 743 q 403 781 460 781 q 331 761 357 781 q 306 708 306 742 q 335 642 306 671 q 410 594 365 613 q 508 547 456 575 q 606 488 561 519 q 681 401 651 457 q 711 269 711 344 q 616 64 711 144 q 378 -17 521 -17 q 83 94 226 -17 q 63 143 63 111 q 74 183 63 168 m 335 1165 l 540 1268 q 568 1275 553 1275 q 626 1238 611 1275 l 651 1181 q 657 1157 657 1167 q 645 1122 657 1138 q 614 1100 633 1106 l 396 1031 q 371 1026 383 1026 q 303 1068 322 1026 q 296 1100 296 1086 q 335 1165 296 1144 z "},"ś":{"ha":638,"x_min":46,"x_max":592,"o":"m 57 143 l 94 194 q 133 215 108 215 q 179 201 156 215 q 336 157 258 157 q 383 185 383 157 q 349 215 383 203 q 267 238 315 226 q 169 269 218 250 q 87 331 121 288 q 53 438 53 374 q 122 588 53 535 q 297 642 192 642 q 514 590 414 642 q 543 540 543 575 q 538 518 543 528 l 510 465 q 458 433 492 433 q 435 439 451 433 q 310 468 368 468 q 274 460 288 468 q 261 440 261 451 q 295 412 261 424 q 378 389 329 400 q 475 359 426 378 q 558 299 524 340 q 592 194 592 257 q 519 41 592 99 q 322 -17 446 -17 q 67 65 164 -17 q 46 108 46 82 q 57 143 46 128 m 219 849 l 288 963 q 343 994 307 994 q 383 981 368 994 l 429 946 q 456 892 456 925 q 439 847 456 867 l 354 753 q 294 726 331 726 q 244 743 267 726 q 208 810 208 768 q 219 849 208 829 z "},"Ŝ":{"ha":774,"x_min":63,"x_max":711,"o":"m 74 183 l 114 242 q 165 271 132 271 q 208 257 189 271 q 383 192 307 192 q 451 212 426 192 q 475 267 475 232 q 433 337 475 306 q 332 396 392 368 q 213 458 272 424 q 111 557 153 493 q 69 708 69 621 q 156 907 69 825 q 383 989 242 989 q 624 925 524 989 q 650 871 650 908 q 642 838 650 853 l 606 776 q 550 743 585 743 q 513 754 532 743 q 403 781 460 781 q 331 761 357 781 q 306 708 306 742 q 335 642 306 671 q 410 594 365 613 q 508 547 456 575 q 606 488 561 519 q 681 401 651 457 q 711 269 711 344 q 616 64 711 144 q 378 -17 521 -17 q 83 94 226 -17 q 63 143 63 111 q 74 183 63 168 m 375 1096 l 257 1035 q 225 1026 240 1026 q 161 1063 182 1026 q 150 1100 150 1081 q 181 1156 150 1136 l 332 1257 q 375 1269 353 1269 q 418 1257 400 1269 l 576 1158 q 606 1104 606 1139 q 593 1064 606 1083 q 528 1026 568 1026 q 493 1035 510 1026 l 375 1096 z "},"ŝ":{"ha":638,"x_min":46,"x_max":592,"o":"m 57 143 l 94 194 q 133 215 108 215 q 179 201 156 215 q 336 157 258 157 q 383 185 383 157 q 349 215 383 203 q 267 238 315 226 q 169 269 218 250 q 87 331 121 288 q 53 438 53 374 q 122 588 53 535 q 297 642 192 642 q 514 590 414 642 q 543 540 543 575 q 538 518 543 528 l 510 465 q 458 433 492 433 q 435 439 451 433 q 310 468 368 468 q 274 460 288 468 q 261 440 261 451 q 295 412 261 424 q 378 389 329 400 q 475 359 426 378 q 558 299 524 340 q 592 194 592 257 q 519 41 592 99 q 322 -17 446 -17 q 67 65 164 -17 q 46 108 46 82 q 57 143 46 128 m 314 782 l 236 721 q 189 704 215 704 q 129 733 150 704 q 113 781 113 754 q 143 842 113 818 l 254 932 q 315 953 281 953 q 378 931 351 953 l 488 842 q 515 781 515 819 q 499 731 515 751 q 439 701 475 701 q 390 719 410 701 l 314 782 z "},"Ş":{"ha":774,"x_min":63,"x_max":711,"o":"m 74 183 l 114 242 q 165 271 132 271 q 208 257 189 271 q 383 192 307 192 q 451 212 426 192 q 475 267 475 232 q 433 337 475 306 q 332 396 392 368 q 213 458 272 424 q 111 557 153 493 q 69 708 69 621 q 156 907 69 825 q 383 989 242 989 q 624 925 524 989 q 650 871 650 908 q 642 838 650 853 l 606 776 q 550 743 585 743 q 513 754 532 743 q 403 781 460 781 q 331 761 357 781 q 306 708 306 742 q 335 642 306 671 q 410 594 365 613 q 508 547 456 575 q 606 488 561 519 q 681 401 651 457 q 711 269 711 344 q 629 75 711 153 q 421 -14 547 -3 l 421 -36 q 582 -161 582 -49 q 528 -256 582 -219 q 381 -292 475 -292 q 188 -239 274 -292 q 161 -189 161 -222 q 171 -157 161 -172 q 215 -132 188 -132 q 250 -142 231 -132 q 329 -167 294 -167 q 360 -149 360 -167 q 351 -131 360 -136 q 322 -105 328 -115 q 317 -67 317 -94 l 317 -11 q 83 94 197 6 q 63 143 63 111 q 74 183 63 168 z "},"ş":{"ha":638,"x_min":46,"x_max":592,"o":"m 57 143 l 94 194 q 133 215 108 215 q 179 201 156 215 q 336 157 258 157 q 383 185 383 157 q 349 215 383 203 q 267 238 315 226 q 169 269 218 250 q 87 331 121 288 q 53 438 53 374 q 122 588 53 535 q 297 642 192 642 q 514 590 414 642 q 543 540 543 575 q 538 518 543 528 l 510 465 q 458 433 492 433 q 435 439 451 433 q 310 468 368 468 q 274 460 288 468 q 261 440 261 451 q 295 412 261 424 q 378 389 329 400 q 475 359 426 378 q 558 299 524 340 q 592 194 592 257 q 531 52 592 108 q 364 -14 469 -4 l 364 -36 q 511 -161 511 -49 q 458 -256 511 -221 q 301 -292 404 -292 q 146 -247 217 -292 q 119 -199 119 -231 q 129 -167 119 -182 q 174 -142 146 -142 q 211 -151 194 -142 q 272 -167 247 -167 q 303 -149 303 -167 q 278 -110 303 -139 q 260 -49 260 -87 l 260 -12 q 67 65 143 0 q 46 108 46 82 q 57 143 46 128 z "},"Š":{"ha":774,"x_min":63,"x_max":711,"o":"m 74 183 l 114 242 q 165 271 132 271 q 208 257 189 271 q 383 192 307 192 q 451 212 426 192 q 475 267 475 232 q 433 337 475 306 q 332 396 392 368 q 213 458 272 424 q 111 557 153 493 q 69 708 69 621 q 156 907 69 825 q 383 989 242 989 q 624 925 524 989 q 650 871 650 908 q 642 838 650 853 l 606 776 q 550 743 585 743 q 513 754 532 743 q 403 781 460 781 q 331 761 357 781 q 306 708 306 742 q 335 642 306 671 q 410 594 365 613 q 508 547 456 575 q 606 488 561 519 q 681 401 651 457 q 711 269 711 344 q 616 64 711 144 q 378 -17 521 -17 q 83 94 226 -17 q 63 143 63 111 q 74 183 63 168 m 386 1193 l 504 1264 q 540 1274 524 1274 q 600 1242 579 1274 q 610 1204 610 1226 q 579 1146 610 1167 l 443 1056 q 385 1039 418 1039 q 325 1056 353 1039 l 186 1143 q 156 1200 156 1163 q 168 1240 156 1221 q 232 1274 192 1274 q 268 1264 253 1274 l 386 1193 z "},"š":{"ha":638,"x_min":46,"x_max":592,"o":"m 57 143 l 94 194 q 133 215 108 215 q 179 201 156 215 q 336 157 258 157 q 383 185 383 157 q 349 215 383 203 q 267 238 315 226 q 169 269 218 250 q 87 331 121 288 q 53 438 53 374 q 122 588 53 535 q 297 642 192 642 q 514 590 414 642 q 543 540 543 575 q 538 518 543 528 l 510 465 q 458 433 492 433 q 435 439 451 433 q 310 468 368 468 q 274 460 288 468 q 261 440 261 451 q 295 412 261 424 q 378 389 329 400 q 475 359 426 378 q 558 299 524 340 q 592 194 592 257 q 519 41 592 99 q 322 -17 446 -17 q 67 65 164 -17 q 46 108 46 82 q 57 143 46 128 m 314 876 l 392 938 q 440 954 413 954 q 500 926 476 954 q 515 879 515 904 q 485 817 515 839 l 374 726 q 313 706 346 706 q 250 728 276 706 l 140 817 q 113 878 113 839 q 129 928 113 907 q 189 957 153 957 q 238 939 218 957 l 314 876 z "},"Ţ":{"ha":833,"x_min":14,"x_max":819,"o":"m 528 64 q 510 20 528 39 q 468 0 492 1 l 468 -36 q 629 -161 629 -49 q 576 -256 629 -219 q 428 -292 522 -292 q 235 -239 321 -292 q 208 -189 208 -222 q 218 -157 208 -172 q 263 -132 235 -132 q 297 -142 278 -132 q 376 -167 342 -167 q 407 -149 407 -167 q 399 -131 407 -136 q 369 -105 375 -115 q 364 -67 364 -94 l 364 0 q 323 21 340 3 q 306 64 306 39 l 306 764 l 78 764 q 33 783 51 764 q 14 828 14 801 l 14 908 q 33 953 14 935 q 78 972 51 972 l 756 972 q 801 953 782 972 q 819 908 819 935 l 819 828 q 801 783 819 801 q 756 764 782 764 l 528 764 l 528 64 z "},"ţ":{"ha":504,"x_min":63,"x_max":469,"o":"m 435 163 l 464 106 q 469 81 469 94 q 440 32 469 49 q 311 -14 375 -4 l 311 -36 q 458 -161 458 -49 q 405 -256 458 -221 q 249 -292 351 -292 q 93 -247 164 -292 q 67 -199 67 -231 q 76 -167 67 -182 q 121 -142 93 -142 q 158 -151 142 -142 q 219 -167 194 -167 q 250 -149 250 -167 q 225 -110 250 -139 q 207 -49 207 -87 l 207 -12 q 63 238 63 17 l 63 746 q 78 783 63 768 q 115 799 93 799 l 218 799 q 256 783 240 799 q 271 746 271 768 l 271 625 l 392 625 q 429 610 414 625 q 444 572 444 594 l 444 483 q 429 446 444 461 q 392 431 414 431 l 271 431 l 271 247 q 317 178 271 178 q 364 188 340 178 q 390 193 376 193 q 435 163 421 193 z "},"Ť":{"ha":833,"x_min":14,"x_max":819,"o":"m 464 0 l 369 0 q 324 19 343 0 q 306 64 306 38 l 306 764 l 78 764 q 33 783 51 764 q 14 828 14 801 l 14 908 q 33 953 14 935 q 78 972 51 972 l 756 972 q 801 953 782 972 q 819 908 819 935 l 819 828 q 801 783 819 801 q 756 764 782 764 l 528 764 l 528 64 q 509 19 528 38 q 464 0 490 0 m 411 1193 l 529 1264 q 565 1274 549 1274 q 625 1242 604 1274 q 635 1204 635 1226 q 604 1146 635 1167 l 468 1056 q 410 1039 443 1039 q 350 1056 378 1039 l 211 1143 q 181 1200 181 1163 q 193 1240 181 1221 q 257 1274 217 1274 q 293 1264 278 1274 l 411 1193 z "},"ť":{"ha":504,"x_min":63,"x_max":565,"o":"m 435 163 l 464 106 q 469 81 469 94 q 440 32 469 49 q 257 -17 356 -17 q 108 48 154 -17 q 63 238 63 113 l 63 746 q 78 783 63 768 q 115 799 93 799 l 218 799 q 256 783 240 799 q 271 746 271 768 l 271 625 l 392 625 q 429 610 414 625 q 444 572 444 594 l 444 483 q 429 446 444 461 q 392 431 414 431 l 271 431 l 271 247 q 317 178 271 178 q 364 188 340 178 q 390 193 376 193 q 435 163 421 193 m 408 676 q 361 692 381 676 q 333 747 333 714 q 347 800 333 774 q 371 906 371 850 q 438 972 371 972 l 522 972 q 553 958 542 972 q 565 929 565 944 q 461 694 565 783 q 408 676 440 676 z "},"Ū":{"ha":1043,"x_min":111,"x_max":932,"o":"m 710 446 l 710 908 q 728 953 710 935 q 774 972 747 972 l 868 972 q 913 953 894 972 q 932 908 932 935 l 932 401 q 819 88 932 192 q 535 -17 706 -17 q 226 93 342 -17 q 111 411 111 203 l 111 908 q 130 953 111 935 q 175 972 149 972 l 269 972 q 315 953 296 972 q 333 908 333 935 l 333 458 q 535 192 333 192 q 670 256 631 192 q 710 446 710 321 m 753 1142 l 753 1108 q 733 1061 753 1081 q 686 1042 714 1042 l 383 1042 q 336 1061 356 1042 q 317 1108 317 1081 l 317 1142 q 336 1189 317 1169 q 383 1208 356 1208 l 686 1208 q 733 1189 714 1208 q 753 1142 753 1169 z "},"ū":{"ha":736,"x_min":63,"x_max":660,"o":"m 451 235 l 451 572 q 467 610 451 594 q 504 625 482 625 l 607 625 q 644 610 629 625 q 660 572 660 594 l 660 53 q 644 15 660 31 q 607 0 629 0 l 504 0 q 467 17 482 0 q 451 58 451 33 q 272 -17 385 -17 q 124 47 186 -17 q 63 232 63 111 l 63 572 q 78 610 63 594 q 115 625 93 625 l 218 625 q 256 610 240 625 q 271 572 271 594 l 271 276 q 290 206 271 235 q 351 178 310 178 q 451 235 406 178 m 565 822 l 565 789 q 545 742 565 761 q 499 722 525 722 l 224 722 q 177 742 197 722 q 157 789 157 761 l 157 822 q 177 869 157 850 q 224 889 197 889 l 499 889 q 545 869 525 889 q 565 822 565 850 z "},"Ŭ":{"ha":1043,"x_min":111,"x_max":932,"o":"m 710 446 l 710 908 q 728 953 710 935 q 774 972 747 972 l 868 972 q 913 953 894 972 q 932 908 932 935 l 932 401 q 819 88 932 192 q 535 -17 706 -17 q 226 93 342 -17 q 111 411 111 203 l 111 908 q 130 953 111 935 q 175 972 149 972 l 269 972 q 315 953 296 972 q 333 908 333 935 l 333 458 q 535 192 333 192 q 670 256 631 192 q 710 446 710 321 m 374 1236 q 524 1194 438 1194 q 674 1236 610 1194 q 726 1256 701 1256 q 779 1232 753 1256 q 801 1179 801 1211 q 786 1136 801 1154 q 524 1014 679 1014 q 261 1136 368 1014 q 246 1179 246 1154 q 268 1232 246 1211 q 321 1256 294 1256 q 374 1236 346 1256 z "},"ŭ":{"ha":736,"x_min":63,"x_max":660,"o":"m 451 235 l 451 572 q 467 610 451 594 q 504 625 482 625 l 607 625 q 644 610 629 625 q 660 572 660 594 l 660 53 q 644 15 660 31 q 607 0 629 0 l 504 0 q 467 17 482 0 q 451 58 451 33 q 272 -17 385 -17 q 124 47 186 -17 q 63 232 63 111 l 63 572 q 78 610 63 594 q 115 625 93 625 l 218 625 q 256 610 240 625 q 271 572 271 594 l 271 276 q 290 206 271 235 q 351 178 310 178 q 451 235 406 178 m 268 904 q 367 875 311 875 q 465 904 422 875 q 522 925 496 925 q 572 903 550 925 q 592 856 592 883 q 574 808 592 829 q 367 707 481 707 q 160 808 253 707 q 142 856 142 829 q 161 903 142 883 q 211 925 183 925 q 268 904 238 925 z "},"Ů":{"ha":1043,"x_min":111,"x_max":932,"o":"m 710 446 l 710 908 q 728 953 710 935 q 774 972 747 972 l 868 972 q 913 953 894 972 q 932 908 932 935 l 932 401 q 819 88 932 192 q 535 -17 706 -17 q 226 93 342 -17 q 111 411 111 203 l 111 908 q 130 953 111 935 q 175 972 149 972 l 269 972 q 315 953 296 972 q 333 908 333 935 l 333 458 q 535 192 333 192 q 670 256 631 192 q 710 446 710 321 m 306 1124 q 366 1247 306 1206 q 521 1288 426 1288 q 681 1247 619 1288 q 743 1124 743 1206 q 681 999 743 1043 q 521 956 618 956 q 367 999 428 956 q 306 1124 306 1043 m 458 1124 q 524 1067 458 1067 q 590 1124 590 1067 q 524 1176 590 1176 q 458 1124 458 1176 z "},"ů":{"ha":736,"x_min":63,"x_max":660,"o":"m 451 235 l 451 572 q 467 610 451 594 q 504 625 482 625 l 607 625 q 644 610 629 625 q 660 572 660 594 l 660 53 q 644 15 660 31 q 607 0 629 0 l 504 0 q 467 17 482 0 q 451 58 451 33 q 272 -17 385 -17 q 124 47 186 -17 q 63 232 63 111 l 63 572 q 78 610 63 594 q 115 625 93 625 l 218 625 q 256 610 240 625 q 271 572 271 594 l 271 276 q 290 206 271 235 q 351 178 310 178 q 451 235 406 178 m 361 672 q 225 724 279 672 q 171 849 171 775 q 225 976 171 924 q 361 1028 279 1028 q 499 976 444 1028 q 554 849 554 924 q 499 724 554 775 q 361 672 444 672 m 364 917 q 319 898 336 917 q 303 851 303 879 q 319 803 303 822 q 364 783 336 783 q 406 803 390 783 q 422 851 422 822 q 406 898 422 879 q 364 917 390 917 z "},"Ű":{"ha":1043,"x_min":111,"x_max":932,"o":"m 710 446 l 710 908 q 728 953 710 935 q 774 972 747 972 l 868 972 q 913 953 894 972 q 932 908 932 935 l 932 401 q 819 88 932 192 q 535 -17 706 -17 q 226 93 342 -17 q 111 411 111 203 l 111 908 q 130 953 111 935 q 175 972 149 972 l 269 972 q 315 953 296 972 q 333 908 333 935 l 333 458 q 535 192 333 192 q 670 256 631 192 q 710 446 710 321 m 572 1139 l 704 1258 q 750 1275 722 1275 q 793 1258 775 1275 l 851 1208 q 865 1176 865 1196 q 843 1139 865 1151 l 665 1040 q 621 1028 640 1028 q 568 1051 588 1028 q 553 1093 553 1069 q 572 1139 553 1119 m 303 1142 l 376 1249 q 433 1279 396 1279 q 464 1272 447 1279 l 536 1235 q 558 1200 558 1225 q 544 1169 558 1182 l 404 1050 q 360 1035 388 1035 q 311 1053 333 1035 q 290 1101 290 1074 q 303 1142 290 1122 z "},"ű":{"ha":736,"x_min":63,"x_max":660,"o":"m 451 235 l 451 572 q 467 610 451 594 q 504 625 482 625 l 607 625 q 644 610 629 625 q 660 572 660 594 l 660 53 q 644 15 660 31 q 607 0 629 0 l 504 0 q 467 17 482 0 q 451 58 451 33 q 272 -17 385 -17 q 124 47 186 -17 q 63 232 63 111 l 63 572 q 78 610 63 594 q 115 625 93 625 l 218 625 q 256 610 240 625 q 271 572 271 594 l 271 276 q 290 206 271 235 q 351 178 310 178 q 451 235 406 178 m 411 847 l 486 947 q 546 978 508 978 q 590 963 571 978 l 625 938 q 650 885 650 919 q 631 839 650 857 l 544 751 q 475 722 513 722 q 426 739 447 722 q 397 801 397 761 q 411 847 397 828 m 167 851 l 229 963 q 288 996 246 996 q 326 983 308 996 l 354 961 q 385 900 385 939 q 371 856 385 875 l 299 760 q 236 731 275 731 q 188 744 207 731 q 156 808 156 768 q 167 851 156 829 z "},"Ų":{"ha":1043,"x_min":111,"x_max":932,"o":"m 710 446 l 710 908 q 728 953 710 935 q 774 972 747 972 l 868 972 q 913 953 894 972 q 932 908 932 935 l 932 401 q 831 99 932 203 q 571 -15 729 -4 q 526 -75 526 -40 q 568 -111 526 -111 q 598 -108 581 -111 q 626 -104 615 -104 q 688 -143 669 -104 q 697 -182 697 -164 q 654 -247 697 -221 q 519 -278 597 -278 q 375 -244 432 -278 q 318 -146 318 -211 q 429 -7 318 -57 q 196 126 281 19 q 111 411 111 233 l 111 908 q 130 953 111 935 q 175 972 149 972 l 269 972 q 315 953 296 972 q 333 908 333 935 l 333 458 q 535 192 333 192 q 670 256 631 192 q 710 446 710 321 z "},"ų":{"ha":736,"x_min":63,"x_max":689,"o":"m 451 235 l 451 572 q 467 610 451 594 q 504 625 482 625 l 607 625 q 644 610 629 625 q 660 572 660 594 l 660 53 q 644 15 660 31 q 607 0 629 0 l 590 0 q 553 -25 568 0 q 539 -75 539 -50 q 581 -111 539 -111 q 628 -112 614 -111 q 659 -125 643 -114 q 683 -158 675 -136 q 689 -189 689 -171 q 644 -257 689 -236 q 532 -278 597 -278 q 388 -244 444 -278 q 331 -146 331 -211 q 372 -54 331 -93 q 476 7 414 -15 q 451 58 451 22 q 272 -17 385 -17 q 124 47 186 -17 q 63 232 63 111 l 63 572 q 78 610 63 594 q 115 625 93 625 l 218 625 q 256 610 240 625 q 271 572 271 594 l 271 276 q 290 206 271 235 q 351 178 310 178 q 451 235 406 178 z "},"Ÿ":{"ha":900,"x_min":49,"x_max":851,"o":"m 274 929 l 458 604 l 640 929 q 713 972 663 972 l 782 972 q 831 951 811 972 q 851 903 851 931 q 842 868 851 883 l 560 396 l 560 64 q 541 19 560 38 q 496 0 522 0 l 401 0 q 356 19 375 0 q 338 64 338 38 l 338 396 l 58 868 q 49 903 49 883 q 69 951 49 931 q 118 972 89 972 l 201 972 q 274 929 251 972 m 158 1163 q 197 1242 158 1213 q 294 1271 236 1271 q 383 1241 346 1271 q 421 1163 421 1211 q 383 1077 421 1108 q 294 1046 346 1046 q 197 1076 236 1046 q 158 1163 158 1107 m 479 1163 q 519 1242 479 1213 q 615 1271 558 1271 q 704 1241 667 1271 q 742 1163 742 1211 q 705 1077 742 1108 q 615 1046 668 1046 q 518 1076 557 1046 q 479 1163 479 1107 z "},"Ź":{"ha":903,"x_min":56,"x_max":847,"o":"m 56 64 l 56 107 q 94 194 56 144 l 529 764 l 147 764 q 102 783 121 764 q 83 828 83 801 l 83 908 q 102 953 83 935 q 147 972 121 972 l 769 972 q 815 953 796 972 q 833 908 833 935 l 833 865 q 796 778 833 828 l 360 208 l 783 208 q 828 190 810 208 q 847 144 847 171 l 847 64 q 828 19 847 38 q 783 0 810 0 l 119 0 q 74 19 93 0 q 56 64 56 38 m 389 1165 l 594 1268 q 622 1275 607 1275 q 681 1238 665 1275 l 706 1181 q 711 1157 711 1167 q 699 1122 711 1138 q 668 1100 688 1106 l 450 1031 q 425 1026 438 1026 q 357 1068 376 1026 q 350 1100 350 1086 q 389 1165 350 1144 z "},"ź":{"ha":688,"x_min":56,"x_max":632,"o":"m 56 53 l 56 122 q 78 175 56 153 l 342 431 l 129 431 q 92 446 107 431 q 76 483 76 461 l 76 572 q 92 610 76 594 q 129 625 107 625 l 579 625 q 617 610 601 625 q 632 572 632 594 l 632 503 q 610 450 632 472 l 344 194 l 572 194 q 610 179 594 194 q 625 142 625 164 l 625 53 q 610 15 625 31 q 572 0 594 0 l 108 0 q 71 15 86 0 q 56 53 56 31 m 264 849 l 332 963 q 388 994 351 994 q 428 981 413 994 l 474 946 q 500 892 500 925 q 483 847 500 867 l 399 753 q 339 726 375 726 q 289 743 311 726 q 253 810 253 768 q 264 849 253 829 z "},"Ż":{"ha":903,"x_min":56,"x_max":847,"o":"m 56 64 l 56 107 q 94 194 56 144 l 529 764 l 147 764 q 102 783 121 764 q 83 828 83 801 l 83 908 q 102 953 83 935 q 147 972 121 972 l 769 972 q 815 953 796 972 q 833 908 833 935 l 833 865 q 796 778 833 828 l 360 208 l 783 208 q 828 190 810 208 q 847 144 847 171 l 847 64 q 828 19 847 38 q 783 0 810 0 l 119 0 q 74 19 93 0 q 56 64 56 38 m 325 1174 q 366 1265 325 1231 q 465 1299 407 1299 q 559 1264 519 1299 q 599 1174 599 1229 q 559 1076 599 1113 q 465 1040 519 1040 q 365 1076 406 1040 q 325 1174 325 1111 z "},"ż":{"ha":688,"x_min":56,"x_max":632,"o":"m 56 53 l 56 122 q 78 175 56 153 l 342 431 l 129 431 q 92 446 107 431 q 76 483 76 461 l 76 572 q 92 610 76 594 q 129 625 107 625 l 579 625 q 617 610 601 625 q 632 572 632 594 l 632 503 q 610 450 632 472 l 344 194 l 572 194 q 610 179 594 194 q 625 142 625 164 l 625 53 q 610 15 625 31 q 572 0 594 0 l 108 0 q 71 15 86 0 q 56 53 56 31 m 217 840 q 253 926 217 894 q 343 958 290 958 q 426 926 390 958 q 461 840 461 893 q 426 748 461 782 q 343 714 390 714 q 253 747 289 714 q 217 840 217 781 z "},"Ž":{"ha":903,"x_min":56,"x_max":847,"o":"m 56 64 l 56 107 q 94 194 56 144 l 529 764 l 147 764 q 102 783 121 764 q 83 828 83 801 l 83 908 q 102 953 83 935 q 147 972 121 972 l 769 972 q 815 953 796 972 q 833 908 833 935 l 833 865 q 796 778 833 828 l 360 208 l 783 208 q 828 190 810 208 q 847 144 847 171 l 847 64 q 828 19 847 38 q 783 0 810 0 l 119 0 q 74 19 93 0 q 56 64 56 38 m 468 1193 l 586 1264 q 622 1274 606 1274 q 682 1242 661 1274 q 692 1204 692 1226 q 661 1146 692 1167 l 525 1056 q 467 1039 500 1039 q 407 1056 433 1039 l 268 1143 q 238 1200 238 1163 q 250 1240 238 1221 q 314 1274 272 1274 q 350 1264 335 1274 l 468 1193 z "},"ž":{"ha":688,"x_min":56,"x_max":632,"o":"m 56 53 l 56 122 q 78 175 56 153 l 342 431 l 129 431 q 92 446 107 431 q 76 483 76 461 l 76 572 q 92 610 76 594 q 129 625 107 625 l 579 625 q 617 610 601 625 q 632 572 632 594 l 632 503 q 610 450 632 472 l 344 194 l 572 194 q 610 179 594 194 q 625 142 625 164 l 625 53 q 610 15 625 31 q 572 0 594 0 l 108 0 q 71 15 86 0 q 56 53 56 31 m 358 876 l 436 938 q 485 954 457 954 q 544 926 521 954 q 560 879 560 904 q 529 817 560 839 l 418 726 q 357 706 392 706 q 294 728 321 706 l 185 817 q 157 878 157 839 q 174 928 157 907 q 233 957 197 957 q 282 939 263 957 l 358 876 z "},"ſ":{"ha":372,"x_min":76,"x_max":490,"o":"m 285 714 l 285 53 q 269 15 285 31 q 232 0 254 0 l 129 0 q 92 15 107 0 q 76 53 76 31 l 76 726 q 137 922 76 854 q 304 989 197 989 q 460 953 388 989 q 490 907 490 938 q 483 878 490 892 l 450 814 q 408 785 435 785 q 388 788 401 785 q 342 794 358 794 q 301 774 318 794 q 285 714 285 753 z "},"Ə":{"ha":1078,"x_min":51,"x_max":1026,"o":"m 215 906 q 536 989 351 989 q 888 850 750 989 q 1026 486 1026 711 q 890 119 1026 254 q 525 -17 753 -17 q 183 117 315 -17 q 51 489 51 251 q 53 536 51 519 q 74 581 54 561 q 121 600 94 600 l 785 600 q 674 734 753 688 q 482 781 594 781 q 325 743 403 781 q 286 733 306 733 q 229 767 250 733 l 196 818 q 186 853 186 832 q 215 906 186 886 m 289 392 q 361 250 300 308 q 522 192 422 192 q 793 392 740 192 l 289 392 z "},"ƒ":{"ha":824,"x_min":54,"x_max":786,"o":"m 781 892 l 747 819 q 703 788 732 788 q 688 789 693 788 q 650 794 660 794 q 589 714 603 794 l 574 625 l 644 625 q 682 610 667 625 q 697 572 697 594 l 697 483 q 682 446 697 461 q 644 431 667 431 l 540 431 l 458 -46 q 389 -230 435 -171 q 244 -289 343 -289 q 83 -251 157 -289 q 54 -206 54 -236 q 61 -179 54 -196 l 92 -114 q 133 -85 106 -85 q 162 -90 142 -85 q 193 -94 182 -94 q 229 -75 214 -94 q 250 -26 244 -56 l 329 431 l 250 431 q 213 446 228 431 q 197 483 197 461 l 197 572 q 213 610 197 594 q 250 625 228 625 l 363 625 l 381 726 q 459 927 407 865 q 613 989 511 989 q 754 961 686 989 q 786 917 786 946 q 781 892 786 903 z "},"ǝ":{"ha":711,"x_min":28,"x_max":669,"o":"m 244 243 q 272 183 244 208 q 346 157 299 157 q 469 243 439 157 l 244 243 m 122 589 q 339 642 217 642 q 581 551 492 642 q 669 313 669 461 q 585 76 669 169 q 346 -17 500 -17 q 119 65 211 -17 q 28 278 28 147 q 32 340 28 315 q 49 369 33 356 q 79 382 64 382 l 463 382 q 317 468 435 468 q 204 450 253 468 q 174 444 189 444 q 125 474 139 444 l 103 518 q 97 543 97 529 q 122 589 97 574 z "},"Ș":{"ha":774,"x_min":63,"x_max":711,"o":"m 74 183 l 114 242 q 165 271 132 271 q 208 257 189 271 q 383 192 307 192 q 451 212 426 192 q 475 267 475 232 q 433 337 475 306 q 332 396 392 368 q 213 458 272 424 q 111 557 153 493 q 69 708 69 621 q 156 907 69 825 q 383 989 242 989 q 624 925 524 989 q 650 871 650 908 q 642 838 650 853 l 606 776 q 550 743 585 743 q 513 754 532 743 q 403 781 460 781 q 331 761 357 781 q 306 708 306 742 q 335 642 306 671 q 410 594 365 613 q 508 547 456 575 q 606 488 561 519 q 681 401 651 457 q 711 269 711 344 q 616 64 711 144 q 378 -17 521 -17 q 83 94 226 -17 q 63 143 63 111 q 74 183 63 168 m 324 -283 q 274 -262 289 -283 q 260 -226 260 -244 q 286 -174 260 -203 q 304 -118 304 -154 q 313 -76 304 -87 q 346 -58 321 -64 l 460 -36 l 467 -36 q 499 -51 485 -36 q 513 -96 513 -65 q 466 -208 513 -160 q 354 -279 419 -257 q 324 -283 342 -283 z "},"ș":{"ha":638,"x_min":46,"x_max":592,"o":"m 57 143 l 94 194 q 133 215 108 215 q 179 201 156 215 q 336 157 258 157 q 383 185 383 157 q 349 215 383 203 q 267 238 315 226 q 169 269 218 250 q 87 331 121 288 q 53 438 53 374 q 122 588 53 535 q 297 642 192 642 q 514 590 414 642 q 543 540 543 575 q 538 518 543 528 l 510 465 q 458 433 492 433 q 435 439 451 433 q 310 468 368 468 q 274 460 288 468 q 261 440 261 451 q 295 412 261 424 q 378 389 329 400 q 475 359 426 378 q 558 299 524 340 q 592 194 592 257 q 519 41 592 99 q 322 -17 446 -17 q 67 65 164 -17 q 46 108 46 82 q 57 143 46 128 m 246 -283 q 196 -262 211 -283 q 182 -226 182 -244 q 208 -174 182 -203 q 226 -118 226 -154 q 235 -76 226 -87 q 268 -58 243 -64 l 382 -36 l 389 -36 q 421 -51 407 -36 q 435 -96 435 -65 q 388 -208 435 -160 q 276 -279 342 -257 q 246 -283 264 -283 z "},"Ț":{"ha":833,"x_min":14,"x_max":819,"o":"m 464 0 l 369 0 q 324 19 343 0 q 306 64 306 38 l 306 764 l 78 764 q 33 783 51 764 q 14 828 14 801 l 14 908 q 33 953 14 935 q 78 972 51 972 l 756 972 q 801 953 782 972 q 819 908 819 935 l 819 828 q 801 783 819 801 q 756 764 782 764 l 528 764 l 528 64 q 509 19 528 38 q 464 0 490 0 m 329 -283 q 279 -262 294 -283 q 265 -226 265 -244 q 292 -174 265 -203 q 310 -118 310 -154 q 318 -76 310 -87 q 351 -58 326 -64 l 465 -36 l 472 -36 q 504 -51 490 -36 q 518 -96 518 -65 q 472 -208 518 -160 q 360 -279 425 -257 q 329 -283 347 -283 z "},"ț":{"ha":504,"x_min":63,"x_max":469,"o":"m 435 163 l 464 106 q 469 81 469 94 q 440 32 469 49 q 257 -17 356 -17 q 108 48 154 -17 q 63 238 63 113 l 63 746 q 78 783 63 768 q 115 799 93 799 l 218 799 q 256 783 240 799 q 271 746 271 768 l 271 625 l 392 625 q 429 610 414 625 q 444 572 444 594 l 444 483 q 429 446 444 461 q 392 431 414 431 l 271 431 l 271 247 q 317 178 271 178 q 364 188 340 178 q 390 193 376 193 q 435 163 421 193 m 156 -283 q 106 -262 121 -283 q 92 -226 92 -244 q 118 -174 92 -203 q 136 -118 136 -154 q 144 -76 136 -87 q 178 -58 153 -64 l 292 -36 l 299 -36 q 331 -51 317 -36 q 344 -96 344 -65 q 298 -208 344 -160 q 186 -279 251 -257 q 156 -283 174 -283 z "},"ȷ":{"ha":394,"x_min":-42,"x_max":318,"o":"m 110 -26 l 110 572 q 125 610 110 594 q 163 625 140 625 l 265 625 q 303 610 288 625 q 318 572 318 594 l 318 -46 q 122 -289 318 -289 q -7 -267 54 -289 q -42 -218 -42 -256 q -39 -200 -42 -214 l -15 -126 q 29 -92 -4 -92 q 46 -93 40 -92 q 71 -96 60 -96 q 110 -26 110 -96 z "},"ə":{"ha":711,"x_min":28,"x_max":669,"o":"m 244 243 q 272 183 244 208 q 346 157 299 157 q 469 243 439 157 l 244 243 m 122 589 q 339 642 217 642 q 581 551 492 642 q 669 313 669 461 q 585 76 669 169 q 346 -17 500 -17 q 119 65 211 -17 q 28 278 28 147 q 32 340 28 315 q 49 369 33 356 q 79 382 64 382 l 463 382 q 317 468 435 468 q 204 450 253 468 q 174 444 189 444 q 125 474 139 444 l 103 518 q 97 543 97 529 q 122 589 97 574 z "},"ʼ":{"ha":332,"x_min":103,"x_max":332,"o":"m 176 576 q 129 593 153 576 q 103 646 103 614 q 118 697 103 667 q 138 781 138 739 q 131 826 138 801 q 125 856 125 842 q 158 903 125 883 l 231 944 q 260 953 244 953 q 293 941 278 953 q 314 915 308 929 q 332 826 332 874 q 229 596 332 690 q 176 576 207 576 z "},"ˆ":{"ha":632,"x_min":114,"x_max":517,"o":"m 315 782 l 238 721 q 190 704 217 704 q 131 733 151 704 q 114 781 114 754 q 144 842 114 818 l 256 932 q 317 953 283 953 q 379 931 353 953 l 489 842 q 517 781 517 819 q 500 731 517 751 q 440 701 478 701 q 392 719 411 701 l 315 782 z "},"ˇ":{"ha":632,"x_min":115,"x_max":518,"o":"m 317 876 l 394 938 q 443 954 415 954 q 503 926 479 954 q 518 879 518 904 q 488 817 518 839 l 376 726 q 315 706 349 706 q 253 728 279 706 l 143 817 q 115 878 115 839 q 132 928 115 907 q 192 957 154 957 q 240 939 221 957 l 317 876 z "},"˘":{"ha":628,"x_min":96,"x_max":546,"o":"m 222 904 q 321 875 265 875 q 419 904 375 875 q 476 925 450 925 q 526 903 504 925 q 546 856 546 883 q 528 808 546 829 q 321 707 435 707 q 114 808 207 707 q 96 856 96 829 q 115 903 96 883 q 165 925 138 925 q 222 904 192 925 z "},"˙":{"ha":411,"x_min":83,"x_max":328,"o":"m 83 840 q 120 926 83 894 q 210 958 157 958 q 292 926 257 958 q 328 840 328 893 q 292 748 328 782 q 210 714 257 714 q 119 747 156 714 q 83 840 83 781 z "},"˚":{"ha":550,"x_min":83,"x_max":467,"o":"m 274 672 q 138 724 192 672 q 83 849 83 775 q 138 976 83 924 q 274 1028 192 1028 q 412 976 357 1028 q 467 849 467 924 q 412 724 467 775 q 274 672 357 672 m 276 917 q 232 898 249 917 q 215 851 215 879 q 232 803 215 822 q 276 783 249 783 q 319 803 303 783 q 335 851 335 822 q 319 898 335 879 q 276 917 303 917 z "},"˛":{"ha":535,"x_min":83,"x_max":442,"o":"m 415 0 l 399 0 q 322 -25 353 0 q 292 -75 292 -50 q 333 -111 292 -111 q 381 -112 367 -111 q 412 -125 396 -114 q 436 -158 428 -136 q 442 -189 442 -171 q 397 -257 442 -236 q 285 -278 350 -278 q 140 -244 197 -278 q 83 -146 83 -211 q 179 -15 83 -61 q 399 31 275 31 l 415 31 l 415 0 z "},"˜":{"ha":674,"x_min":90,"x_max":596,"o":"m 596 849 q 569 788 596 814 q 494 731 525 746 q 425 715 463 715 q 337 744 394 715 q 247 772 279 772 q 203 753 232 772 q 153 735 176 735 q 106 757 124 735 q 90 796 90 775 q 118 856 90 828 q 187 908 157 894 q 256 922 217 922 q 347 897 289 922 q 432 871 404 871 q 482 894 444 871 q 531 911 508 911 q 585 882 560 911 q 596 849 596 869 z "},"˝":{"ha":721,"x_min":108,"x_max":603,"o":"m 364 847 l 439 947 q 499 978 461 978 q 543 963 524 978 l 578 938 q 603 885 603 919 q 583 839 603 857 l 497 751 q 428 722 465 722 q 379 739 400 722 q 350 801 350 761 q 364 847 350 828 m 119 851 l 182 963 q 240 996 199 996 q 279 983 261 996 l 307 961 q 338 900 338 939 q 324 856 338 875 l 251 760 q 189 731 228 731 q 140 744 160 731 q 108 808 108 768 q 119 851 108 829 z "},"̀":{"ha":0,"x_min":-564,"x_max":-314,"o":"m -393 960 l -325 849 q -314 810 -314 829 q -350 743 -314 768 q -400 726 -372 726 q -461 753 -435 726 l -546 844 q -564 890 -564 865 q -537 943 -564 924 l -489 978 q -449 992 -474 992 q -393 960 -410 992 z "},"́":{"ha":0,"x_min":-450,"x_max":-203,"o":"m -439 849 l -371 963 q -315 994 -351 994 q -275 981 -290 994 l -229 946 q -203 892 -203 925 q -219 847 -203 867 l -304 753 q -364 726 -328 726 q -414 743 -392 726 q -450 810 -450 768 q -439 849 -450 829 z "},"Δ":{"ha":1039,"x_min":53,"x_max":986,"o":"m 492 983 l 538 983 q 578 971 560 983 q 606 939 597 958 l 981 83 q 986 60 986 67 q 969 17 986 35 q 926 0 951 0 l 113 0 q 70 17 88 0 q 53 60 53 35 q 58 83 53 67 l 424 939 q 451 971 432 958 q 492 983 469 983 m 510 611 l 344 208 l 686 208 l 510 611 z "},"Ω":{"ha":1151,"x_min":56,"x_max":1096,"o":"m 529 156 l 529 64 q 510 19 529 38 q 465 0 492 0 l 119 0 q 74 19 93 0 q 56 64 56 38 l 56 144 q 74 190 56 171 q 119 208 93 208 l 256 208 q 134 323 194 228 q 74 542 74 418 q 217 868 74 747 q 576 989 360 989 q 938 869 797 989 q 1079 542 1079 749 q 1019 320 1079 410 q 896 208 958 231 l 1032 208 q 1077 190 1058 208 q 1096 144 1096 171 l 1096 64 q 1077 19 1096 38 q 1032 0 1058 0 l 686 0 q 641 19 660 0 q 622 64 622 38 l 622 158 q 636 200 622 183 q 682 233 650 217 q 801 348 758 272 q 843 504 843 424 q 772 698 843 615 q 576 781 701 781 q 377 699 444 781 q 310 500 310 617 q 352 351 310 431 q 469 232 394 271 q 516 199 503 215 q 529 156 529 182 z "},"π":{"ha":856,"x_min":28,"x_max":849,"o":"m 28 126 q 38 171 28 157 q 78 196 49 185 q 147 361 140 221 l 150 431 l 101 431 q 64 446 79 431 q 49 483 49 461 l 49 572 q 64 610 49 594 q 101 625 79 625 l 736 625 q 774 610 758 625 q 789 572 789 594 l 789 483 q 774 446 789 461 q 736 431 758 431 l 699 431 l 699 258 q 742 176 699 176 q 761 177 749 176 q 779 178 774 178 q 825 144 811 178 l 844 94 q 849 74 849 83 q 822 26 849 42 q 646 -17 742 -17 q 490 179 490 -17 l 490 431 l 357 431 l 357 389 q 294 84 357 172 q 86 -15 231 -4 l 83 -15 q 45 -1 63 -15 q 28 36 28 14 l 28 126 z "},"Ё":{"ha":799,"x_min":125,"x_max":722,"o":"m 715 144 l 715 64 q 697 19 715 38 q 651 0 678 0 l 189 0 q 144 19 163 0 q 125 64 125 38 l 125 908 q 144 953 125 935 q 189 972 163 972 l 638 972 q 683 953 664 972 q 701 908 701 935 l 701 828 q 683 783 701 801 q 638 764 664 764 l 347 764 l 347 593 l 596 593 q 641 574 622 593 q 660 529 660 556 l 660 449 q 641 403 660 422 q 596 385 622 385 l 347 385 l 347 208 l 651 208 q 697 190 678 208 q 715 144 715 171 m 139 1163 q 178 1242 139 1213 q 275 1271 217 1271 q 364 1241 326 1271 q 401 1163 401 1211 q 364 1077 401 1108 q 275 1046 326 1046 q 178 1076 217 1046 q 139 1163 139 1107 m 460 1163 q 499 1242 460 1213 q 596 1271 539 1271 q 685 1241 647 1271 q 722 1163 722 1211 q 685 1077 722 1108 q 596 1046 649 1046 q 499 1076 538 1046 q 460 1163 460 1107 z "},"Ђ":{"ha":1065,"x_min":14,"x_max":1010,"o":"m 528 764 l 528 546 q 715 588 601 588 q 1010 282 1010 588 q 942 60 1010 136 q 753 -17 875 -17 q 610 19 676 -17 q 579 71 579 38 q 585 96 579 85 l 614 163 q 667 201 632 201 q 692 197 679 201 q 729 192 718 192 q 788 278 788 192 q 674 379 788 379 q 528 343 589 379 l 528 64 q 509 19 528 38 q 464 0 490 0 l 369 0 q 324 19 343 0 q 306 64 306 38 l 306 764 l 78 764 q 33 783 51 764 q 14 828 14 801 l 14 908 q 33 953 14 935 q 78 972 51 972 l 756 972 q 801 953 782 972 q 819 908 819 935 l 819 828 q 801 783 819 801 q 756 764 782 764 l 528 764 z "},"Ѓ":{"ha":708,"x_min":125,"x_max":725,"o":"m 347 764 l 347 64 q 328 19 347 38 q 283 0 310 0 l 189 0 q 144 19 163 0 q 125 64 125 38 l 125 908 q 144 953 125 935 q 189 972 163 972 l 617 972 q 662 953 643 972 q 681 908 681 935 l 681 828 q 662 783 681 801 q 617 764 643 764 l 347 764 m 403 1165 l 608 1268 q 636 1275 621 1275 q 694 1238 679 1275 l 719 1181 q 725 1157 725 1167 q 713 1122 725 1138 q 682 1100 701 1106 l 464 1031 q 439 1026 451 1026 q 371 1068 390 1026 q 364 1100 364 1086 q 403 1165 364 1144 z "},"Є":{"ha":928,"x_min":56,"x_max":896,"o":"m 774 742 q 738 750 756 742 q 586 781 671 781 q 399 734 475 781 q 294 600 324 688 l 615 600 q 660 581 642 600 q 679 536 679 563 l 679 456 q 660 410 679 429 q 615 392 642 392 l 290 392 q 402 241 318 290 q 593 192 486 192 q 760 232 682 192 q 796 240 778 240 q 853 207 833 240 l 888 146 q 896 113 896 131 q 863 54 896 75 q 575 -17 749 -17 q 196 118 336 -17 q 56 486 56 253 q 194 850 56 711 q 546 989 332 989 q 842 919 724 989 q 871 865 871 901 q 863 832 871 849 l 832 778 q 774 742 813 742 z "},"Ѕ":{"ha":774,"x_min":63,"x_max":711,"o":"m 74 183 l 114 242 q 165 271 132 271 q 208 257 189 271 q 383 192 307 192 q 451 212 426 192 q 475 267 475 232 q 433 337 475 306 q 332 396 392 368 q 213 458 272 424 q 111 557 153 493 q 69 708 69 621 q 156 907 69 825 q 383 989 242 989 q 624 925 524 989 q 650 871 650 908 q 642 838 650 853 l 606 776 q 550 743 585 743 q 513 754 532 743 q 403 781 460 781 q 331 761 357 781 q 306 708 306 742 q 335 642 306 671 q 410 594 365 613 q 508 547 456 575 q 606 488 561 519 q 681 401 651 457 q 711 269 711 344 q 616 64 711 144 q 378 -17 521 -17 q 83 94 226 -17 q 63 143 63 111 q 74 183 63 168 z "},"І":{"ha":500,"x_min":139,"x_max":361,"o":"m 361 908 l 361 64 q 342 19 361 38 q 297 0 324 0 l 203 0 q 158 19 176 0 q 139 64 139 38 l 139 908 q 158 953 139 935 q 203 972 176 972 l 297 972 q 342 953 324 972 q 361 908 361 935 z "},"Ї":{"ha":501,"x_min":14,"x_max":488,"o":"m 14 1163 q 47 1242 14 1213 q 129 1271 81 1271 q 208 1241 175 1271 q 240 1163 240 1211 q 208 1077 240 1108 q 129 1046 175 1046 q 47 1076 81 1046 q 14 1163 14 1107 m 261 1163 q 294 1242 261 1213 q 378 1271 328 1271 q 455 1241 422 1271 q 488 1163 488 1211 q 456 1077 488 1108 q 378 1046 424 1046 q 294 1076 328 1046 q 261 1163 261 1107 m 361 908 l 361 64 q 342 19 361 38 q 297 0 324 0 l 203 0 q 158 19 176 0 q 139 64 139 38 l 139 908 q 158 953 139 935 q 203 972 176 972 l 297 972 q 342 953 324 972 q 361 908 361 935 z "},"Ј":{"ha":565,"x_min":-4,"x_max":440,"o":"m 218 278 l 218 908 q 237 953 218 935 q 282 972 256 972 l 376 972 q 422 953 403 972 q 440 908 440 935 l 440 238 q 374 49 440 114 q 183 -17 307 -17 q 32 18 101 -17 q -4 71 -4 36 q 4 104 -4 86 l 29 161 q 83 200 47 200 q 115 196 99 200 q 146 192 131 192 l 153 192 q 201 214 183 192 q 218 278 218 236 z "},"Љ":{"ha":1385,"x_min":26,"x_max":1329,"o":"m 890 458 l 890 211 q 954 206 938 206 q 1093 340 1093 206 q 1056 434 1093 403 q 956 465 1019 465 q 890 458 935 465 m 232 778 l 242 908 q 264 954 244 936 q 310 972 283 972 l 826 972 q 872 953 853 972 q 890 908 890 935 l 890 668 q 975 674 935 674 q 1240 586 1150 674 q 1329 346 1329 499 q 1224 91 1329 185 q 928 -3 1118 -3 q 732 0 843 -3 q 687 19 706 0 q 668 65 668 39 l 668 764 l 454 764 l 433 581 q 362 222 407 351 q 253 43 317 93 q 89 -7 189 -7 q 44 9 61 -7 q 26 50 26 25 l 26 133 q 38 183 26 165 q 85 215 50 200 q 176 353 143 240 q 232 778 208 467 z "},"Њ":{"ha":1406,"x_min":125,"x_max":1350,"o":"m 347 422 l 347 64 q 328 19 347 38 q 283 0 310 0 l 189 0 q 144 19 163 0 q 125 64 125 38 l 125 908 q 144 953 125 935 q 189 972 163 972 l 283 972 q 328 953 310 972 q 347 908 347 935 l 347 631 l 688 631 l 688 908 q 706 953 688 935 q 751 972 725 972 l 846 972 q 891 953 872 972 q 910 908 910 935 l 910 640 q 996 646 956 646 q 1260 560 1169 646 q 1350 332 1350 475 q 1244 90 1350 182 q 949 -3 1138 -3 q 751 0 896 -3 q 706 19 725 0 q 688 65 688 39 l 688 422 l 347 422 m 910 211 q 975 206 960 206 q 1078 237 1043 206 q 1114 326 1114 268 q 1076 408 1114 379 q 976 438 1039 438 q 910 431 956 438 l 910 211 z "},"Ћ":{"ha":1067,"x_min":14,"x_max":1011,"o":"m 464 0 l 369 0 q 324 19 343 0 q 306 64 306 38 l 306 764 l 78 764 q 33 783 51 764 q 14 828 14 801 l 14 908 q 33 953 14 935 q 78 972 51 972 l 756 972 q 801 953 782 972 q 819 908 819 935 l 819 828 q 801 783 819 801 q 756 764 782 764 l 528 764 l 528 546 q 713 588 601 588 q 819 572 768 588 q 914 522 869 556 q 985 425 958 488 q 1011 278 1011 363 l 1011 64 q 992 19 1011 38 q 947 0 974 0 l 853 0 q 808 19 826 0 q 789 64 789 38 l 789 211 q 752 344 789 308 q 653 379 715 379 q 528 342 588 379 l 528 64 q 509 19 528 38 q 464 0 490 0 z "},"Ќ":{"ha":956,"x_min":125,"x_max":899,"o":"m 347 463 l 347 64 q 328 19 347 38 q 283 0 310 0 l 189 0 q 144 19 163 0 q 125 64 125 38 l 125 908 q 144 953 125 935 q 189 972 163 972 l 283 972 q 328 953 310 972 q 347 908 347 935 l 347 549 l 636 933 q 714 972 665 972 l 806 972 q 849 954 832 972 q 867 913 867 936 q 853 874 867 892 l 567 524 l 885 101 q 899 63 899 83 q 881 19 899 38 q 835 0 863 0 l 728 0 q 650 40 679 0 l 347 463 m 486 1165 l 692 1268 q 719 1275 704 1275 q 778 1238 763 1275 l 803 1181 q 808 1157 808 1167 q 797 1122 808 1138 q 765 1100 785 1106 l 547 1031 q 522 1026 535 1026 q 454 1068 474 1026 q 447 1100 447 1086 q 486 1165 447 1144 z "},"Ў":{"ha":964,"x_min":57,"x_max":921,"o":"m 285 929 l 533 497 l 711 926 q 779 972 732 972 l 858 972 q 903 955 886 972 q 921 913 921 938 q 914 883 921 900 l 628 231 q 509 58 576 115 q 343 0 442 0 q 229 24 282 0 q 197 75 197 39 q 203 104 197 89 l 229 172 q 288 215 246 215 q 313 213 296 215 q 349 208 331 208 q 414 247 396 208 l 426 276 l 67 875 q 57 913 57 893 q 74 955 57 938 q 118 972 90 972 l 211 972 q 285 929 260 972 m 797 1196 q 719 1053 797 1106 q 503 1000 642 1000 q 286 1053 364 1000 q 208 1196 208 1106 q 311 1292 208 1292 q 417 1196 417 1292 q 436 1162 417 1171 q 503 1153 456 1153 q 569 1162 550 1153 q 589 1196 589 1171 q 694 1292 589 1292 q 797 1196 797 1292 z "},"Џ":{"ha":1021,"x_min":125,"x_max":896,"o":"m 550 -208 l 469 -208 q 424 -190 443 -208 q 406 -144 406 -171 l 406 0 l 189 0 q 144 19 163 0 q 125 64 125 38 l 125 908 q 144 953 125 935 q 189 972 163 972 l 283 972 q 328 953 310 972 q 347 908 347 935 l 347 208 l 674 208 l 674 908 q 692 953 674 935 q 738 972 711 972 l 832 972 q 877 953 858 972 q 896 908 896 935 l 896 64 q 877 19 896 38 q 832 0 858 0 l 614 0 l 614 -144 q 595 -190 614 -171 q 550 -208 576 -208 z "},"А":{"ha":1001,"x_min":28,"x_max":974,"o":"m 686 204 l 301 204 l 239 46 q 172 0 221 0 l 88 0 q 45 18 63 0 q 28 60 28 36 q 32 83 28 72 l 382 926 q 450 972 403 972 l 551 972 q 619 926 599 972 l 969 83 q 974 60 974 72 q 956 18 974 36 q 914 0 939 0 l 815 0 q 749 46 767 0 l 686 204 m 494 688 l 385 413 l 603 413 l 494 688 z "},"Б":{"ha":857,"x_min":125,"x_max":774,"o":"m 347 610 q 458 618 388 618 q 687 536 600 618 q 774 318 774 454 q 675 79 774 165 q 396 -7 576 -7 q 189 -1 294 -7 q 144 19 163 0 q 125 65 125 38 l 125 908 q 144 953 125 935 q 189 972 163 972 l 647 972 q 692 953 674 972 q 711 908 711 935 l 711 828 q 692 783 711 801 q 647 764 674 764 l 347 764 l 347 610 m 347 401 l 347 208 q 431 201 407 201 q 551 301 551 201 q 524 379 551 349 q 440 410 497 410 q 347 401 397 410 z "},"В":{"ha":857,"x_min":125,"x_max":774,"o":"m 746 736 q 635 518 746 593 q 734 438 694 494 q 774 294 774 382 q 672 71 774 147 q 404 -6 569 -6 q 189 -1 285 -6 q 144 20 164 0 q 125 65 125 40 l 125 906 q 144 951 125 932 q 189 972 163 971 q 419 978 319 978 q 665 911 585 978 q 746 736 746 844 m 347 393 l 347 211 q 422 203 378 203 q 551 306 551 203 q 433 393 551 393 l 347 393 m 347 588 l 421 588 q 524 682 524 588 q 492 747 524 724 q 417 769 461 769 q 347 764 397 769 l 347 588 z "},"Г":{"ha":708,"x_min":125,"x_max":681,"o":"m 347 764 l 347 64 q 328 19 347 38 q 283 0 310 0 l 189 0 q 144 19 163 0 q 125 64 125 38 l 125 908 q 144 953 125 935 q 189 972 163 972 l 617 972 q 662 953 643 972 q 681 908 681 935 l 681 828 q 662 783 681 801 q 617 764 643 764 l 347 764 z "},"Д":{"ha":1061,"x_min":14,"x_max":1033,"o":"m 222 0 l 222 -103 q 203 -148 222 -129 q 158 -167 185 -167 l 78 -167 q 33 -148 51 -167 q 14 -103 14 -129 l 14 144 q 33 190 14 171 q 78 208 51 208 l 118 208 q 203 413 158 260 q 258 778 249 567 l 264 908 q 285 953 265 935 q 331 972 304 972 l 838 972 q 883 953 864 972 q 901 908 901 935 l 901 208 l 969 208 q 1015 190 996 208 q 1033 144 1033 171 l 1033 -103 q 1015 -148 1033 -129 q 969 -167 996 -167 l 889 -167 q 844 -148 863 -167 q 825 -103 825 -129 l 825 0 l 222 0 m 679 208 l 679 764 l 482 764 l 467 600 q 422 362 456 481 q 363 208 389 243 l 679 208 z "},"Е":{"ha":799,"x_min":125,"x_max":715,"o":"m 715 144 l 715 64 q 697 19 715 38 q 651 0 678 0 l 189 0 q 144 19 163 0 q 125 64 125 38 l 125 908 q 144 953 125 935 q 189 972 163 972 l 638 972 q 683 953 664 972 q 701 908 701 935 l 701 828 q 683 783 701 801 q 638 764 664 764 l 347 764 l 347 593 l 596 593 q 641 574 622 593 q 660 529 660 556 l 660 449 q 641 403 660 422 q 596 385 622 385 l 347 385 l 347 208 l 651 208 q 697 190 678 208 q 715 144 715 171 z "},"Ж":{"ha":1342,"x_min":53,"x_max":1289,"o":"m 132 972 l 217 972 q 293 932 267 972 l 560 547 l 560 908 q 578 953 560 935 q 624 972 597 972 l 718 972 q 763 953 744 972 q 782 908 782 935 l 782 547 l 1049 932 q 1125 972 1075 972 l 1210 972 q 1255 954 1238 972 q 1272 911 1272 936 q 1260 874 1272 890 l 994 508 l 1278 100 q 1289 64 1289 85 q 1271 19 1289 39 q 1225 0 1253 0 l 1140 0 q 1064 40 1092 0 l 782 465 l 782 64 q 763 19 782 38 q 718 0 744 0 l 624 0 q 578 19 597 0 q 560 64 560 38 l 560 465 l 278 40 q 201 0 250 0 l 117 0 q 71 19 89 0 q 53 64 53 39 q 64 100 53 85 l 347 507 l 82 874 q 69 911 69 890 q 87 954 69 936 q 132 972 104 972 z "},"З":{"ha":818,"x_min":46,"x_max":735,"o":"m 397 989 q 615 917 532 989 q 697 715 697 846 q 575 507 697 590 q 735 272 735 453 q 629 63 735 143 q 386 -17 524 -17 q 67 114 208 -17 q 46 163 46 133 q 61 206 46 186 l 110 261 q 160 285 131 285 q 201 269 182 285 q 376 192 299 192 q 472 216 431 192 q 513 294 513 240 q 475 366 513 339 q 361 393 438 393 l 336 393 q 291 412 310 393 q 272 457 272 431 l 272 538 q 291 583 272 564 q 336 601 310 601 l 356 601 q 441 624 407 601 q 475 690 475 647 q 446 758 475 735 q 368 781 417 781 q 238 731 306 781 q 194 715 215 715 q 143 740 164 715 l 100 792 q 86 832 86 807 q 108 882 86 865 q 397 989 240 989 z "},"И":{"ha":1097,"x_min":125,"x_max":972,"o":"m 908 0 l 814 0 q 769 19 788 0 q 750 64 750 38 l 750 604 l 347 40 q 275 0 321 0 l 189 0 q 144 19 163 0 q 125 64 125 38 l 125 908 q 144 953 125 935 q 189 972 163 972 l 283 972 q 328 953 310 972 q 347 908 347 935 l 347 368 l 750 932 q 822 972 776 972 l 908 972 q 953 953 935 972 q 972 908 972 935 l 972 64 q 953 19 972 38 q 908 0 935 0 z "},"Й":{"ha":1097,"x_min":125,"x_max":972,"o":"m 908 0 l 814 0 q 769 19 788 0 q 750 64 750 38 l 750 604 l 347 40 q 275 0 321 0 l 189 0 q 144 19 163 0 q 125 64 125 38 l 125 908 q 144 953 125 935 q 189 972 163 972 l 283 972 q 328 953 310 972 q 347 908 347 935 l 347 368 l 750 932 q 822 972 776 972 l 908 972 q 953 953 935 972 q 972 908 972 935 l 972 64 q 953 19 972 38 q 908 0 935 0 m 867 1196 q 789 1053 867 1106 q 572 1000 711 1000 q 356 1053 433 1000 q 278 1196 278 1106 q 381 1292 278 1292 q 486 1196 486 1292 q 506 1162 486 1171 q 572 1153 525 1153 q 639 1162 619 1153 q 658 1196 658 1171 q 764 1292 658 1292 q 867 1196 867 1292 z "},"К":{"ha":956,"x_min":125,"x_max":899,"o":"m 347 463 l 347 64 q 328 19 347 38 q 283 0 310 0 l 189 0 q 144 19 163 0 q 125 64 125 38 l 125 908 q 144 953 125 935 q 189 972 163 972 l 283 972 q 328 953 310 972 q 347 908 347 935 l 347 549 l 636 933 q 714 972 665 972 l 806 972 q 849 954 832 972 q 867 913 867 936 q 853 874 867 892 l 567 524 l 885 101 q 899 63 899 83 q 881 19 899 38 q 835 0 863 0 l 728 0 q 650 40 679 0 l 347 463 z "},"Л":{"ha":1015,"x_min":26,"x_max":890,"o":"m 890 908 l 890 64 q 872 19 890 38 q 826 0 853 0 l 732 0 q 687 19 706 0 q 668 64 668 38 l 668 764 l 454 764 l 433 581 q 362 222 407 351 q 253 43 317 93 q 89 -7 189 -7 q 44 9 61 -7 q 26 50 26 25 l 26 133 q 38 183 26 165 q 85 215 50 200 q 176 353 143 240 q 232 778 208 467 l 242 908 q 264 954 244 936 q 310 972 283 972 l 826 972 q 872 953 853 972 q 890 908 890 935 z "},"М":{"ha":1267,"x_min":125,"x_max":1142,"o":"m 347 615 l 347 64 q 328 19 347 38 q 283 0 310 0 l 189 0 q 144 19 163 0 q 125 64 125 38 l 125 908 q 144 953 125 935 q 189 972 163 972 l 306 972 q 378 933 349 972 l 649 563 l 904 932 q 974 972 931 972 l 1078 972 q 1123 953 1104 972 q 1142 908 1142 935 l 1142 64 q 1123 19 1142 38 q 1078 0 1104 0 l 983 0 q 938 19 957 0 q 919 64 919 38 l 919 619 l 718 336 q 633 288 682 288 q 549 336 585 288 l 347 615 z "},"Н":{"ha":1049,"x_min":125,"x_max":924,"o":"m 924 908 l 924 64 q 905 19 924 38 q 860 0 886 0 l 765 0 q 720 19 739 0 q 701 64 701 38 l 701 392 l 347 392 l 347 64 q 328 19 347 38 q 283 0 310 0 l 189 0 q 144 19 163 0 q 125 64 125 38 l 125 908 q 144 953 125 935 q 189 972 163 972 l 283 972 q 328 953 310 972 q 347 908 347 935 l 347 600 l 701 600 l 701 908 q 720 953 701 935 q 765 972 739 972 l 860 972 q 905 953 886 972 q 924 908 924 935 z "},"О":{"ha":1144,"x_min":56,"x_max":1089,"o":"m 56 486 q 199 845 56 701 q 572 989 343 989 q 944 851 799 989 q 1089 486 1089 714 q 942 125 1089 267 q 572 -17 796 -17 q 201 121 346 -17 q 56 486 56 258 m 292 486 q 374 276 292 361 q 572 192 456 192 q 779 274 706 192 q 853 486 853 357 q 772 699 853 617 q 572 781 692 781 q 371 699 450 781 q 292 486 292 618 z "},"П":{"ha":1035,"x_min":125,"x_max":910,"o":"m 910 908 l 910 64 q 891 19 910 38 q 846 0 872 0 l 751 0 q 706 19 725 0 q 688 64 688 38 l 688 764 l 347 764 l 347 64 q 328 19 347 38 q 283 0 310 0 l 189 0 q 144 19 163 0 q 125 64 125 38 l 125 908 q 144 953 125 935 q 189 972 163 972 l 846 972 q 891 953 872 972 q 910 908 910 935 z "},"Р":{"ha":871,"x_min":125,"x_max":815,"o":"m 422 975 q 722 884 629 975 q 815 653 815 793 q 717 422 815 517 q 456 326 618 326 q 347 331 382 326 l 347 64 q 328 19 347 38 q 283 0 310 0 l 189 0 q 144 19 163 0 q 125 64 125 38 l 125 907 q 144 953 125 933 q 189 972 163 972 q 422 975 336 975 m 347 764 l 347 542 q 449 535 400 535 q 540 563 501 535 q 579 654 579 590 q 444 767 579 767 q 347 764 439 767 z "},"С":{"ha":907,"x_min":56,"x_max":878,"o":"m 703 756 q 564 781 639 781 q 369 703 446 781 q 292 486 292 625 q 374 274 292 357 q 586 192 456 192 q 738 229 664 192 q 778 239 757 239 q 835 206 815 239 l 868 153 q 878 118 878 136 q 847 60 878 82 q 565 -17 736 -17 q 197 122 339 -17 q 56 486 56 260 q 189 847 56 706 q 564 989 322 989 q 800 935 692 989 q 833 881 833 919 q 826 850 833 867 l 796 786 q 736 749 779 749 q 703 756 721 749 z "},"Т":{"ha":833,"x_min":14,"x_max":819,"o":"m 464 0 l 369 0 q 324 19 343 0 q 306 64 306 38 l 306 764 l 78 764 q 33 783 51 764 q 14 828 14 801 l 14 908 q 33 953 14 935 q 78 972 51 972 l 756 972 q 801 953 782 972 q 819 908 819 935 l 819 828 q 801 783 819 801 q 756 764 782 764 l 528 764 l 528 64 q 509 19 528 38 q 464 0 490 0 z "},"У":{"ha":964,"x_min":57,"x_max":921,"o":"m 285 929 l 533 497 l 711 926 q 779 972 732 972 l 858 972 q 903 955 886 972 q 921 913 921 938 q 914 883 921 900 l 628 231 q 509 58 576 115 q 343 0 442 0 q 229 24 282 0 q 197 75 197 39 q 203 104 197 89 l 229 172 q 288 215 246 215 q 313 213 296 215 q 349 208 331 208 q 414 247 396 208 l 426 276 l 67 875 q 57 913 57 893 q 74 955 57 938 q 118 972 90 972 l 211 972 q 285 929 260 972 z "},"Ф":{"ha":1172,"x_min":42,"x_max":1131,"o":"m 696 119 l 696 53 q 677 8 696 26 q 632 -11 658 -11 l 538 -11 q 492 8 511 -11 q 474 53 474 26 l 474 119 q 158 222 275 122 q 42 500 42 321 q 160 776 42 676 q 474 881 278 875 l 474 919 q 492 965 474 946 q 538 983 511 983 l 632 983 q 677 965 658 983 q 696 919 696 946 l 696 881 q 1010 775 890 876 q 1131 500 1131 674 q 1012 222 1131 322 q 696 119 893 122 m 696 324 q 849 369 803 325 q 894 500 894 413 q 847 625 894 576 q 696 676 800 674 l 696 324 m 474 676 q 326 625 374 674 q 278 500 278 576 q 474 324 278 328 l 474 676 z "},"Х":{"ha":925,"x_min":50,"x_max":875,"o":"m 297 931 l 468 660 l 632 931 q 706 972 657 972 l 796 972 q 843 953 824 972 q 863 907 863 933 q 851 871 863 889 l 607 496 l 864 101 q 875 65 875 83 q 856 19 875 39 q 808 0 836 0 l 718 0 q 643 42 671 0 l 461 326 l 282 42 q 207 0 254 0 l 117 0 q 69 19 89 0 q 50 65 50 39 q 61 101 50 83 l 318 496 l 76 869 q 65 906 65 888 q 85 952 65 932 q 132 972 104 972 l 222 972 q 297 931 269 972 z "},"Ц":{"ha":1063,"x_min":125,"x_max":1035,"o":"m 971 -167 l 890 -167 q 845 -148 864 -167 q 826 -103 826 -129 l 826 0 l 189 0 q 144 19 163 0 q 125 64 125 38 l 125 908 q 144 953 125 935 q 189 972 163 972 l 283 972 q 328 953 310 972 q 347 908 347 935 l 347 208 l 681 208 l 681 908 q 699 953 681 935 q 744 972 718 972 l 839 972 q 884 953 865 972 q 903 908 903 935 l 903 208 l 971 208 q 1016 190 997 208 q 1035 144 1035 171 l 1035 -103 q 1016 -148 1035 -129 q 971 -167 997 -167 z "},"Ч":{"ha":951,"x_min":97,"x_max":826,"o":"m 604 575 l 604 908 q 623 953 604 935 q 668 972 642 972 l 763 972 q 808 953 789 972 q 826 908 826 935 l 826 64 q 808 19 826 38 q 763 0 789 0 l 668 0 q 623 19 642 0 q 604 64 604 38 l 604 372 q 396 315 532 315 q 290 331 340 315 q 194 381 239 347 q 124 478 150 415 q 97 625 97 540 l 97 908 q 116 953 97 935 q 161 972 135 972 l 256 972 q 301 953 282 972 q 319 908 319 935 l 319 692 q 356 559 319 594 q 456 524 393 524 q 604 575 533 524 z "},"Ш":{"ha":1389,"x_min":125,"x_max":1264,"o":"m 1264 908 l 1264 64 q 1245 19 1264 38 q 1200 0 1226 0 l 189 0 q 144 19 163 0 q 125 64 125 38 l 125 908 q 144 953 125 935 q 189 972 163 972 l 283 972 q 328 953 310 972 q 347 908 347 935 l 347 208 l 583 208 l 583 908 q 602 953 583 935 q 647 972 621 972 l 742 972 q 787 953 768 972 q 806 908 806 935 l 806 208 l 1042 208 l 1042 908 q 1060 953 1042 935 q 1106 972 1079 972 l 1200 972 q 1245 953 1226 972 q 1264 908 1264 935 z "},"Щ":{"ha":1424,"x_min":125,"x_max":1396,"o":"m 1332 -167 l 1251 -167 q 1206 -148 1225 -167 q 1188 -103 1188 -129 l 1188 0 l 189 0 q 144 19 163 0 q 125 64 125 38 l 125 908 q 144 953 125 935 q 189 972 163 972 l 283 972 q 328 953 310 972 q 347 908 347 935 l 347 208 l 583 208 l 583 908 q 602 953 583 935 q 647 972 621 972 l 742 972 q 787 953 768 972 q 806 908 806 935 l 806 208 l 1042 208 l 1042 908 q 1060 953 1042 935 q 1106 972 1079 972 l 1200 972 q 1245 953 1226 972 q 1264 908 1264 935 l 1264 208 l 1332 208 q 1377 190 1358 208 q 1396 144 1396 171 l 1396 -103 q 1377 -148 1396 -129 q 1332 -167 1358 -167 z "},"Ъ":{"ha":940,"x_min":14,"x_max":885,"o":"m 469 -3 q 272 0 386 -3 q 227 19 246 0 q 208 65 208 39 l 208 764 l 78 764 q 33 783 51 764 q 14 828 14 801 l 14 908 q 33 953 14 935 q 78 972 51 972 l 367 972 q 412 953 393 972 q 431 908 431 935 l 431 668 q 517 674 476 674 q 793 587 701 674 q 885 346 885 500 q 776 92 885 186 q 469 -3 668 -3 m 431 458 l 431 211 q 496 206 481 206 q 649 340 649 206 q 497 465 649 465 q 431 458 476 465 z "},"Ы":{"ha":1229,"x_min":125,"x_max":1104,"o":"m 1104 908 l 1104 64 q 1085 19 1104 38 q 1040 0 1067 0 l 946 0 q 901 19 919 0 q 882 64 882 38 l 882 908 q 901 953 882 935 q 946 972 919 972 l 1040 972 q 1085 953 1067 972 q 1104 908 1104 935 m 347 458 l 347 211 q 413 206 397 206 q 551 340 551 206 q 515 434 551 403 q 414 465 478 465 q 347 458 393 465 m 125 65 l 125 908 q 144 953 125 935 q 189 972 163 972 l 283 972 q 328 953 310 972 q 347 908 347 935 l 347 668 q 433 674 393 674 q 698 586 608 674 q 788 346 788 499 q 682 92 788 188 q 386 -3 576 -3 q 189 0 303 -3 q 144 19 163 0 q 125 65 125 39 z "},"Ь":{"ha":857,"x_min":125,"x_max":801,"o":"m 347 458 l 347 211 q 413 206 397 206 q 565 340 565 206 q 414 465 565 465 q 347 458 393 465 m 125 65 l 125 908 q 144 953 125 935 q 189 972 163 972 l 283 972 q 328 953 310 972 q 347 908 347 935 l 347 668 q 433 674 393 674 q 710 587 618 674 q 801 346 801 500 q 693 92 801 186 q 386 -3 585 -3 q 189 0 303 -3 q 144 19 163 0 q 125 65 125 39 z "}}}
